%TF.GenerationSoftware,KiCad,Pcbnew,(6.0.1)*%
%TF.CreationDate,2022-05-11T20:09:52-07:00*%
%TF.ProjectId,BlackberryJam_pcb,426c6163-6b62-4657-9272-794a616d5f70,rev?*%
%TF.SameCoordinates,Original*%
%TF.FileFunction,Copper,L2,Bot*%
%TF.FilePolarity,Positive*%
%FSLAX46Y46*%
G04 Gerber Fmt 4.6, Leading zero omitted, Abs format (unit mm)*
G04 Created by KiCad (PCBNEW (6.0.1)) date 2022-05-11 20:09:52*
%MOMM*%
%LPD*%
G01*
G04 APERTURE LIST*
%TA.AperFunction,ComponentPad*%
%ADD10R,1.700000X1.700000*%
%TD*%
%TA.AperFunction,ComponentPad*%
%ADD11C,1.700000*%
%TD*%
%TA.AperFunction,ComponentPad*%
%ADD12C,2.000000*%
%TD*%
%TA.AperFunction,ComponentPad*%
%ADD13C,1.524000*%
%TD*%
%TA.AperFunction,ComponentPad*%
%ADD14C,1.879600*%
%TD*%
%TA.AperFunction,ComponentPad*%
%ADD15O,1.700000X1.700000*%
%TD*%
%TA.AperFunction,Conductor*%
%ADD16C,0.250000*%
%TD*%
G04 APERTURE END LIST*
D10*
%TO.P,U1,5,OUT+*%
%TO.N,RAW (V_IN)*%
X16510000Y-7620000D03*
D11*
%TO.P,U1,6,OUT-*%
%TO.N,GND*%
X16510000Y-5080000D03*
%TD*%
D12*
%TO.P,U4,1,3.3V*%
%TO.N,VCC (3.3V)*%
X36830000Y-5174000D03*
%TO.P,U4,2,SDA*%
%TO.N,A4*%
X34290000Y-5174000D03*
%TO.P,U4,3,SCL*%
%TO.N,A5*%
X31750000Y-5174000D03*
%TO.P,U4,4,INT2*%
%TO.N,D3 (INT1)*%
X29210000Y-5174000D03*
%TO.P,U4,5,INT1*%
%TO.N,D2 (INT0)*%
X26670000Y-5174000D03*
%TO.P,U4,6,GND*%
%TO.N,GND*%
X24130000Y-5174000D03*
%TD*%
D13*
%TO.P,U5,1,VM*%
%TO.N,RAW (V_IN)*%
X11525000Y-44355000D03*
%TO.P,U5,2,VCC*%
%TO.N,VCC (3.3V)*%
X11525000Y-46895000D03*
%TO.P,U5,3,GND*%
%TO.N,GND*%
X11525000Y-49435000D03*
%TO.P,U5,4,A01*%
%TO.N,Net-(D1-Pad2)*%
X11525000Y-51975000D03*
%TO.P,U5,5,A02*%
%TO.N,Net-(D1-Pad1)*%
X11525000Y-54515000D03*
%TO.P,U5,6,B02*%
%TO.N,Net-(D3-Pad2)*%
X11525000Y-57055000D03*
%TO.P,U5,7,B01*%
%TO.N,Net-(D3-Pad1)*%
X11525000Y-59595000D03*
%TO.P,U5,8,GND*%
%TO.N,GND*%
X11525000Y-62135000D03*
%TO.P,U5,9,GND*%
X24225000Y-62135000D03*
%TO.P,U5,10,PWMB*%
%TO.N,D10 (PWM)*%
X24225000Y-59595000D03*
%TO.P,U5,11,BI2*%
%TO.N,GND*%
X24225000Y-57055000D03*
%TO.P,U5,12,BI1*%
%TO.N,D6*%
X24225000Y-54515000D03*
%TO.P,U5,13,STBY*%
%TO.N,D4*%
X24225000Y-51975000D03*
%TO.P,U5,14,AI1*%
%TO.N,D5*%
X24225000Y-49435000D03*
%TO.P,U5,15,AI2*%
%TO.N,GND*%
X24225000Y-46895000D03*
%TO.P,U5,16,PWMA*%
%TO.N,D9 (PWM)*%
X24225000Y-44355000D03*
%TD*%
D14*
%TO.P,U2,JP1_1,DTR*%
%TO.N,unconnected-(U2-PadJP1_1)*%
X20320000Y-24130000D03*
%TO.P,U2,JP1_2,TXO*%
%TO.N,unconnected-(U2-PadJP1_2)*%
X20320000Y-26670000D03*
%TO.P,U2,JP1_3,RXI*%
%TO.N,unconnected-(U2-PadJP1_3)*%
X20320000Y-29210000D03*
%TO.P,U2,JP1_4,VCC*%
%TO.N,VCC (3.3V)*%
X20320000Y-31750000D03*
%TO.P,U2,JP1_5,GND*%
%TO.N,GND*%
X20320000Y-34290000D03*
%TO.P,U2,JP1_6,GND*%
X20320000Y-36830000D03*
%TO.P,U2,JP2_1,A4*%
%TO.N,A4*%
X34163000Y-25781000D03*
%TO.P,U2,JP2_2,A5*%
%TO.N,A5*%
X31623000Y-25781000D03*
%TO.P,U2,JP3_1,A6*%
%TO.N,unconnected-(U2-PadJP3_1)*%
X44577000Y-25781000D03*
%TO.P,U2,JP3_2,A7*%
%TO.N,unconnected-(U2-PadJP3_2)*%
X42037000Y-25781000D03*
%TO.P,U2,JP6_1,RAW*%
%TO.N,RAW (V_IN)*%
X22860000Y-22860000D03*
%TO.P,U2,JP6_2,GND_1*%
%TO.N,unconnected-(U2-PadJP6_2)*%
X25400000Y-22860000D03*
%TO.P,U2,JP6_3,RST_1*%
%TO.N,unconnected-(U2-PadJP6_3)*%
X27940000Y-22860000D03*
%TO.P,U2,JP6_4,VCC_1*%
%TO.N,unconnected-(U2-PadJP6_4)*%
X30480000Y-22860000D03*
%TO.P,U2,JP6_5,A3*%
%TO.N,unconnected-(U2-PadJP6_5)*%
X33020000Y-22860000D03*
%TO.P,U2,JP6_6,A2*%
%TO.N,unconnected-(U2-PadJP6_6)*%
X35560000Y-22860000D03*
%TO.P,U2,JP6_7,A1*%
%TO.N,unconnected-(U2-PadJP6_7)*%
X38100000Y-22860000D03*
%TO.P,U2,JP6_8,A0*%
%TO.N,unconnected-(U2-PadJP6_8)*%
X40640000Y-22860000D03*
%TO.P,U2,JP6_9,SCK*%
%TO.N,unconnected-(U2-PadJP6_9)*%
X43180000Y-22860000D03*
%TO.P,U2,JP6_10,MISO*%
%TO.N,unconnected-(U2-PadJP6_10)*%
X45720000Y-22860000D03*
%TO.P,U2,JP6_11,MOSI*%
%TO.N,unconnected-(U2-PadJP6_11)*%
X48260000Y-22860000D03*
%TO.P,U2,JP6_12,D10*%
%TO.N,D10 (PWM)*%
X50800000Y-22860000D03*
%TO.P,U2,JP7_1,D9*%
%TO.N,D9 (PWM)*%
X50800000Y-38100000D03*
%TO.P,U2,JP7_2,D8*%
%TO.N,unconnected-(U2-PadJP7_2)*%
X48260000Y-38100000D03*
%TO.P,U2,JP7_3,D7*%
%TO.N,unconnected-(U2-PadJP7_3)*%
X45720000Y-38100000D03*
%TO.P,U2,JP7_4,D6*%
%TO.N,D6*%
X43180000Y-38100000D03*
%TO.P,U2,JP7_5,D5*%
%TO.N,D5*%
X40640000Y-38100000D03*
%TO.P,U2,JP7_6,D4*%
%TO.N,D4*%
X38100000Y-38100000D03*
%TO.P,U2,JP7_7,D3*%
%TO.N,D3 (INT1)*%
X35560000Y-38100000D03*
%TO.P,U2,JP7_8,D2*%
%TO.N,D2 (INT0)*%
X33020000Y-38100000D03*
%TO.P,U2,JP7_9,GND_2*%
%TO.N,unconnected-(U2-PadJP7_9)*%
X30480000Y-38100000D03*
%TO.P,U2,JP7_10,RST_2*%
%TO.N,unconnected-(U2-PadJP7_10)*%
X27940000Y-38100000D03*
%TO.P,U2,JP7_11,RXI_2*%
%TO.N,unconnected-(U2-PadJP7_11)*%
X25400000Y-38100000D03*
%TO.P,U2,JP7_12,TXO_2*%
%TO.N,unconnected-(U2-PadJP7_12)*%
X22860000Y-38100000D03*
%TD*%
D10*
%TO.P,U3,1,+IN*%
%TO.N,Net-(D1-Pad1)*%
X31750000Y-60960000D03*
D15*
%TO.P,U3,2,-IN*%
%TO.N,Net-(D1-Pad2)*%
X34290000Y-60960000D03*
%TD*%
D10*
%TO.P,M2,1,+*%
%TO.N,Net-(D1-Pad2)*%
X8890000Y-17780000D03*
D15*
%TO.P,M2,2,-*%
%TO.N,Net-(D1-Pad1)*%
X6350000Y-17780000D03*
%TD*%
D10*
%TO.P,M3,1,+*%
%TO.N,Net-(D3-Pad1)*%
X45720000Y-60960000D03*
D15*
%TO.P,M3,2,-*%
%TO.N,Net-(D3-Pad2)*%
X48260000Y-60960000D03*
%TD*%
D16*
%TO.N,D2 (INT0)*%
X26675689Y-31755689D02*
X33020000Y-38100000D01*
X27940000Y-17780000D02*
X26675689Y-19044311D01*
X26675689Y-19044311D02*
X26675689Y-31755689D01*
X26670000Y-11430000D02*
X27940000Y-12700000D01*
X27940000Y-12700000D02*
X27940000Y-17780000D01*
X26670000Y-5174000D02*
X26670000Y-11430000D01*
%TO.N,Net-(D1-Pad1)*%
X17970000Y-60960000D02*
X31750000Y-60960000D01*
X11525000Y-54515000D02*
X17970000Y-60960000D01*
%TO.N,Net-(D3-Pad2)*%
X45998489Y-63221511D02*
X17691511Y-63221511D01*
X17691511Y-63221511D02*
X11525000Y-57055000D01*
X48260000Y-60960000D02*
X45998489Y-63221511D01*
%TO.N,D3 (INT1)*%
X29210000Y-5174000D02*
X29210000Y-31750000D01*
X29210000Y-31750000D02*
X35560000Y-38100000D01*
%TO.N,D5*%
X29305000Y-49435000D02*
X40640000Y-38100000D01*
X24225000Y-49435000D02*
X29305000Y-49435000D01*
%TO.N,D6*%
X26765000Y-54515000D02*
X43180000Y-38100000D01*
X24225000Y-54515000D02*
X26765000Y-54515000D01*
%TO.N,D10 (PWM)*%
X33020000Y-52070000D02*
X40640000Y-52070000D01*
X25495000Y-59595000D02*
X33020000Y-52070000D01*
X40640000Y-52070000D02*
X53340000Y-39370000D01*
X24225000Y-59595000D02*
X25495000Y-59595000D01*
X53340000Y-39370000D02*
X53340000Y-25400000D01*
X53340000Y-25400000D02*
X50800000Y-22860000D01*
%TO.N,A5*%
X31750000Y-5174000D02*
X31750000Y-25654000D01*
X31750000Y-25654000D02*
X31623000Y-25781000D01*
X30861000Y-25781000D02*
X31623000Y-25781000D01*
X31612993Y-25781000D02*
X31623000Y-25781000D01*
%TO.N,A4*%
X34290000Y-25654000D02*
X34163000Y-25781000D01*
X34152993Y-25781000D02*
X34163000Y-25781000D01*
X33020000Y-12700000D02*
X33020000Y-17780000D01*
X34290000Y-5174000D02*
X34290000Y-11430000D01*
X33020000Y-17780000D02*
X34290000Y-19050000D01*
X34290000Y-19050000D02*
X34290000Y-25654000D01*
X34290000Y-11430000D02*
X33020000Y-12700000D01*
%TO.N,VCC (3.3V)*%
X21590000Y-3810000D02*
X22860000Y-2540000D01*
X15240000Y-43180000D02*
X11525000Y-46895000D01*
X21590000Y-16510000D02*
X17780000Y-20320000D01*
X15240000Y-29210000D02*
X15240000Y-22860000D01*
X17780000Y-31750000D02*
X15240000Y-29210000D01*
X15240000Y-22860000D02*
X17780000Y-20320000D01*
X34196000Y-2540000D02*
X36830000Y-5174000D01*
X22860000Y-2540000D02*
X34196000Y-2540000D01*
X15240000Y-34290000D02*
X15240000Y-43180000D01*
X17780000Y-31750000D02*
X15240000Y-34290000D01*
X21590000Y-3810000D02*
X21590000Y-16510000D01*
X20320000Y-31750000D02*
X17780000Y-31750000D01*
%TD*%
%TA.AperFunction,Conductor*%
%TO.N,GND*%
G36*
X59278121Y-374002D02*
G01*
X59324614Y-427658D01*
X59336000Y-480000D01*
X59336000Y-65560000D01*
X59315998Y-65628121D01*
X59262342Y-65674614D01*
X59210000Y-65686000D01*
X480000Y-65686000D01*
X411879Y-65665998D01*
X365386Y-65612342D01*
X354000Y-65560000D01*
X354000Y-63193777D01*
X10830777Y-63193777D01*
X10840074Y-63205793D01*
X10883069Y-63235898D01*
X10892555Y-63241376D01*
X11083993Y-63330645D01*
X11094285Y-63334391D01*
X11298309Y-63389059D01*
X11309104Y-63390962D01*
X11519525Y-63409372D01*
X11530475Y-63409372D01*
X11740896Y-63390962D01*
X11751691Y-63389059D01*
X11955715Y-63334391D01*
X11966007Y-63330645D01*
X12157445Y-63241376D01*
X12166931Y-63235898D01*
X12210764Y-63205207D01*
X12219139Y-63194729D01*
X12212071Y-63181281D01*
X11537812Y-62507022D01*
X11523868Y-62499408D01*
X11522035Y-62499539D01*
X11515420Y-62503790D01*
X10837207Y-63182003D01*
X10830777Y-63193777D01*
X354000Y-63193777D01*
X354000Y-62140475D01*
X10250628Y-62140475D01*
X10269038Y-62350896D01*
X10270941Y-62361691D01*
X10325609Y-62565715D01*
X10329355Y-62576007D01*
X10418623Y-62767441D01*
X10424103Y-62776932D01*
X10454794Y-62820765D01*
X10465271Y-62829140D01*
X10478718Y-62822072D01*
X11152978Y-62147812D01*
X11159356Y-62136132D01*
X11889408Y-62136132D01*
X11889539Y-62137965D01*
X11893790Y-62144580D01*
X12572003Y-62822793D01*
X12583777Y-62829223D01*
X12595793Y-62819926D01*
X12625897Y-62776932D01*
X12631377Y-62767441D01*
X12720645Y-62576007D01*
X12724391Y-62565715D01*
X12779059Y-62361691D01*
X12780962Y-62350896D01*
X12799372Y-62140475D01*
X12799372Y-62129525D01*
X12780962Y-61919104D01*
X12779059Y-61908309D01*
X12724391Y-61704285D01*
X12720645Y-61693993D01*
X12631377Y-61502559D01*
X12625897Y-61493068D01*
X12595206Y-61449235D01*
X12584729Y-61440860D01*
X12571282Y-61447928D01*
X11897022Y-62122188D01*
X11889408Y-62136132D01*
X11159356Y-62136132D01*
X11160592Y-62133868D01*
X11160461Y-62132035D01*
X11156210Y-62125420D01*
X10477997Y-61447207D01*
X10466223Y-61440777D01*
X10454207Y-61450074D01*
X10424103Y-61493068D01*
X10418623Y-61502559D01*
X10329355Y-61693993D01*
X10325609Y-61704285D01*
X10270941Y-61908309D01*
X10269038Y-61919104D01*
X10250628Y-62129525D01*
X10250628Y-62140475D01*
X354000Y-62140475D01*
X354000Y-59667916D01*
X4241200Y-59667916D01*
X4257713Y-59954317D01*
X4258538Y-59958524D01*
X4258539Y-59958529D01*
X4271401Y-60024085D01*
X4312944Y-60235828D01*
X4314331Y-60239879D01*
X4381733Y-60436744D01*
X4405868Y-60507238D01*
X4407793Y-60511065D01*
X4407794Y-60511068D01*
X4517592Y-60729378D01*
X4534767Y-60763526D01*
X4537193Y-60767055D01*
X4537196Y-60767061D01*
X4690250Y-60989754D01*
X4697256Y-60999948D01*
X4700143Y-61003121D01*
X4700144Y-61003122D01*
X4766661Y-61076223D01*
X4890328Y-61212132D01*
X4940581Y-61254150D01*
X5107118Y-61393397D01*
X5107123Y-61393401D01*
X5110410Y-61396149D01*
X5196374Y-61450074D01*
X5349790Y-61546312D01*
X5349794Y-61546314D01*
X5353430Y-61548595D01*
X5357340Y-61550360D01*
X5357341Y-61550361D01*
X5610979Y-61664883D01*
X5610983Y-61664885D01*
X5614891Y-61666649D01*
X5645342Y-61675669D01*
X5885841Y-61746908D01*
X5885845Y-61746909D01*
X5889954Y-61748126D01*
X5894191Y-61748774D01*
X5894194Y-61748775D01*
X6008131Y-61766210D01*
X6173530Y-61791520D01*
X6319584Y-61793814D01*
X6456081Y-61795959D01*
X6456087Y-61795959D01*
X6460372Y-61796026D01*
X6745171Y-61761561D01*
X7022658Y-61688764D01*
X7026618Y-61687124D01*
X7026623Y-61687122D01*
X7164225Y-61630125D01*
X7287698Y-61578981D01*
X7535387Y-61434243D01*
X7761140Y-61257230D01*
X7937471Y-61075271D01*
X10830860Y-61075271D01*
X10837928Y-61088718D01*
X11512188Y-61762978D01*
X11526132Y-61770592D01*
X11527965Y-61770461D01*
X11534580Y-61766210D01*
X12212793Y-61087997D01*
X12219223Y-61076223D01*
X12209926Y-61064207D01*
X12166931Y-61034102D01*
X12157445Y-61028624D01*
X11966007Y-60939355D01*
X11955715Y-60935609D01*
X11751691Y-60880941D01*
X11740895Y-60879037D01*
X11558131Y-60863048D01*
X11519210Y-60847824D01*
X11488030Y-60862982D01*
X11478078Y-60864254D01*
X11309104Y-60879038D01*
X11298309Y-60880941D01*
X11094285Y-60935609D01*
X11083993Y-60939355D01*
X10892559Y-61028623D01*
X10883068Y-61034103D01*
X10839235Y-61064794D01*
X10830860Y-61075271D01*
X7937471Y-61075271D01*
X7960782Y-61051216D01*
X7963315Y-61047768D01*
X7963319Y-61047763D01*
X8128079Y-60823469D01*
X8130617Y-60820014D01*
X8161240Y-60763613D01*
X8265453Y-60571677D01*
X8265454Y-60571675D01*
X8267503Y-60567901D01*
X8368906Y-60299544D01*
X8432952Y-60019907D01*
X8458453Y-59734166D01*
X8458916Y-59690000D01*
X8457702Y-59672196D01*
X8451467Y-59580739D01*
X10503682Y-59580739D01*
X10520362Y-59779386D01*
X10542551Y-59856768D01*
X10572717Y-59961966D01*
X10575310Y-59971009D01*
X10666430Y-60148311D01*
X10790253Y-60304537D01*
X10794946Y-60308531D01*
X10794947Y-60308532D01*
X10807746Y-60319425D01*
X10942063Y-60433737D01*
X10947441Y-60436743D01*
X10947443Y-60436744D01*
X11055972Y-60497398D01*
X11116076Y-60530989D01*
X11121935Y-60532893D01*
X11121938Y-60532894D01*
X11157701Y-60544514D01*
X11305665Y-60592591D01*
X11311775Y-60593320D01*
X11311777Y-60593320D01*
X11379314Y-60601373D01*
X11482015Y-60613619D01*
X11516739Y-60628476D01*
X11544285Y-60613997D01*
X11559445Y-60611898D01*
X11696226Y-60601373D01*
X11696231Y-60601372D01*
X11702367Y-60600900D01*
X11708297Y-60599244D01*
X11708299Y-60599244D01*
X11820037Y-60568046D01*
X11894370Y-60547292D01*
X11917685Y-60535515D01*
X12066802Y-60460191D01*
X12066804Y-60460190D01*
X12072303Y-60457412D01*
X12229390Y-60334682D01*
X12251962Y-60308532D01*
X12355618Y-60188446D01*
X12355619Y-60188444D01*
X12359647Y-60183778D01*
X12458112Y-60010448D01*
X12521035Y-59821294D01*
X12528166Y-59764847D01*
X12545578Y-59627023D01*
X12545579Y-59627013D01*
X12546020Y-59623520D01*
X12546418Y-59595000D01*
X12526965Y-59396606D01*
X12525184Y-59390707D01*
X12525183Y-59390702D01*
X12471129Y-59211667D01*
X12469348Y-59205768D01*
X12422554Y-59117762D01*
X12378655Y-59035198D01*
X12378653Y-59035195D01*
X12375761Y-59029756D01*
X12371871Y-59024986D01*
X12371868Y-59024982D01*
X12253663Y-58880049D01*
X12253660Y-58880046D01*
X12249768Y-58875274D01*
X12197734Y-58832227D01*
X12100919Y-58752135D01*
X12096170Y-58748206D01*
X11920815Y-58653392D01*
X11730385Y-58594444D01*
X11724260Y-58593800D01*
X11724259Y-58593800D01*
X11538260Y-58574251D01*
X11538258Y-58574251D01*
X11532131Y-58573607D01*
X11434434Y-58582498D01*
X11339746Y-58591115D01*
X11339745Y-58591115D01*
X11333605Y-58591674D01*
X11327691Y-58593415D01*
X11327689Y-58593415D01*
X11197539Y-58631721D01*
X11142370Y-58647958D01*
X10965709Y-58740314D01*
X10960909Y-58744174D01*
X10960908Y-58744174D01*
X10955893Y-58748206D01*
X10810351Y-58865225D01*
X10682214Y-59017933D01*
X10586179Y-59192621D01*
X10584318Y-59198488D01*
X10584317Y-59198490D01*
X10578921Y-59215500D01*
X10525902Y-59382635D01*
X10503682Y-59580739D01*
X8451467Y-59580739D01*
X8439696Y-59408064D01*
X8439695Y-59408058D01*
X8439404Y-59403787D01*
X8435761Y-59386193D01*
X8407590Y-59250164D01*
X8381229Y-59122871D01*
X8285467Y-58852448D01*
X8153891Y-58597525D01*
X7988936Y-58362816D01*
X7970166Y-58342617D01*
X7796573Y-58155809D01*
X7796570Y-58155807D01*
X7793652Y-58152666D01*
X7571655Y-57970964D01*
X7327052Y-57821071D01*
X7323116Y-57819343D01*
X7068298Y-57707485D01*
X7068294Y-57707484D01*
X7064370Y-57705761D01*
X6788468Y-57627169D01*
X6577636Y-57597163D01*
X6508705Y-57587353D01*
X6508703Y-57587353D01*
X6504453Y-57586748D01*
X6500164Y-57586726D01*
X6500157Y-57586725D01*
X6221866Y-57585267D01*
X6221859Y-57585267D01*
X6217580Y-57585245D01*
X6213336Y-57585804D01*
X6213332Y-57585804D01*
X6088189Y-57602280D01*
X5933157Y-57622690D01*
X5656448Y-57698390D01*
X5392572Y-57810942D01*
X5388891Y-57813145D01*
X5150095Y-57956061D01*
X5150091Y-57956064D01*
X5146413Y-57958265D01*
X4922525Y-58137633D01*
X4899994Y-58161376D01*
X4738073Y-58332005D01*
X4725052Y-58345726D01*
X4557648Y-58578694D01*
X4423409Y-58832227D01*
X4409607Y-58869944D01*
X4350918Y-59030319D01*
X4324821Y-59101631D01*
X4263708Y-59381923D01*
X4242146Y-59655893D01*
X4241200Y-59667916D01*
X354000Y-59667916D01*
X354000Y-57040739D01*
X10503682Y-57040739D01*
X10520362Y-57239386D01*
X10575310Y-57431009D01*
X10666430Y-57608311D01*
X10790253Y-57764537D01*
X10942063Y-57893737D01*
X11116076Y-57990989D01*
X11121935Y-57992893D01*
X11121938Y-57992894D01*
X11166251Y-58007292D01*
X11305665Y-58052591D01*
X11311775Y-58053320D01*
X11311777Y-58053320D01*
X11379314Y-58061373D01*
X11503609Y-58076194D01*
X11509744Y-58075722D01*
X11509746Y-58075722D01*
X11696226Y-58061373D01*
X11696231Y-58061372D01*
X11702367Y-58060900D01*
X11708301Y-58059243D01*
X11708308Y-58059242D01*
X11859592Y-58017003D01*
X11930582Y-58017949D01*
X11982571Y-58049266D01*
X17385035Y-63451730D01*
X17400172Y-63470472D01*
X17401290Y-63471701D01*
X17406940Y-63480451D01*
X17415118Y-63486898D01*
X17433310Y-63501239D01*
X17437752Y-63505187D01*
X17437814Y-63505114D01*
X17441779Y-63508474D01*
X17445454Y-63512149D01*
X17449676Y-63515166D01*
X17449682Y-63515171D01*
X17461161Y-63523373D01*
X17465910Y-63526939D01*
X17506158Y-63558667D01*
X17514795Y-63561700D01*
X17522245Y-63567024D01*
X17532221Y-63570008D01*
X17532222Y-63570008D01*
X17547557Y-63574594D01*
X17571360Y-63581713D01*
X17576997Y-63583545D01*
X17617710Y-63597842D01*
X17625362Y-63600529D01*
X17630927Y-63601011D01*
X17633635Y-63601011D01*
X17636269Y-63601125D01*
X17636367Y-63601154D01*
X17636360Y-63601318D01*
X17637064Y-63601362D01*
X17643289Y-63603224D01*
X17697146Y-63601108D01*
X17702093Y-63601011D01*
X45944569Y-63601011D01*
X45968517Y-63603560D01*
X45970182Y-63603639D01*
X45980365Y-63605831D01*
X45990706Y-63604607D01*
X46013712Y-63601884D01*
X46019643Y-63601534D01*
X46019635Y-63601439D01*
X46024813Y-63601011D01*
X46030013Y-63601011D01*
X46035142Y-63600157D01*
X46035145Y-63600157D01*
X46049054Y-63597842D01*
X46054932Y-63597005D01*
X46095490Y-63592205D01*
X46095491Y-63592205D01*
X46105830Y-63590981D01*
X46114082Y-63587018D01*
X46123115Y-63585515D01*
X46132284Y-63580568D01*
X46132286Y-63580567D01*
X46168221Y-63561177D01*
X46173514Y-63558480D01*
X46212571Y-63539726D01*
X46212575Y-63539723D01*
X46219721Y-63536292D01*
X46223997Y-63532697D01*
X46225920Y-63530774D01*
X46227852Y-63529002D01*
X46227931Y-63528959D01*
X46228044Y-63529083D01*
X46228584Y-63528607D01*
X46234303Y-63525521D01*
X46252501Y-63505835D01*
X46270905Y-63485925D01*
X46274335Y-63482359D01*
X47734107Y-62022587D01*
X47796419Y-61988561D01*
X47872941Y-61995915D01*
X47917228Y-62014942D01*
X47990244Y-62031464D01*
X48109579Y-62058467D01*
X48109584Y-62058468D01*
X48115216Y-62059742D01*
X48120987Y-62059969D01*
X48120989Y-62059969D01*
X48180756Y-62062317D01*
X48318053Y-62067712D01*
X48425348Y-62052155D01*
X48513231Y-62039413D01*
X48513236Y-62039412D01*
X48518945Y-62038584D01*
X48524409Y-62036729D01*
X48524414Y-62036728D01*
X48705693Y-61975192D01*
X48705698Y-61975190D01*
X48711165Y-61973334D01*
X48888276Y-61874147D01*
X48927969Y-61841135D01*
X49023645Y-61761561D01*
X49044345Y-61744345D01*
X49107950Y-61667869D01*
X49170453Y-61592718D01*
X49170455Y-61592715D01*
X49174147Y-61588276D01*
X49252746Y-61447928D01*
X49270510Y-61416208D01*
X49270511Y-61416206D01*
X49273334Y-61411165D01*
X49275190Y-61405698D01*
X49275192Y-61405693D01*
X49336728Y-61224414D01*
X49336729Y-61224409D01*
X49338584Y-61218945D01*
X49339412Y-61213236D01*
X49339413Y-61213231D01*
X49362715Y-61052517D01*
X49367712Y-61018053D01*
X49369232Y-60960000D01*
X49350658Y-60757859D01*
X49348145Y-60748948D01*
X49297125Y-60568046D01*
X49297124Y-60568044D01*
X49295557Y-60562487D01*
X49288881Y-60548948D01*
X49208331Y-60385609D01*
X49205776Y-60380428D01*
X49084320Y-60217779D01*
X48935258Y-60079987D01*
X48930375Y-60076906D01*
X48930371Y-60076903D01*
X48768464Y-59974748D01*
X48763581Y-59971667D01*
X48575039Y-59896446D01*
X48569379Y-59895320D01*
X48569375Y-59895319D01*
X48381613Y-59857971D01*
X48381610Y-59857971D01*
X48375946Y-59856844D01*
X48370171Y-59856768D01*
X48370167Y-59856768D01*
X48268793Y-59855441D01*
X48172971Y-59854187D01*
X48167274Y-59855166D01*
X48167273Y-59855166D01*
X48079397Y-59870266D01*
X47972910Y-59888564D01*
X47782463Y-59958824D01*
X47777502Y-59961776D01*
X47777501Y-59961776D01*
X47772973Y-59964470D01*
X47608010Y-60062612D01*
X47603670Y-60066418D01*
X47603666Y-60066421D01*
X47510289Y-60148311D01*
X47455392Y-60196455D01*
X47451817Y-60200990D01*
X47451816Y-60200991D01*
X47441675Y-60213855D01*
X47329720Y-60355869D01*
X47327031Y-60360980D01*
X47327029Y-60360983D01*
X47314073Y-60385609D01*
X47235203Y-60535515D01*
X47175007Y-60729378D01*
X47151148Y-60930964D01*
X47164424Y-61133522D01*
X47165845Y-61139118D01*
X47165846Y-61139123D01*
X47212051Y-61321051D01*
X47214392Y-61330269D01*
X47221375Y-61345417D01*
X47231730Y-61415652D01*
X47202468Y-61480338D01*
X47196044Y-61487262D01*
X47039595Y-61643711D01*
X46977283Y-61677737D01*
X46906468Y-61672672D01*
X46849632Y-61630125D01*
X46824821Y-61563605D01*
X46824500Y-61554616D01*
X46824499Y-60091123D01*
X46824499Y-60084934D01*
X46817388Y-60049182D01*
X46812156Y-60022874D01*
X46812155Y-60022872D01*
X46809734Y-60010699D01*
X46792569Y-59985009D01*
X46760377Y-59936832D01*
X46753484Y-59926516D01*
X46669301Y-59870266D01*
X46595067Y-59855500D01*
X45720142Y-59855500D01*
X44844934Y-59855501D01*
X44809182Y-59862612D01*
X44782874Y-59867844D01*
X44782872Y-59867845D01*
X44770699Y-59870266D01*
X44760379Y-59877161D01*
X44760378Y-59877162D01*
X44711561Y-59909781D01*
X44686516Y-59926516D01*
X44630266Y-60010699D01*
X44615500Y-60084933D01*
X44615501Y-61835066D01*
X44630266Y-61909301D01*
X44637161Y-61919620D01*
X44637162Y-61919622D01*
X44677516Y-61980015D01*
X44686516Y-61993484D01*
X44770699Y-62049734D01*
X44844933Y-62064500D01*
X44882709Y-62064500D01*
X46314618Y-62064499D01*
X46382738Y-62084501D01*
X46429231Y-62138157D01*
X46439335Y-62208431D01*
X46409842Y-62273011D01*
X46403712Y-62279594D01*
X45878200Y-62805106D01*
X45815888Y-62839132D01*
X45789105Y-62842011D01*
X25494386Y-62842011D01*
X25426265Y-62822009D01*
X25379772Y-62768353D01*
X25369668Y-62698079D01*
X25380191Y-62662761D01*
X25420645Y-62576007D01*
X25424391Y-62565715D01*
X25479059Y-62361691D01*
X25480962Y-62350896D01*
X25499372Y-62140475D01*
X25499372Y-62129525D01*
X25480962Y-61919104D01*
X25479059Y-61908309D01*
X25424391Y-61704285D01*
X25420645Y-61693993D01*
X25338927Y-61518750D01*
X25328266Y-61448559D01*
X25357246Y-61383746D01*
X25416665Y-61344889D01*
X25453122Y-61339500D01*
X30519501Y-61339500D01*
X30587622Y-61359502D01*
X30634115Y-61413158D01*
X30645501Y-61465500D01*
X30645501Y-61835066D01*
X30660266Y-61909301D01*
X30667161Y-61919620D01*
X30667162Y-61919622D01*
X30707516Y-61980015D01*
X30716516Y-61993484D01*
X30800699Y-62049734D01*
X30874933Y-62064500D01*
X31749858Y-62064500D01*
X32625066Y-62064499D01*
X32660818Y-62057388D01*
X32687126Y-62052156D01*
X32687128Y-62052155D01*
X32699301Y-62049734D01*
X32709621Y-62042839D01*
X32709622Y-62042838D01*
X32773168Y-62000377D01*
X32783484Y-61993484D01*
X32839734Y-61909301D01*
X32854500Y-61835067D01*
X32854499Y-60930964D01*
X33181148Y-60930964D01*
X33194424Y-61133522D01*
X33195845Y-61139118D01*
X33195846Y-61139123D01*
X33242051Y-61321051D01*
X33244392Y-61330269D01*
X33246807Y-61335507D01*
X33246809Y-61335512D01*
X33282604Y-61413158D01*
X33329377Y-61514616D01*
X33332710Y-61519332D01*
X33436823Y-61666649D01*
X33446533Y-61680389D01*
X33591938Y-61822035D01*
X33760720Y-61934812D01*
X33766023Y-61937090D01*
X33766026Y-61937092D01*
X33885824Y-61988561D01*
X33947228Y-62014942D01*
X34020244Y-62031464D01*
X34139579Y-62058467D01*
X34139584Y-62058468D01*
X34145216Y-62059742D01*
X34150987Y-62059969D01*
X34150989Y-62059969D01*
X34210756Y-62062317D01*
X34348053Y-62067712D01*
X34455348Y-62052155D01*
X34543231Y-62039413D01*
X34543236Y-62039412D01*
X34548945Y-62038584D01*
X34554409Y-62036729D01*
X34554414Y-62036728D01*
X34735693Y-61975192D01*
X34735698Y-61975190D01*
X34741165Y-61973334D01*
X34918276Y-61874147D01*
X34957969Y-61841135D01*
X35053645Y-61761561D01*
X35074345Y-61744345D01*
X35137950Y-61667869D01*
X35200453Y-61592718D01*
X35200455Y-61592715D01*
X35204147Y-61588276D01*
X35282746Y-61447928D01*
X35300510Y-61416208D01*
X35300511Y-61416206D01*
X35303334Y-61411165D01*
X35305190Y-61405698D01*
X35305192Y-61405693D01*
X35366728Y-61224414D01*
X35366729Y-61224409D01*
X35368584Y-61218945D01*
X35369412Y-61213236D01*
X35369413Y-61213231D01*
X35392715Y-61052517D01*
X35397712Y-61018053D01*
X35399232Y-60960000D01*
X35380658Y-60757859D01*
X35378145Y-60748948D01*
X35327125Y-60568046D01*
X35327124Y-60568044D01*
X35325557Y-60562487D01*
X35318881Y-60548948D01*
X35238331Y-60385609D01*
X35235776Y-60380428D01*
X35114320Y-60217779D01*
X34965258Y-60079987D01*
X34960375Y-60076906D01*
X34960371Y-60076903D01*
X34798464Y-59974748D01*
X34793581Y-59971667D01*
X34605039Y-59896446D01*
X34599379Y-59895320D01*
X34599375Y-59895319D01*
X34411613Y-59857971D01*
X34411610Y-59857971D01*
X34405946Y-59856844D01*
X34400171Y-59856768D01*
X34400167Y-59856768D01*
X34298793Y-59855441D01*
X34202971Y-59854187D01*
X34197274Y-59855166D01*
X34197273Y-59855166D01*
X34109397Y-59870266D01*
X34002910Y-59888564D01*
X33812463Y-59958824D01*
X33807502Y-59961776D01*
X33807501Y-59961776D01*
X33802973Y-59964470D01*
X33638010Y-60062612D01*
X33633670Y-60066418D01*
X33633666Y-60066421D01*
X33540289Y-60148311D01*
X33485392Y-60196455D01*
X33481817Y-60200990D01*
X33481816Y-60200991D01*
X33471675Y-60213855D01*
X33359720Y-60355869D01*
X33357031Y-60360980D01*
X33357029Y-60360983D01*
X33344073Y-60385609D01*
X33265203Y-60535515D01*
X33205007Y-60729378D01*
X33181148Y-60930964D01*
X32854499Y-60930964D01*
X32854499Y-60084934D01*
X32847388Y-60049182D01*
X32842156Y-60022874D01*
X32842155Y-60022872D01*
X32839734Y-60010699D01*
X32822569Y-59985009D01*
X32790377Y-59936832D01*
X32783484Y-59926516D01*
X32699301Y-59870266D01*
X32625067Y-59855500D01*
X31750142Y-59855500D01*
X30874934Y-59855501D01*
X30839182Y-59862612D01*
X30812874Y-59867844D01*
X30812872Y-59867845D01*
X30800699Y-59870266D01*
X30790379Y-59877161D01*
X30790378Y-59877162D01*
X30741561Y-59909781D01*
X30716516Y-59926516D01*
X30660266Y-60010699D01*
X30645500Y-60084933D01*
X30645500Y-60454500D01*
X30625498Y-60522621D01*
X30571842Y-60569114D01*
X30519500Y-60580500D01*
X24980687Y-60580500D01*
X24912566Y-60560498D01*
X24866073Y-60506842D01*
X24855969Y-60436568D01*
X24885463Y-60371988D01*
X24903114Y-60355211D01*
X24924534Y-60338476D01*
X24929390Y-60334682D01*
X24951962Y-60308532D01*
X25055618Y-60188446D01*
X25055619Y-60188444D01*
X25059647Y-60183778D01*
X25118609Y-60079987D01*
X25142311Y-60038263D01*
X25193350Y-59988913D01*
X25251867Y-59974500D01*
X25441080Y-59974500D01*
X25465028Y-59977049D01*
X25466693Y-59977128D01*
X25476876Y-59979320D01*
X25487217Y-59978096D01*
X25510223Y-59975373D01*
X25516154Y-59975023D01*
X25516146Y-59974928D01*
X25521324Y-59974500D01*
X25526524Y-59974500D01*
X25531653Y-59973646D01*
X25531656Y-59973646D01*
X25545565Y-59971331D01*
X25551443Y-59970494D01*
X25592001Y-59965694D01*
X25592002Y-59965694D01*
X25602341Y-59964470D01*
X25610593Y-59960507D01*
X25619626Y-59959004D01*
X25628795Y-59954057D01*
X25628797Y-59954056D01*
X25664732Y-59934666D01*
X25670025Y-59931969D01*
X25709082Y-59913215D01*
X25709086Y-59913212D01*
X25716232Y-59909781D01*
X25720508Y-59906186D01*
X25722431Y-59904263D01*
X25724363Y-59902491D01*
X25724442Y-59902448D01*
X25724555Y-59902572D01*
X25725095Y-59902096D01*
X25730814Y-59899010D01*
X25738621Y-59890565D01*
X25767416Y-59859414D01*
X25770846Y-59855848D01*
X25958778Y-59667916D01*
X51231200Y-59667916D01*
X51247713Y-59954317D01*
X51248538Y-59958524D01*
X51248539Y-59958529D01*
X51261401Y-60024085D01*
X51302944Y-60235828D01*
X51304331Y-60239879D01*
X51371733Y-60436744D01*
X51395868Y-60507238D01*
X51397793Y-60511065D01*
X51397794Y-60511068D01*
X51507592Y-60729378D01*
X51524767Y-60763526D01*
X51527193Y-60767055D01*
X51527196Y-60767061D01*
X51680250Y-60989754D01*
X51687256Y-60999948D01*
X51690143Y-61003121D01*
X51690144Y-61003122D01*
X51756661Y-61076223D01*
X51880328Y-61212132D01*
X51930581Y-61254150D01*
X52097118Y-61393397D01*
X52097123Y-61393401D01*
X52100410Y-61396149D01*
X52186374Y-61450074D01*
X52339790Y-61546312D01*
X52339794Y-61546314D01*
X52343430Y-61548595D01*
X52347340Y-61550360D01*
X52347341Y-61550361D01*
X52600979Y-61664883D01*
X52600983Y-61664885D01*
X52604891Y-61666649D01*
X52635342Y-61675669D01*
X52875841Y-61746908D01*
X52875845Y-61746909D01*
X52879954Y-61748126D01*
X52884191Y-61748774D01*
X52884194Y-61748775D01*
X52998131Y-61766210D01*
X53163530Y-61791520D01*
X53309584Y-61793814D01*
X53446081Y-61795959D01*
X53446087Y-61795959D01*
X53450372Y-61796026D01*
X53735171Y-61761561D01*
X54012658Y-61688764D01*
X54016618Y-61687124D01*
X54016623Y-61687122D01*
X54154225Y-61630125D01*
X54277698Y-61578981D01*
X54525387Y-61434243D01*
X54751140Y-61257230D01*
X54950782Y-61051216D01*
X54953315Y-61047768D01*
X54953319Y-61047763D01*
X55118079Y-60823469D01*
X55120617Y-60820014D01*
X55151240Y-60763613D01*
X55255453Y-60571677D01*
X55255454Y-60571675D01*
X55257503Y-60567901D01*
X55358906Y-60299544D01*
X55422952Y-60019907D01*
X55448453Y-59734166D01*
X55448916Y-59690000D01*
X55447702Y-59672196D01*
X55429696Y-59408064D01*
X55429695Y-59408058D01*
X55429404Y-59403787D01*
X55425761Y-59386193D01*
X55397590Y-59250164D01*
X55371229Y-59122871D01*
X55275467Y-58852448D01*
X55143891Y-58597525D01*
X54978936Y-58362816D01*
X54960166Y-58342617D01*
X54786573Y-58155809D01*
X54786570Y-58155807D01*
X54783652Y-58152666D01*
X54561655Y-57970964D01*
X54317052Y-57821071D01*
X54313116Y-57819343D01*
X54058298Y-57707485D01*
X54058294Y-57707484D01*
X54054370Y-57705761D01*
X53778468Y-57627169D01*
X53567636Y-57597163D01*
X53498705Y-57587353D01*
X53498703Y-57587353D01*
X53494453Y-57586748D01*
X53490164Y-57586726D01*
X53490157Y-57586725D01*
X53211866Y-57585267D01*
X53211859Y-57585267D01*
X53207580Y-57585245D01*
X53203336Y-57585804D01*
X53203332Y-57585804D01*
X53078189Y-57602280D01*
X52923157Y-57622690D01*
X52646448Y-57698390D01*
X52382572Y-57810942D01*
X52378891Y-57813145D01*
X52140095Y-57956061D01*
X52140091Y-57956064D01*
X52136413Y-57958265D01*
X51912525Y-58137633D01*
X51889994Y-58161376D01*
X51728073Y-58332005D01*
X51715052Y-58345726D01*
X51547648Y-58578694D01*
X51413409Y-58832227D01*
X51399607Y-58869944D01*
X51340918Y-59030319D01*
X51314821Y-59101631D01*
X51253708Y-59381923D01*
X51232146Y-59655893D01*
X51231200Y-59667916D01*
X25958778Y-59667916D01*
X33140289Y-52486405D01*
X33202601Y-52452379D01*
X33229384Y-52449500D01*
X40586080Y-52449500D01*
X40610028Y-52452049D01*
X40611693Y-52452128D01*
X40621876Y-52454320D01*
X40632217Y-52453096D01*
X40655223Y-52450373D01*
X40661154Y-52450023D01*
X40661146Y-52449928D01*
X40666324Y-52449500D01*
X40671524Y-52449500D01*
X40676653Y-52448646D01*
X40676656Y-52448646D01*
X40690565Y-52446331D01*
X40696443Y-52445494D01*
X40737001Y-52440694D01*
X40737002Y-52440694D01*
X40747341Y-52439470D01*
X40755593Y-52435507D01*
X40764626Y-52434004D01*
X40773795Y-52429057D01*
X40773797Y-52429056D01*
X40809732Y-52409666D01*
X40815025Y-52406969D01*
X40854082Y-52388215D01*
X40854086Y-52388212D01*
X40861232Y-52384781D01*
X40865508Y-52381186D01*
X40867431Y-52379263D01*
X40869363Y-52377491D01*
X40869442Y-52377448D01*
X40869555Y-52377572D01*
X40870095Y-52377096D01*
X40875814Y-52374010D01*
X40912417Y-52334413D01*
X40915846Y-52330848D01*
X53570216Y-39676478D01*
X53588964Y-39661336D01*
X53590189Y-39660221D01*
X53598940Y-39654571D01*
X53605387Y-39646393D01*
X53605389Y-39646391D01*
X53619729Y-39628200D01*
X53623678Y-39623756D01*
X53623604Y-39623694D01*
X53626957Y-39619737D01*
X53630638Y-39616056D01*
X53641865Y-39600346D01*
X53645421Y-39595609D01*
X53670708Y-39563532D01*
X53677156Y-39555353D01*
X53680189Y-39546716D01*
X53685513Y-39539266D01*
X53700202Y-39490151D01*
X53702034Y-39484514D01*
X53716390Y-39443633D01*
X53716390Y-39443632D01*
X53719018Y-39436149D01*
X53719500Y-39430584D01*
X53719500Y-39427876D01*
X53719614Y-39425242D01*
X53719643Y-39425144D01*
X53719807Y-39425151D01*
X53719851Y-39424447D01*
X53721713Y-39418222D01*
X53719597Y-39364365D01*
X53719500Y-39359418D01*
X53719500Y-25453920D01*
X53722049Y-25429973D01*
X53722128Y-25428307D01*
X53724320Y-25418124D01*
X53723096Y-25407782D01*
X53723096Y-25407779D01*
X53720374Y-25384787D01*
X53720023Y-25378846D01*
X53719928Y-25378854D01*
X53719500Y-25373674D01*
X53719500Y-25368476D01*
X53716329Y-25349424D01*
X53715492Y-25343547D01*
X53710693Y-25302997D01*
X53710692Y-25302995D01*
X53709469Y-25292659D01*
X53705508Y-25284410D01*
X53704004Y-25275374D01*
X53699056Y-25266203D01*
X53679652Y-25230240D01*
X53676957Y-25224951D01*
X53658212Y-25185915D01*
X53654780Y-25178768D01*
X53651186Y-25174492D01*
X53649246Y-25172552D01*
X53647493Y-25170641D01*
X53647444Y-25170551D01*
X53647567Y-25170439D01*
X53647095Y-25169904D01*
X53644010Y-25164186D01*
X53604413Y-25127583D01*
X53600848Y-25124154D01*
X51933085Y-23456391D01*
X51899059Y-23394079D01*
X51902867Y-23326795D01*
X51964420Y-23145467D01*
X51964421Y-23145462D01*
X51966276Y-23139998D01*
X51967104Y-23134289D01*
X51967105Y-23134284D01*
X51989478Y-22979976D01*
X51997772Y-22922773D01*
X51999416Y-22860000D01*
X51982944Y-22680737D01*
X51979861Y-22647178D01*
X51979860Y-22647175D01*
X51979332Y-22641424D01*
X51958811Y-22568664D01*
X51921319Y-22435727D01*
X51921318Y-22435725D01*
X51919751Y-22430168D01*
X51905369Y-22401003D01*
X51825225Y-22238488D01*
X51822670Y-22233307D01*
X51691340Y-22057434D01*
X51530158Y-21908439D01*
X51344523Y-21791313D01*
X51140653Y-21709976D01*
X51134985Y-21708849D01*
X51134983Y-21708848D01*
X50931041Y-21668282D01*
X50931037Y-21668282D01*
X50925373Y-21667155D01*
X50919598Y-21667079D01*
X50919594Y-21667079D01*
X50808963Y-21665631D01*
X50705895Y-21664281D01*
X50700198Y-21665260D01*
X50700197Y-21665260D01*
X50495265Y-21700474D01*
X50489568Y-21701453D01*
X50283638Y-21777425D01*
X50278677Y-21780377D01*
X50278676Y-21780377D01*
X50099969Y-21886696D01*
X50099966Y-21886698D01*
X50095001Y-21889652D01*
X49929974Y-22034377D01*
X49794085Y-22206751D01*
X49791394Y-22211867D01*
X49791392Y-22211869D01*
X49780113Y-22233307D01*
X49691884Y-22401003D01*
X49690171Y-22406521D01*
X49690167Y-22406530D01*
X49650145Y-22535421D01*
X49610842Y-22594547D01*
X49545813Y-22623037D01*
X49475704Y-22611847D01*
X49422774Y-22564530D01*
X49408544Y-22532259D01*
X49381319Y-22435727D01*
X49381318Y-22435725D01*
X49379751Y-22430168D01*
X49365369Y-22401003D01*
X49285225Y-22238488D01*
X49282670Y-22233307D01*
X49151340Y-22057434D01*
X48990158Y-21908439D01*
X48804523Y-21791313D01*
X48600653Y-21709976D01*
X48594985Y-21708849D01*
X48594983Y-21708848D01*
X48391041Y-21668282D01*
X48391037Y-21668282D01*
X48385373Y-21667155D01*
X48379598Y-21667079D01*
X48379594Y-21667079D01*
X48268963Y-21665631D01*
X48165895Y-21664281D01*
X48160198Y-21665260D01*
X48160197Y-21665260D01*
X47955265Y-21700474D01*
X47949568Y-21701453D01*
X47743638Y-21777425D01*
X47738677Y-21780377D01*
X47738676Y-21780377D01*
X47559969Y-21886696D01*
X47559966Y-21886698D01*
X47555001Y-21889652D01*
X47389974Y-22034377D01*
X47254085Y-22206751D01*
X47251394Y-22211867D01*
X47251392Y-22211869D01*
X47240113Y-22233307D01*
X47151884Y-22401003D01*
X47150171Y-22406521D01*
X47150167Y-22406530D01*
X47110145Y-22535421D01*
X47070842Y-22594547D01*
X47005813Y-22623037D01*
X46935704Y-22611847D01*
X46882774Y-22564530D01*
X46868544Y-22532259D01*
X46841319Y-22435727D01*
X46841318Y-22435725D01*
X46839751Y-22430168D01*
X46825369Y-22401003D01*
X46745225Y-22238488D01*
X46742670Y-22233307D01*
X46611340Y-22057434D01*
X46450158Y-21908439D01*
X46264523Y-21791313D01*
X46060653Y-21709976D01*
X46054985Y-21708849D01*
X46054983Y-21708848D01*
X45851041Y-21668282D01*
X45851037Y-21668282D01*
X45845373Y-21667155D01*
X45839598Y-21667079D01*
X45839594Y-21667079D01*
X45728963Y-21665631D01*
X45625895Y-21664281D01*
X45620198Y-21665260D01*
X45620197Y-21665260D01*
X45415265Y-21700474D01*
X45409568Y-21701453D01*
X45203638Y-21777425D01*
X45198677Y-21780377D01*
X45198676Y-21780377D01*
X45019969Y-21886696D01*
X45019966Y-21886698D01*
X45015001Y-21889652D01*
X44849974Y-22034377D01*
X44714085Y-22206751D01*
X44711394Y-22211867D01*
X44711392Y-22211869D01*
X44700113Y-22233307D01*
X44611884Y-22401003D01*
X44610171Y-22406521D01*
X44610167Y-22406530D01*
X44570145Y-22535421D01*
X44530842Y-22594547D01*
X44465813Y-22623037D01*
X44395704Y-22611847D01*
X44342774Y-22564530D01*
X44328544Y-22532259D01*
X44301319Y-22435727D01*
X44301318Y-22435725D01*
X44299751Y-22430168D01*
X44285369Y-22401003D01*
X44205225Y-22238488D01*
X44202670Y-22233307D01*
X44071340Y-22057434D01*
X43910158Y-21908439D01*
X43724523Y-21791313D01*
X43520653Y-21709976D01*
X43514985Y-21708849D01*
X43514983Y-21708848D01*
X43311041Y-21668282D01*
X43311037Y-21668282D01*
X43305373Y-21667155D01*
X43299598Y-21667079D01*
X43299594Y-21667079D01*
X43188963Y-21665631D01*
X43085895Y-21664281D01*
X43080198Y-21665260D01*
X43080197Y-21665260D01*
X42875265Y-21700474D01*
X42869568Y-21701453D01*
X42663638Y-21777425D01*
X42658677Y-21780377D01*
X42658676Y-21780377D01*
X42479969Y-21886696D01*
X42479966Y-21886698D01*
X42475001Y-21889652D01*
X42309974Y-22034377D01*
X42174085Y-22206751D01*
X42171394Y-22211867D01*
X42171392Y-22211869D01*
X42160113Y-22233307D01*
X42071884Y-22401003D01*
X42070171Y-22406521D01*
X42070167Y-22406530D01*
X42030145Y-22535421D01*
X41990842Y-22594547D01*
X41925813Y-22623037D01*
X41855704Y-22611847D01*
X41802774Y-22564530D01*
X41788544Y-22532259D01*
X41761319Y-22435727D01*
X41761318Y-22435725D01*
X41759751Y-22430168D01*
X41745369Y-22401003D01*
X41665225Y-22238488D01*
X41662670Y-22233307D01*
X41531340Y-22057434D01*
X41370158Y-21908439D01*
X41184523Y-21791313D01*
X40980653Y-21709976D01*
X40974985Y-21708849D01*
X40974983Y-21708848D01*
X40771041Y-21668282D01*
X40771037Y-21668282D01*
X40765373Y-21667155D01*
X40759598Y-21667079D01*
X40759594Y-21667079D01*
X40648963Y-21665631D01*
X40545895Y-21664281D01*
X40540198Y-21665260D01*
X40540197Y-21665260D01*
X40335265Y-21700474D01*
X40329568Y-21701453D01*
X40123638Y-21777425D01*
X40118677Y-21780377D01*
X40118676Y-21780377D01*
X39939969Y-21886696D01*
X39939966Y-21886698D01*
X39935001Y-21889652D01*
X39769974Y-22034377D01*
X39634085Y-22206751D01*
X39631394Y-22211867D01*
X39631392Y-22211869D01*
X39620113Y-22233307D01*
X39531884Y-22401003D01*
X39530171Y-22406521D01*
X39530167Y-22406530D01*
X39490145Y-22535421D01*
X39450842Y-22594547D01*
X39385813Y-22623037D01*
X39315704Y-22611847D01*
X39262774Y-22564530D01*
X39248544Y-22532259D01*
X39221319Y-22435727D01*
X39221318Y-22435725D01*
X39219751Y-22430168D01*
X39205369Y-22401003D01*
X39125225Y-22238488D01*
X39122670Y-22233307D01*
X38991340Y-22057434D01*
X38830158Y-21908439D01*
X38644523Y-21791313D01*
X38440653Y-21709976D01*
X38434985Y-21708849D01*
X38434983Y-21708848D01*
X38231041Y-21668282D01*
X38231037Y-21668282D01*
X38225373Y-21667155D01*
X38219598Y-21667079D01*
X38219594Y-21667079D01*
X38108963Y-21665631D01*
X38005895Y-21664281D01*
X38000198Y-21665260D01*
X38000197Y-21665260D01*
X37795265Y-21700474D01*
X37789568Y-21701453D01*
X37583638Y-21777425D01*
X37578677Y-21780377D01*
X37578676Y-21780377D01*
X37399969Y-21886696D01*
X37399966Y-21886698D01*
X37395001Y-21889652D01*
X37229974Y-22034377D01*
X37094085Y-22206751D01*
X37091394Y-22211867D01*
X37091392Y-22211869D01*
X37080113Y-22233307D01*
X36991884Y-22401003D01*
X36990171Y-22406521D01*
X36990167Y-22406530D01*
X36950145Y-22535421D01*
X36910842Y-22594547D01*
X36845813Y-22623037D01*
X36775704Y-22611847D01*
X36722774Y-22564530D01*
X36708544Y-22532259D01*
X36681319Y-22435727D01*
X36681318Y-22435725D01*
X36679751Y-22430168D01*
X36665369Y-22401003D01*
X36585225Y-22238488D01*
X36582670Y-22233307D01*
X36451340Y-22057434D01*
X36290158Y-21908439D01*
X36104523Y-21791313D01*
X35900653Y-21709976D01*
X35894985Y-21708849D01*
X35894983Y-21708848D01*
X35691041Y-21668282D01*
X35691037Y-21668282D01*
X35685373Y-21667155D01*
X35679598Y-21667079D01*
X35679594Y-21667079D01*
X35568963Y-21665631D01*
X35465895Y-21664281D01*
X35460198Y-21665260D01*
X35460197Y-21665260D01*
X35255265Y-21700474D01*
X35249568Y-21701453D01*
X35043638Y-21777425D01*
X34865613Y-21883339D01*
X34859923Y-21886724D01*
X34791153Y-21904364D01*
X34723763Y-21882023D01*
X34679149Y-21826796D01*
X34669500Y-21778439D01*
X34669500Y-19103920D01*
X34672049Y-19079973D01*
X34672128Y-19078307D01*
X34674320Y-19068124D01*
X34673096Y-19057782D01*
X34673096Y-19057779D01*
X34670374Y-19034787D01*
X34670023Y-19028846D01*
X34669928Y-19028854D01*
X34669500Y-19023674D01*
X34669500Y-19018476D01*
X34667506Y-19006494D01*
X34666329Y-18999427D01*
X34665492Y-18993547D01*
X34660693Y-18952997D01*
X34660692Y-18952995D01*
X34659469Y-18942659D01*
X34655508Y-18934410D01*
X34654004Y-18925374D01*
X34649056Y-18916203D01*
X34629652Y-18880240D01*
X34626957Y-18874951D01*
X34608212Y-18835915D01*
X34604780Y-18828768D01*
X34601186Y-18824492D01*
X34599246Y-18822552D01*
X34597493Y-18820641D01*
X34597444Y-18820551D01*
X34597567Y-18820439D01*
X34597095Y-18819904D01*
X34594010Y-18814186D01*
X34554413Y-18777583D01*
X34550848Y-18774154D01*
X33436405Y-17659711D01*
X33402379Y-17597399D01*
X33399500Y-17570616D01*
X33399500Y-12909384D01*
X33419502Y-12841263D01*
X33436405Y-12820289D01*
X34520216Y-11736478D01*
X34538964Y-11721336D01*
X34540189Y-11720221D01*
X34548940Y-11714571D01*
X34555387Y-11706393D01*
X34555389Y-11706391D01*
X34569729Y-11688200D01*
X34573678Y-11683756D01*
X34573604Y-11683694D01*
X34576957Y-11679737D01*
X34580638Y-11676056D01*
X34591865Y-11660346D01*
X34595421Y-11655609D01*
X34598872Y-11651232D01*
X34627156Y-11615353D01*
X34630189Y-11606716D01*
X34635513Y-11599266D01*
X34650202Y-11550151D01*
X34652034Y-11544514D01*
X34666390Y-11503633D01*
X34666390Y-11503632D01*
X34669018Y-11496149D01*
X34669500Y-11490584D01*
X34669500Y-11487876D01*
X34669614Y-11485242D01*
X34669643Y-11485144D01*
X34669807Y-11485151D01*
X34669851Y-11484447D01*
X34671713Y-11478222D01*
X34669597Y-11424365D01*
X34669500Y-11419418D01*
X34669500Y-6461495D01*
X34689502Y-6393374D01*
X34742250Y-6347300D01*
X34914659Y-6266905D01*
X34914664Y-6266902D01*
X34919646Y-6264579D01*
X34936561Y-6252735D01*
X35094946Y-6141833D01*
X35094949Y-6141831D01*
X35099457Y-6138674D01*
X35254674Y-5983457D01*
X35305995Y-5910164D01*
X35377422Y-5808155D01*
X35377423Y-5808153D01*
X35380579Y-5803646D01*
X35382903Y-5798661D01*
X35382907Y-5798655D01*
X35445805Y-5663768D01*
X35492722Y-5610482D01*
X35560999Y-5591021D01*
X35628959Y-5611563D01*
X35674195Y-5663768D01*
X35737093Y-5798655D01*
X35737097Y-5798661D01*
X35739421Y-5803646D01*
X35742577Y-5808153D01*
X35742578Y-5808155D01*
X35814006Y-5910164D01*
X35865326Y-5983457D01*
X36020543Y-6138674D01*
X36025051Y-6141831D01*
X36025054Y-6141833D01*
X36183439Y-6252735D01*
X36200354Y-6264579D01*
X36205336Y-6266902D01*
X36205341Y-6266905D01*
X36288314Y-6305595D01*
X36399297Y-6357347D01*
X36611326Y-6414161D01*
X36830000Y-6433292D01*
X37048674Y-6414161D01*
X37260703Y-6357347D01*
X37323818Y-6327916D01*
X51231200Y-6327916D01*
X51247713Y-6614317D01*
X51248538Y-6618524D01*
X51248539Y-6618529D01*
X51261401Y-6684085D01*
X51302944Y-6895828D01*
X51304331Y-6899879D01*
X51331566Y-6979425D01*
X51395868Y-7167238D01*
X51397793Y-7171065D01*
X51397794Y-7171068D01*
X51486482Y-7347404D01*
X51524767Y-7423526D01*
X51527193Y-7427055D01*
X51527196Y-7427061D01*
X51680250Y-7649754D01*
X51687256Y-7659948D01*
X51690143Y-7663121D01*
X51690144Y-7663122D01*
X51756967Y-7736560D01*
X51880328Y-7872132D01*
X51883609Y-7874875D01*
X52097118Y-8053397D01*
X52097123Y-8053401D01*
X52100410Y-8056149D01*
X52156921Y-8091598D01*
X52339790Y-8206312D01*
X52339794Y-8206314D01*
X52343430Y-8208595D01*
X52347340Y-8210360D01*
X52347341Y-8210361D01*
X52600979Y-8324883D01*
X52600983Y-8324885D01*
X52604891Y-8326649D01*
X52609011Y-8327869D01*
X52609010Y-8327869D01*
X52875841Y-8406908D01*
X52875845Y-8406909D01*
X52879954Y-8408126D01*
X52884191Y-8408774D01*
X52884194Y-8408775D01*
X53126211Y-8445809D01*
X53163530Y-8451520D01*
X53309584Y-8453814D01*
X53446081Y-8455959D01*
X53446087Y-8455959D01*
X53450372Y-8456026D01*
X53735171Y-8421561D01*
X54012658Y-8348764D01*
X54016618Y-8347124D01*
X54016623Y-8347122D01*
X54145178Y-8293872D01*
X54277698Y-8238981D01*
X54525387Y-8094243D01*
X54751140Y-7917230D01*
X54950782Y-7711216D01*
X54953315Y-7707768D01*
X54953319Y-7707763D01*
X55118079Y-7483469D01*
X55120617Y-7480014D01*
X55149368Y-7427061D01*
X55255453Y-7231677D01*
X55255454Y-7231675D01*
X55257503Y-7227901D01*
X55358906Y-6959544D01*
X55422952Y-6679907D01*
X55448453Y-6394166D01*
X55448916Y-6350000D01*
X55447702Y-6332196D01*
X55429696Y-6068064D01*
X55429695Y-6068058D01*
X55429404Y-6063787D01*
X55425761Y-6046193D01*
X55397590Y-5910164D01*
X55371229Y-5782871D01*
X55275467Y-5512448D01*
X55143891Y-5257525D01*
X54978936Y-5022816D01*
X54958027Y-5000315D01*
X54786573Y-4815809D01*
X54786570Y-4815807D01*
X54783652Y-4812666D01*
X54561655Y-4630964D01*
X54334621Y-4491837D01*
X54320714Y-4483315D01*
X54320713Y-4483315D01*
X54317052Y-4481071D01*
X54313116Y-4479343D01*
X54058298Y-4367485D01*
X54058294Y-4367484D01*
X54054370Y-4365761D01*
X53778468Y-4287169D01*
X53567636Y-4257163D01*
X53498705Y-4247353D01*
X53498703Y-4247353D01*
X53494453Y-4246748D01*
X53490164Y-4246726D01*
X53490157Y-4246725D01*
X53211866Y-4245267D01*
X53211859Y-4245267D01*
X53207580Y-4245245D01*
X53203336Y-4245804D01*
X53203332Y-4245804D01*
X53078189Y-4262280D01*
X52923157Y-4282690D01*
X52646448Y-4358390D01*
X52382572Y-4470942D01*
X52378891Y-4473145D01*
X52140095Y-4616061D01*
X52140091Y-4616064D01*
X52136413Y-4618265D01*
X51912525Y-4797633D01*
X51850870Y-4862604D01*
X51728073Y-4992005D01*
X51715052Y-5005726D01*
X51547648Y-5238694D01*
X51413409Y-5492227D01*
X51374192Y-5599392D01*
X51340918Y-5690319D01*
X51314821Y-5761631D01*
X51253708Y-6041923D01*
X51232146Y-6315893D01*
X51231200Y-6327916D01*
X37323818Y-6327916D01*
X37371686Y-6305595D01*
X37454659Y-6266905D01*
X37454664Y-6266902D01*
X37459646Y-6264579D01*
X37476561Y-6252735D01*
X37634946Y-6141833D01*
X37634949Y-6141831D01*
X37639457Y-6138674D01*
X37794674Y-5983457D01*
X37845995Y-5910164D01*
X37917422Y-5808155D01*
X37917423Y-5808153D01*
X37920579Y-5803646D01*
X37922902Y-5798664D01*
X37922905Y-5798659D01*
X37985805Y-5663768D01*
X38013347Y-5604703D01*
X38070161Y-5392674D01*
X38089292Y-5174000D01*
X38070161Y-4955326D01*
X38013347Y-4743297D01*
X37954016Y-4616061D01*
X37922905Y-4549341D01*
X37922902Y-4549336D01*
X37920579Y-4544354D01*
X37877648Y-4483042D01*
X37797833Y-4369054D01*
X37797831Y-4369051D01*
X37794674Y-4364543D01*
X37639457Y-4209326D01*
X37634949Y-4206169D01*
X37634946Y-4206167D01*
X37464155Y-4086578D01*
X37464153Y-4086577D01*
X37459646Y-4083421D01*
X37454664Y-4081098D01*
X37454659Y-4081095D01*
X37313857Y-4015439D01*
X37260703Y-3990653D01*
X37048674Y-3933839D01*
X36830000Y-3914708D01*
X36611326Y-3933839D01*
X36399297Y-3990653D01*
X36394315Y-3992976D01*
X36394307Y-3992979D01*
X36331983Y-4022042D01*
X36261791Y-4032704D01*
X36196978Y-4003725D01*
X36189637Y-3996943D01*
X34502478Y-2309784D01*
X34487336Y-2291036D01*
X34486221Y-2289811D01*
X34480571Y-2281060D01*
X34472393Y-2274613D01*
X34472391Y-2274611D01*
X34454200Y-2260271D01*
X34449759Y-2256325D01*
X34449697Y-2256398D01*
X34445733Y-2253039D01*
X34442056Y-2249362D01*
X34426308Y-2238108D01*
X34421638Y-2234602D01*
X34381353Y-2202844D01*
X34372719Y-2199812D01*
X34365266Y-2194486D01*
X34316150Y-2179797D01*
X34310508Y-2177964D01*
X34269633Y-2163610D01*
X34269632Y-2163610D01*
X34262149Y-2160982D01*
X34256584Y-2160500D01*
X34253876Y-2160500D01*
X34251242Y-2160386D01*
X34251144Y-2160357D01*
X34251151Y-2160193D01*
X34250447Y-2160149D01*
X34244222Y-2158287D01*
X34190365Y-2160403D01*
X34185418Y-2160500D01*
X22913920Y-2160500D01*
X22889973Y-2157951D01*
X22888307Y-2157872D01*
X22878124Y-2155680D01*
X22867782Y-2156904D01*
X22867779Y-2156904D01*
X22844787Y-2159626D01*
X22838846Y-2159977D01*
X22838854Y-2160072D01*
X22833674Y-2160500D01*
X22828476Y-2160500D01*
X22823354Y-2161353D01*
X22823349Y-2161353D01*
X22809427Y-2163671D01*
X22803550Y-2164508D01*
X22797049Y-2165277D01*
X22762997Y-2169307D01*
X22762995Y-2169308D01*
X22752659Y-2170531D01*
X22744410Y-2174492D01*
X22735374Y-2175996D01*
X22726205Y-2180943D01*
X22726203Y-2180944D01*
X22690240Y-2200348D01*
X22684951Y-2203043D01*
X22671936Y-2209293D01*
X22638768Y-2225220D01*
X22634492Y-2228814D01*
X22632552Y-2230754D01*
X22630641Y-2232507D01*
X22630551Y-2232556D01*
X22630439Y-2232433D01*
X22629904Y-2232905D01*
X22624186Y-2235990D01*
X22617119Y-2243635D01*
X22587584Y-2275586D01*
X22584154Y-2279152D01*
X21359784Y-3503522D01*
X21341036Y-3518664D01*
X21339811Y-3519779D01*
X21331060Y-3525429D01*
X21324613Y-3533607D01*
X21324611Y-3533609D01*
X21310271Y-3551800D01*
X21306325Y-3556241D01*
X21306398Y-3556303D01*
X21303039Y-3560267D01*
X21299362Y-3563944D01*
X21288108Y-3579692D01*
X21284602Y-3584362D01*
X21252844Y-3624647D01*
X21249812Y-3633281D01*
X21244486Y-3640734D01*
X21232410Y-3681115D01*
X21229799Y-3689844D01*
X21227964Y-3695492D01*
X21210982Y-3743851D01*
X21210500Y-3749416D01*
X21210500Y-3752124D01*
X21210386Y-3754758D01*
X21210357Y-3754856D01*
X21210193Y-3754849D01*
X21210149Y-3755553D01*
X21208287Y-3761778D01*
X21208696Y-3772183D01*
X21210403Y-3815635D01*
X21210500Y-3820582D01*
X21210500Y-16300616D01*
X21190498Y-16368737D01*
X21173595Y-16389711D01*
X15009784Y-22553522D01*
X14991036Y-22568664D01*
X14989811Y-22569779D01*
X14981060Y-22575429D01*
X14974613Y-22583607D01*
X14974611Y-22583609D01*
X14960271Y-22601800D01*
X14956325Y-22606241D01*
X14956398Y-22606303D01*
X14953039Y-22610267D01*
X14949362Y-22613944D01*
X14938108Y-22629692D01*
X14934602Y-22634362D01*
X14902844Y-22674647D01*
X14899812Y-22683281D01*
X14894486Y-22690734D01*
X14891501Y-22700715D01*
X14879799Y-22739844D01*
X14877964Y-22745492D01*
X14860982Y-22793851D01*
X14860500Y-22799416D01*
X14860500Y-22802124D01*
X14860386Y-22804758D01*
X14860357Y-22804856D01*
X14860193Y-22804849D01*
X14860149Y-22805553D01*
X14858287Y-22811778D01*
X14858696Y-22822183D01*
X14860403Y-22865635D01*
X14860500Y-22870582D01*
X14860500Y-29156080D01*
X14857951Y-29180028D01*
X14857872Y-29181693D01*
X14855680Y-29191876D01*
X14856904Y-29202217D01*
X14859627Y-29225223D01*
X14859977Y-29231154D01*
X14860072Y-29231146D01*
X14860500Y-29236324D01*
X14860500Y-29241524D01*
X14861354Y-29246653D01*
X14861354Y-29246656D01*
X14863669Y-29260565D01*
X14864506Y-29266443D01*
X14870530Y-29317341D01*
X14874493Y-29325593D01*
X14875996Y-29334626D01*
X14880943Y-29343795D01*
X14880944Y-29343797D01*
X14900334Y-29379732D01*
X14903031Y-29385025D01*
X14921785Y-29424082D01*
X14921788Y-29424086D01*
X14925219Y-29431232D01*
X14928814Y-29435508D01*
X14930737Y-29437431D01*
X14932509Y-29439363D01*
X14932552Y-29439442D01*
X14932428Y-29439555D01*
X14932904Y-29440095D01*
X14935990Y-29445814D01*
X14943635Y-29452881D01*
X14975586Y-29482416D01*
X14979152Y-29485846D01*
X17154211Y-31660905D01*
X17188237Y-31723217D01*
X17183172Y-31794032D01*
X17154211Y-31839095D01*
X15009784Y-33983522D01*
X14991036Y-33998664D01*
X14989811Y-33999779D01*
X14981060Y-34005429D01*
X14974613Y-34013607D01*
X14974611Y-34013609D01*
X14960271Y-34031800D01*
X14956325Y-34036241D01*
X14956398Y-34036303D01*
X14953039Y-34040267D01*
X14949362Y-34043944D01*
X14938108Y-34059692D01*
X14934602Y-34064362D01*
X14902844Y-34104647D01*
X14899812Y-34113281D01*
X14894486Y-34120734D01*
X14891501Y-34130715D01*
X14879799Y-34169844D01*
X14877964Y-34175492D01*
X14860982Y-34223851D01*
X14860500Y-34229416D01*
X14860500Y-34232124D01*
X14860386Y-34234758D01*
X14860357Y-34234856D01*
X14860193Y-34234849D01*
X14860149Y-34235553D01*
X14858287Y-34241778D01*
X14858696Y-34252183D01*
X14860403Y-34295635D01*
X14860500Y-34300582D01*
X14860500Y-42970616D01*
X14840498Y-43038737D01*
X14823595Y-43059711D01*
X11981509Y-45901797D01*
X11919197Y-45935823D01*
X11855156Y-45933067D01*
X11730385Y-45894444D01*
X11724260Y-45893800D01*
X11724259Y-45893800D01*
X11538260Y-45874251D01*
X11538258Y-45874251D01*
X11532131Y-45873607D01*
X11409252Y-45884790D01*
X11339746Y-45891115D01*
X11339745Y-45891115D01*
X11333605Y-45891674D01*
X11327691Y-45893415D01*
X11327689Y-45893415D01*
X11299210Y-45901797D01*
X11142370Y-45947958D01*
X10965709Y-46040314D01*
X10810351Y-46165225D01*
X10682214Y-46317933D01*
X10586179Y-46492621D01*
X10525902Y-46682635D01*
X10503682Y-46880739D01*
X10520362Y-47079386D01*
X10575310Y-47271009D01*
X10666430Y-47448311D01*
X10790253Y-47604537D01*
X10942063Y-47733737D01*
X10947441Y-47736743D01*
X10947443Y-47736744D01*
X10989397Y-47760191D01*
X11116076Y-47830989D01*
X11121935Y-47832893D01*
X11121938Y-47832894D01*
X11157701Y-47844514D01*
X11305665Y-47892591D01*
X11311775Y-47893320D01*
X11311777Y-47893320D01*
X11379314Y-47901373D01*
X11482015Y-47913619D01*
X11516739Y-47928476D01*
X11544285Y-47913997D01*
X11559445Y-47911898D01*
X11696226Y-47901373D01*
X11696231Y-47901372D01*
X11702367Y-47900900D01*
X11708297Y-47899244D01*
X11708299Y-47899244D01*
X11798368Y-47874096D01*
X11894370Y-47847292D01*
X11899870Y-47844514D01*
X12066802Y-47760191D01*
X12066804Y-47760190D01*
X12072303Y-47757412D01*
X12229390Y-47634682D01*
X12251962Y-47608532D01*
X12355618Y-47488446D01*
X12355619Y-47488444D01*
X12359647Y-47483778D01*
X12458112Y-47310448D01*
X12521035Y-47121294D01*
X12527105Y-47073247D01*
X12545578Y-46927023D01*
X12545579Y-46927013D01*
X12546020Y-46923520D01*
X12546342Y-46900475D01*
X22950628Y-46900475D01*
X22969038Y-47110896D01*
X22970941Y-47121691D01*
X23025609Y-47325715D01*
X23029355Y-47336007D01*
X23118623Y-47527441D01*
X23124103Y-47536932D01*
X23154794Y-47580765D01*
X23165271Y-47589140D01*
X23178718Y-47582072D01*
X23852978Y-46907812D01*
X23859356Y-46896132D01*
X24589408Y-46896132D01*
X24589539Y-46897965D01*
X24593790Y-46904580D01*
X25272003Y-47582793D01*
X25283777Y-47589223D01*
X25295793Y-47579926D01*
X25325897Y-47536932D01*
X25331377Y-47527441D01*
X25420645Y-47336007D01*
X25424391Y-47325715D01*
X25479059Y-47121691D01*
X25480962Y-47110896D01*
X25499372Y-46900475D01*
X25499372Y-46889525D01*
X25480962Y-46679104D01*
X25479059Y-46668309D01*
X25424391Y-46464285D01*
X25420645Y-46453993D01*
X25331377Y-46262559D01*
X25325897Y-46253068D01*
X25295206Y-46209235D01*
X25284729Y-46200860D01*
X25271282Y-46207928D01*
X24597022Y-46882188D01*
X24589408Y-46896132D01*
X23859356Y-46896132D01*
X23860592Y-46893868D01*
X23860461Y-46892035D01*
X23856210Y-46885420D01*
X23177997Y-46207207D01*
X23166223Y-46200777D01*
X23154207Y-46210074D01*
X23124103Y-46253068D01*
X23118623Y-46262559D01*
X23029355Y-46453993D01*
X23025609Y-46464285D01*
X22970941Y-46668309D01*
X22969038Y-46679104D01*
X22950628Y-46889525D01*
X22950628Y-46900475D01*
X12546342Y-46900475D01*
X12546418Y-46895000D01*
X12526965Y-46696606D01*
X12486871Y-46563807D01*
X12486330Y-46492815D01*
X12518398Y-46438296D01*
X13121423Y-45835271D01*
X23530860Y-45835271D01*
X23537928Y-45848718D01*
X24212188Y-46522978D01*
X24226132Y-46530592D01*
X24227965Y-46530461D01*
X24234580Y-46526210D01*
X24912793Y-45847997D01*
X24919223Y-45836223D01*
X24909926Y-45824207D01*
X24866931Y-45794102D01*
X24857445Y-45788624D01*
X24666007Y-45699355D01*
X24655715Y-45695609D01*
X24451691Y-45640941D01*
X24440895Y-45639037D01*
X24258131Y-45623048D01*
X24219210Y-45607824D01*
X24188030Y-45622982D01*
X24178078Y-45624254D01*
X24009104Y-45639038D01*
X23998309Y-45640941D01*
X23794285Y-45695609D01*
X23783993Y-45699355D01*
X23592559Y-45788623D01*
X23583068Y-45794103D01*
X23539235Y-45824794D01*
X23530860Y-45835271D01*
X13121423Y-45835271D01*
X14615955Y-44340739D01*
X23203682Y-44340739D01*
X23220362Y-44539386D01*
X23275310Y-44731009D01*
X23366430Y-44908311D01*
X23490253Y-45064537D01*
X23642063Y-45193737D01*
X23647441Y-45196743D01*
X23647443Y-45196744D01*
X23689397Y-45220191D01*
X23816076Y-45290989D01*
X23821935Y-45292893D01*
X23821938Y-45292894D01*
X23857701Y-45304514D01*
X24005665Y-45352591D01*
X24011775Y-45353320D01*
X24011777Y-45353320D01*
X24079314Y-45361373D01*
X24182015Y-45373619D01*
X24216739Y-45388476D01*
X24244285Y-45373997D01*
X24259445Y-45371898D01*
X24396226Y-45361373D01*
X24396231Y-45361372D01*
X24402367Y-45360900D01*
X24408297Y-45359244D01*
X24408299Y-45359244D01*
X24498368Y-45334096D01*
X24594370Y-45307292D01*
X24599870Y-45304514D01*
X24766802Y-45220191D01*
X24766804Y-45220190D01*
X24772303Y-45217412D01*
X24929390Y-45094682D01*
X24951962Y-45068532D01*
X25055618Y-44948446D01*
X25055619Y-44948444D01*
X25059647Y-44943778D01*
X25158112Y-44770448D01*
X25221035Y-44581294D01*
X25227105Y-44533247D01*
X25245578Y-44387023D01*
X25245579Y-44387013D01*
X25246020Y-44383520D01*
X25246418Y-44355000D01*
X25226965Y-44156606D01*
X25225184Y-44150707D01*
X25225183Y-44150702D01*
X25171129Y-43971667D01*
X25169348Y-43965768D01*
X25075761Y-43789756D01*
X25071871Y-43784986D01*
X25071868Y-43784982D01*
X24953663Y-43640049D01*
X24953660Y-43640046D01*
X24949768Y-43635274D01*
X24796170Y-43508206D01*
X24620815Y-43413392D01*
X24430385Y-43354444D01*
X24424260Y-43353800D01*
X24424259Y-43353800D01*
X24238260Y-43334251D01*
X24238258Y-43334251D01*
X24232131Y-43333607D01*
X24109252Y-43344790D01*
X24039746Y-43351115D01*
X24039745Y-43351115D01*
X24033605Y-43351674D01*
X24027691Y-43353415D01*
X24027689Y-43353415D01*
X23897539Y-43391721D01*
X23842370Y-43407958D01*
X23665709Y-43500314D01*
X23660909Y-43504174D01*
X23660908Y-43504174D01*
X23655893Y-43508206D01*
X23510351Y-43625225D01*
X23382214Y-43777933D01*
X23286179Y-43952621D01*
X23225902Y-44142635D01*
X23203682Y-44340739D01*
X14615955Y-44340739D01*
X15470216Y-43486478D01*
X15488964Y-43471336D01*
X15490189Y-43470221D01*
X15498940Y-43464571D01*
X15505387Y-43456393D01*
X15505389Y-43456391D01*
X15519729Y-43438200D01*
X15523678Y-43433756D01*
X15523604Y-43433694D01*
X15526957Y-43429737D01*
X15530638Y-43426056D01*
X15541865Y-43410346D01*
X15545421Y-43405609D01*
X15570708Y-43373532D01*
X15577156Y-43365353D01*
X15580189Y-43356716D01*
X15585513Y-43349266D01*
X15600202Y-43300151D01*
X15602034Y-43294514D01*
X15616390Y-43253633D01*
X15616390Y-43253632D01*
X15619018Y-43246149D01*
X15619500Y-43240584D01*
X15619500Y-43237876D01*
X15619614Y-43235242D01*
X15619643Y-43235144D01*
X15619807Y-43235151D01*
X15619851Y-43234447D01*
X15621713Y-43228222D01*
X15619597Y-43174365D01*
X15619500Y-43169418D01*
X15619500Y-38020503D01*
X19494326Y-38020503D01*
X19499607Y-38027558D01*
X19687821Y-38137541D01*
X19697108Y-38141991D01*
X19909861Y-38223233D01*
X19919763Y-38226110D01*
X20142911Y-38271510D01*
X20153163Y-38272733D01*
X20380738Y-38281077D01*
X20391024Y-38280610D01*
X20616915Y-38251673D01*
X20627001Y-38249530D01*
X20845128Y-38184088D01*
X20854723Y-38180328D01*
X21059237Y-38080137D01*
X21068083Y-38074863D01*
X21133631Y-38028108D01*
X21142032Y-38017408D01*
X21135045Y-38004256D01*
X20332811Y-37202021D01*
X20318868Y-37194408D01*
X20317034Y-37194539D01*
X20310420Y-37198790D01*
X19501083Y-38008128D01*
X19494326Y-38020503D01*
X15619500Y-38020503D01*
X15619500Y-36799662D01*
X18867969Y-36799662D01*
X18881078Y-37027017D01*
X18882514Y-37037237D01*
X18932580Y-37259393D01*
X18935659Y-37269221D01*
X19021338Y-37480223D01*
X19025991Y-37489434D01*
X19121153Y-37644723D01*
X19131611Y-37654185D01*
X19140387Y-37650402D01*
X19947979Y-36842811D01*
X19955592Y-36828868D01*
X19955461Y-36827034D01*
X19951210Y-36820420D01*
X19145220Y-36014431D01*
X19133688Y-36008134D01*
X19121406Y-36017757D01*
X19059747Y-36108146D01*
X19054654Y-36117110D01*
X18958768Y-36323679D01*
X18955211Y-36333347D01*
X18894352Y-36552797D01*
X18892421Y-36562916D01*
X18868221Y-36789373D01*
X18867969Y-36799662D01*
X15619500Y-36799662D01*
X15619500Y-35480503D01*
X19494326Y-35480503D01*
X19499727Y-35487718D01*
X19524539Y-35554238D01*
X19509448Y-35623612D01*
X19499837Y-35638592D01*
X19497081Y-35642284D01*
X19503825Y-35654614D01*
X20307189Y-36457979D01*
X20321132Y-36465592D01*
X20322966Y-36465461D01*
X20329580Y-36461210D01*
X21137331Y-35653458D01*
X21144348Y-35640607D01*
X21137690Y-35631469D01*
X21113740Y-35564634D01*
X21129727Y-35495460D01*
X21140420Y-35479460D01*
X21142031Y-35477408D01*
X21135045Y-35464256D01*
X20332811Y-34662021D01*
X20318868Y-34654408D01*
X20317034Y-34654539D01*
X20310420Y-34658790D01*
X19501083Y-35468128D01*
X19494326Y-35480503D01*
X15619500Y-35480503D01*
X15619500Y-34499384D01*
X15639502Y-34431263D01*
X15656405Y-34410289D01*
X15807032Y-34259662D01*
X18867969Y-34259662D01*
X18881078Y-34487017D01*
X18882514Y-34497237D01*
X18932580Y-34719393D01*
X18935659Y-34729221D01*
X19021338Y-34940223D01*
X19025991Y-34949434D01*
X19121153Y-35104723D01*
X19131611Y-35114185D01*
X19140387Y-35110402D01*
X19947979Y-34302811D01*
X19954356Y-34291132D01*
X20684408Y-34291132D01*
X20684539Y-34292966D01*
X20688790Y-34299580D01*
X21494826Y-35105615D01*
X21506832Y-35112171D01*
X21518571Y-35103202D01*
X21562241Y-35042429D01*
X21567551Y-35033592D01*
X21668450Y-34829438D01*
X21672249Y-34819843D01*
X21738449Y-34601957D01*
X21740628Y-34591876D01*
X21770591Y-34364288D01*
X21771110Y-34357615D01*
X21772680Y-34293365D01*
X21772486Y-34286646D01*
X21753679Y-34057887D01*
X21751994Y-34047707D01*
X21696515Y-33826837D01*
X21693195Y-33817086D01*
X21602384Y-33608233D01*
X21597518Y-33599158D01*
X21518008Y-33476256D01*
X21507322Y-33467052D01*
X21497755Y-33471456D01*
X20692021Y-34277189D01*
X20684408Y-34291132D01*
X19954356Y-34291132D01*
X19955592Y-34288868D01*
X19955461Y-34287034D01*
X19951210Y-34280420D01*
X19145220Y-33474431D01*
X19133688Y-33468134D01*
X19121406Y-33477757D01*
X19059747Y-33568146D01*
X19054654Y-33577110D01*
X18958768Y-33783679D01*
X18955211Y-33793347D01*
X18894352Y-34012797D01*
X18892421Y-34022916D01*
X18868221Y-34249373D01*
X18867969Y-34259662D01*
X15807032Y-34259662D01*
X17900290Y-32166405D01*
X17962602Y-32132379D01*
X17989385Y-32129500D01*
X19099100Y-32129500D01*
X19167221Y-32149502D01*
X19213526Y-32202749D01*
X19278856Y-32344462D01*
X19278859Y-32344467D01*
X19281275Y-32349708D01*
X19284606Y-32354421D01*
X19284607Y-32354423D01*
X19337566Y-32429357D01*
X19407957Y-32528958D01*
X19565183Y-32682121D01*
X19569979Y-32685326D01*
X19569982Y-32685328D01*
X19698203Y-32771002D01*
X19743731Y-32825479D01*
X19752579Y-32895922D01*
X19721938Y-32959966D01*
X19686382Y-32987530D01*
X19550451Y-33058292D01*
X19541716Y-33063793D01*
X19505535Y-33090958D01*
X19497081Y-33102285D01*
X19503825Y-33114614D01*
X20307189Y-33917979D01*
X20321132Y-33925592D01*
X20322966Y-33925461D01*
X20329580Y-33921210D01*
X21137331Y-33113458D01*
X21144348Y-33100607D01*
X21136574Y-33089937D01*
X21128004Y-33083169D01*
X21119417Y-33077464D01*
X20952509Y-32985325D01*
X20902539Y-32934893D01*
X20887767Y-32865450D01*
X20912884Y-32799044D01*
X20951838Y-32765082D01*
X20994319Y-32741292D01*
X20994324Y-32741289D01*
X20999357Y-32738470D01*
X21168115Y-32598115D01*
X21308470Y-32429357D01*
X21415721Y-32237846D01*
X21486276Y-32029998D01*
X21487104Y-32024289D01*
X21487105Y-32024284D01*
X21507979Y-31880315D01*
X21517772Y-31812773D01*
X21519416Y-31750000D01*
X21502638Y-31567399D01*
X21499861Y-31537178D01*
X21499860Y-31537175D01*
X21499332Y-31531424D01*
X21439751Y-31320168D01*
X21426217Y-31292722D01*
X21345225Y-31128488D01*
X21342670Y-31123307D01*
X21211340Y-30947434D01*
X21050158Y-30798439D01*
X20864523Y-30681313D01*
X20660653Y-30599976D01*
X20655586Y-30598968D01*
X20596118Y-30560551D01*
X20566777Y-30495901D01*
X20577048Y-30425651D01*
X20623667Y-30372105D01*
X20651036Y-30358951D01*
X20802378Y-30307577D01*
X20807846Y-30305721D01*
X20999357Y-30198470D01*
X21168115Y-30058115D01*
X21308470Y-29889357D01*
X21415721Y-29697846D01*
X21486276Y-29489998D01*
X21487104Y-29484289D01*
X21487105Y-29484284D01*
X21517239Y-29276447D01*
X21517772Y-29272773D01*
X21519416Y-29210000D01*
X21499332Y-28991424D01*
X21439751Y-28780168D01*
X21425369Y-28751003D01*
X21345225Y-28588488D01*
X21342670Y-28583307D01*
X21211340Y-28407434D01*
X21050158Y-28258439D01*
X20864523Y-28141313D01*
X20660653Y-28059976D01*
X20655586Y-28058968D01*
X20596118Y-28020551D01*
X20566777Y-27955901D01*
X20577048Y-27885651D01*
X20623667Y-27832105D01*
X20651036Y-27818951D01*
X20802378Y-27767577D01*
X20807846Y-27765721D01*
X20999357Y-27658470D01*
X21168115Y-27518115D01*
X21308470Y-27349357D01*
X21415721Y-27157846D01*
X21479434Y-26970155D01*
X21484420Y-26955467D01*
X21484421Y-26955462D01*
X21486276Y-26949998D01*
X21487104Y-26944289D01*
X21487105Y-26944284D01*
X21517239Y-26736447D01*
X21517772Y-26732773D01*
X21519416Y-26670000D01*
X21499332Y-26451424D01*
X21439751Y-26240168D01*
X21425369Y-26211003D01*
X21345225Y-26048488D01*
X21342670Y-26043307D01*
X21291090Y-25974232D01*
X21214793Y-25872058D01*
X21214792Y-25872057D01*
X21211340Y-25867434D01*
X21050158Y-25718439D01*
X20864523Y-25601313D01*
X20660653Y-25519976D01*
X20655586Y-25518968D01*
X20596118Y-25480551D01*
X20566777Y-25415901D01*
X20577048Y-25345651D01*
X20623667Y-25292105D01*
X20651036Y-25278951D01*
X20802378Y-25227577D01*
X20807846Y-25225721D01*
X20999357Y-25118470D01*
X21168115Y-24978115D01*
X21308470Y-24809357D01*
X21415721Y-24617846D01*
X21486276Y-24409998D01*
X21487104Y-24404289D01*
X21487105Y-24404284D01*
X21517239Y-24196447D01*
X21517772Y-24192773D01*
X21519416Y-24130000D01*
X21501700Y-23937190D01*
X21499861Y-23917178D01*
X21499860Y-23917175D01*
X21499332Y-23911424D01*
X21475346Y-23826377D01*
X21441319Y-23705727D01*
X21441318Y-23705725D01*
X21439751Y-23700168D01*
X21425369Y-23671003D01*
X21345225Y-23508488D01*
X21342670Y-23503307D01*
X21211340Y-23327434D01*
X21114295Y-23237727D01*
X21054398Y-23182358D01*
X21054395Y-23182356D01*
X21050158Y-23178439D01*
X20864523Y-23061313D01*
X20660653Y-22979976D01*
X20654985Y-22978849D01*
X20654983Y-22978848D01*
X20451041Y-22938282D01*
X20451037Y-22938282D01*
X20445373Y-22937155D01*
X20439598Y-22937079D01*
X20439594Y-22937079D01*
X20328963Y-22935631D01*
X20225895Y-22934281D01*
X20220198Y-22935260D01*
X20220197Y-22935260D01*
X20015265Y-22970474D01*
X20009568Y-22971453D01*
X19803638Y-23047425D01*
X19798677Y-23050377D01*
X19798676Y-23050377D01*
X19619969Y-23156696D01*
X19619966Y-23156698D01*
X19615001Y-23159652D01*
X19449974Y-23304377D01*
X19314085Y-23476751D01*
X19311394Y-23481867D01*
X19311392Y-23481869D01*
X19214576Y-23665886D01*
X19211884Y-23671003D01*
X19146794Y-23880627D01*
X19120995Y-24098603D01*
X19135351Y-24317630D01*
X19189381Y-24530373D01*
X19281275Y-24729708D01*
X19284606Y-24734421D01*
X19284607Y-24734423D01*
X19341174Y-24814462D01*
X19407957Y-24908958D01*
X19565183Y-25062121D01*
X19569979Y-25065326D01*
X19569982Y-25065328D01*
X19658022Y-25124154D01*
X19747688Y-25184067D01*
X19752991Y-25186345D01*
X19752994Y-25186347D01*
X19938865Y-25266203D01*
X19949360Y-25270712D01*
X19971837Y-25275798D01*
X19976274Y-25276802D01*
X20038300Y-25311346D01*
X20071804Y-25373940D01*
X20066148Y-25444711D01*
X20023129Y-25501190D01*
X19992078Y-25517906D01*
X19803638Y-25587425D01*
X19798677Y-25590377D01*
X19798676Y-25590377D01*
X19619969Y-25696696D01*
X19619966Y-25696698D01*
X19615001Y-25699652D01*
X19449974Y-25844377D01*
X19314085Y-26016751D01*
X19311394Y-26021867D01*
X19311392Y-26021869D01*
X19214576Y-26205886D01*
X19211884Y-26211003D01*
X19146794Y-26420627D01*
X19120995Y-26638603D01*
X19135351Y-26857630D01*
X19189381Y-27070373D01*
X19281275Y-27269708D01*
X19284606Y-27274421D01*
X19284607Y-27274423D01*
X19337566Y-27349357D01*
X19407957Y-27448958D01*
X19565183Y-27602121D01*
X19569979Y-27605326D01*
X19569982Y-27605328D01*
X19643991Y-27654779D01*
X19747688Y-27724067D01*
X19752991Y-27726345D01*
X19752994Y-27726347D01*
X19844640Y-27765721D01*
X19949360Y-27810712D01*
X19976274Y-27816802D01*
X20038300Y-27851346D01*
X20071804Y-27913940D01*
X20066148Y-27984711D01*
X20023129Y-28041190D01*
X19992078Y-28057906D01*
X19803638Y-28127425D01*
X19798677Y-28130377D01*
X19798676Y-28130377D01*
X19619969Y-28236696D01*
X19619966Y-28236698D01*
X19615001Y-28239652D01*
X19449974Y-28384377D01*
X19314085Y-28556751D01*
X19311394Y-28561867D01*
X19311392Y-28561869D01*
X19300113Y-28583307D01*
X19211884Y-28751003D01*
X19146794Y-28960627D01*
X19120995Y-29178603D01*
X19135351Y-29397630D01*
X19189381Y-29610373D01*
X19281275Y-29809708D01*
X19284606Y-29814421D01*
X19284607Y-29814423D01*
X19337566Y-29889357D01*
X19407957Y-29988958D01*
X19565183Y-30142121D01*
X19569979Y-30145326D01*
X19569982Y-30145328D01*
X19643991Y-30194779D01*
X19747688Y-30264067D01*
X19752991Y-30266345D01*
X19752994Y-30266347D01*
X19844640Y-30305721D01*
X19949360Y-30350712D01*
X19976274Y-30356802D01*
X20038300Y-30391346D01*
X20071804Y-30453940D01*
X20066148Y-30524711D01*
X20023129Y-30581190D01*
X19992078Y-30597906D01*
X19803638Y-30667425D01*
X19798677Y-30670377D01*
X19798676Y-30670377D01*
X19619969Y-30776696D01*
X19619966Y-30776698D01*
X19615001Y-30779652D01*
X19449974Y-30924377D01*
X19314085Y-31096751D01*
X19311394Y-31101867D01*
X19311392Y-31101869D01*
X19300113Y-31123307D01*
X19211884Y-31291003D01*
X19211103Y-31293517D01*
X19167194Y-31348002D01*
X19095337Y-31370500D01*
X17989384Y-31370500D01*
X17921263Y-31350498D01*
X17900289Y-31333595D01*
X15656405Y-29089711D01*
X15622379Y-29027399D01*
X15619500Y-29000616D01*
X15619500Y-23069384D01*
X15639502Y-23001263D01*
X15656405Y-22980289D01*
X16845382Y-21791313D01*
X18070638Y-20566057D01*
X18070641Y-20566053D01*
X21820216Y-16816478D01*
X21838964Y-16801336D01*
X21840189Y-16800221D01*
X21848940Y-16794571D01*
X21855387Y-16786393D01*
X21855389Y-16786391D01*
X21869729Y-16768200D01*
X21873675Y-16763759D01*
X21873602Y-16763697D01*
X21876961Y-16759733D01*
X21880638Y-16756056D01*
X21891892Y-16740308D01*
X21895398Y-16735638D01*
X21927156Y-16695353D01*
X21930188Y-16686719D01*
X21935514Y-16679266D01*
X21950203Y-16630150D01*
X21952036Y-16624508D01*
X21966390Y-16583633D01*
X21966390Y-16583632D01*
X21969018Y-16576149D01*
X21969500Y-16570584D01*
X21969500Y-16567876D01*
X21969614Y-16565242D01*
X21969643Y-16565144D01*
X21969807Y-16565151D01*
X21969851Y-16564447D01*
X21971713Y-16558222D01*
X21969597Y-16504365D01*
X21969500Y-16499418D01*
X21969500Y-6406670D01*
X23262160Y-6406670D01*
X23267887Y-6414320D01*
X23439042Y-6519205D01*
X23447837Y-6523687D01*
X23657988Y-6610734D01*
X23667373Y-6613783D01*
X23888554Y-6666885D01*
X23898301Y-6668428D01*
X24125070Y-6686275D01*
X24134930Y-6686275D01*
X24361699Y-6668428D01*
X24371446Y-6666885D01*
X24592627Y-6613783D01*
X24602012Y-6610734D01*
X24812163Y-6523687D01*
X24820958Y-6519205D01*
X24988445Y-6416568D01*
X24997907Y-6406110D01*
X24994124Y-6397334D01*
X24142812Y-5546022D01*
X24128868Y-5538408D01*
X24127035Y-5538539D01*
X24120420Y-5542790D01*
X23268920Y-6394290D01*
X23262160Y-6406670D01*
X21969500Y-6406670D01*
X21969500Y-5178930D01*
X22617725Y-5178930D01*
X22635572Y-5405699D01*
X22637115Y-5415446D01*
X22690217Y-5636627D01*
X22693266Y-5646012D01*
X22780313Y-5856163D01*
X22784795Y-5864958D01*
X22887432Y-6032445D01*
X22897890Y-6041907D01*
X22906666Y-6038124D01*
X23757978Y-5186812D01*
X23765592Y-5172868D01*
X23765461Y-5171035D01*
X23761210Y-5164420D01*
X22909710Y-4312920D01*
X22897330Y-4306160D01*
X22889680Y-4311887D01*
X22784795Y-4483042D01*
X22780313Y-4491837D01*
X22693266Y-4701988D01*
X22690217Y-4711373D01*
X22637115Y-4932554D01*
X22635572Y-4942301D01*
X22617725Y-5169070D01*
X22617725Y-5178930D01*
X21969500Y-5178930D01*
X21969500Y-4019384D01*
X21989502Y-3951263D01*
X21997056Y-3941890D01*
X23262093Y-3941890D01*
X23265876Y-3950666D01*
X24117188Y-4801978D01*
X24131132Y-4809592D01*
X24132965Y-4809461D01*
X24139580Y-4805210D01*
X24991080Y-3953710D01*
X24997840Y-3941330D01*
X24992113Y-3933680D01*
X24820958Y-3828795D01*
X24812163Y-3824313D01*
X24602012Y-3737266D01*
X24592627Y-3734217D01*
X24371446Y-3681115D01*
X24361699Y-3679572D01*
X24134930Y-3661725D01*
X24125070Y-3661725D01*
X23898301Y-3679572D01*
X23888554Y-3681115D01*
X23667373Y-3734217D01*
X23657988Y-3737266D01*
X23447837Y-3824313D01*
X23439042Y-3828795D01*
X23271555Y-3931432D01*
X23262093Y-3941890D01*
X21997056Y-3941890D01*
X22006405Y-3930289D01*
X22980289Y-2956405D01*
X23042601Y-2922379D01*
X23069384Y-2919500D01*
X33986616Y-2919500D01*
X34054737Y-2939502D01*
X34075711Y-2956405D01*
X34944782Y-3825476D01*
X34978808Y-3887788D01*
X34973743Y-3958603D01*
X34931196Y-4015439D01*
X34864676Y-4040250D01*
X34802437Y-4028766D01*
X34773857Y-4015439D01*
X34720703Y-3990653D01*
X34508674Y-3933839D01*
X34290000Y-3914708D01*
X34071326Y-3933839D01*
X33859297Y-3990653D01*
X33806143Y-4015439D01*
X33665341Y-4081095D01*
X33665336Y-4081098D01*
X33660354Y-4083421D01*
X33655847Y-4086577D01*
X33655845Y-4086578D01*
X33485054Y-4206167D01*
X33485051Y-4206169D01*
X33480543Y-4209326D01*
X33325326Y-4364543D01*
X33322169Y-4369051D01*
X33322167Y-4369054D01*
X33242352Y-4483042D01*
X33199421Y-4544354D01*
X33197097Y-4549339D01*
X33197093Y-4549345D01*
X33134195Y-4684232D01*
X33087278Y-4737518D01*
X33019001Y-4756979D01*
X32951041Y-4736437D01*
X32905805Y-4684232D01*
X32842907Y-4549345D01*
X32842903Y-4549339D01*
X32840579Y-4544354D01*
X32797648Y-4483042D01*
X32717833Y-4369054D01*
X32717831Y-4369051D01*
X32714674Y-4364543D01*
X32559457Y-4209326D01*
X32554949Y-4206169D01*
X32554946Y-4206167D01*
X32384155Y-4086578D01*
X32384153Y-4086577D01*
X32379646Y-4083421D01*
X32374664Y-4081098D01*
X32374659Y-4081095D01*
X32233857Y-4015439D01*
X32180703Y-3990653D01*
X31968674Y-3933839D01*
X31750000Y-3914708D01*
X31531326Y-3933839D01*
X31319297Y-3990653D01*
X31266143Y-4015439D01*
X31125341Y-4081095D01*
X31125336Y-4081098D01*
X31120354Y-4083421D01*
X31115847Y-4086577D01*
X31115845Y-4086578D01*
X30945054Y-4206167D01*
X30945051Y-4206169D01*
X30940543Y-4209326D01*
X30785326Y-4364543D01*
X30782169Y-4369051D01*
X30782167Y-4369054D01*
X30702352Y-4483042D01*
X30659421Y-4544354D01*
X30657097Y-4549339D01*
X30657093Y-4549345D01*
X30594195Y-4684232D01*
X30547278Y-4737518D01*
X30479001Y-4756979D01*
X30411041Y-4736437D01*
X30365805Y-4684232D01*
X30302907Y-4549345D01*
X30302903Y-4549339D01*
X30300579Y-4544354D01*
X30257648Y-4483042D01*
X30177833Y-4369054D01*
X30177831Y-4369051D01*
X30174674Y-4364543D01*
X30019457Y-4209326D01*
X30014949Y-4206169D01*
X30014946Y-4206167D01*
X29844155Y-4086578D01*
X29844153Y-4086577D01*
X29839646Y-4083421D01*
X29834664Y-4081098D01*
X29834659Y-4081095D01*
X29693857Y-4015439D01*
X29640703Y-3990653D01*
X29428674Y-3933839D01*
X29210000Y-3914708D01*
X28991326Y-3933839D01*
X28779297Y-3990653D01*
X28726143Y-4015439D01*
X28585341Y-4081095D01*
X28585336Y-4081098D01*
X28580354Y-4083421D01*
X28575847Y-4086577D01*
X28575845Y-4086578D01*
X28405054Y-4206167D01*
X28405051Y-4206169D01*
X28400543Y-4209326D01*
X28245326Y-4364543D01*
X28242169Y-4369051D01*
X28242167Y-4369054D01*
X28162352Y-4483042D01*
X28119421Y-4544354D01*
X28117097Y-4549339D01*
X28117093Y-4549345D01*
X28054195Y-4684232D01*
X28007278Y-4737518D01*
X27939001Y-4756979D01*
X27871041Y-4736437D01*
X27825805Y-4684232D01*
X27762907Y-4549345D01*
X27762903Y-4549339D01*
X27760579Y-4544354D01*
X27717648Y-4483042D01*
X27637833Y-4369054D01*
X27637831Y-4369051D01*
X27634674Y-4364543D01*
X27479457Y-4209326D01*
X27474949Y-4206169D01*
X27474946Y-4206167D01*
X27304155Y-4086578D01*
X27304153Y-4086577D01*
X27299646Y-4083421D01*
X27294664Y-4081098D01*
X27294659Y-4081095D01*
X27153857Y-4015439D01*
X27100703Y-3990653D01*
X26888674Y-3933839D01*
X26670000Y-3914708D01*
X26451326Y-3933839D01*
X26239297Y-3990653D01*
X26186143Y-4015439D01*
X26045341Y-4081095D01*
X26045336Y-4081098D01*
X26040354Y-4083421D01*
X26035847Y-4086577D01*
X26035845Y-4086578D01*
X25865054Y-4206167D01*
X25865051Y-4206169D01*
X25860543Y-4209326D01*
X25705326Y-4364543D01*
X25702169Y-4369051D01*
X25702167Y-4369054D01*
X25654111Y-4437685D01*
X25598654Y-4482013D01*
X25528034Y-4489322D01*
X25464674Y-4457291D01*
X25443466Y-4431249D01*
X25372568Y-4315555D01*
X25362110Y-4306093D01*
X25353334Y-4309876D01*
X24502022Y-5161188D01*
X24494408Y-5175132D01*
X24494539Y-5176965D01*
X24498790Y-5183580D01*
X25350290Y-6035080D01*
X25362670Y-6041840D01*
X25370320Y-6036113D01*
X25443466Y-5916751D01*
X25496113Y-5869120D01*
X25566155Y-5857513D01*
X25631352Y-5885616D01*
X25654111Y-5910315D01*
X25705326Y-5983457D01*
X25860543Y-6138674D01*
X25865051Y-6141831D01*
X25865054Y-6141833D01*
X26023439Y-6252735D01*
X26040354Y-6264579D01*
X26045336Y-6266902D01*
X26045341Y-6266905D01*
X26217750Y-6347300D01*
X26271035Y-6394217D01*
X26290500Y-6461495D01*
X26290500Y-11376080D01*
X26287951Y-11400028D01*
X26287872Y-11401693D01*
X26285680Y-11411876D01*
X26286904Y-11422217D01*
X26289627Y-11445223D01*
X26289977Y-11451154D01*
X26290072Y-11451146D01*
X26290500Y-11456324D01*
X26290500Y-11461524D01*
X26291354Y-11466653D01*
X26291354Y-11466656D01*
X26293669Y-11480565D01*
X26294506Y-11486443D01*
X26296541Y-11503633D01*
X26300530Y-11537341D01*
X26304493Y-11545593D01*
X26305996Y-11554626D01*
X26330083Y-11599266D01*
X26330334Y-11599732D01*
X26333031Y-11605025D01*
X26351785Y-11644082D01*
X26351788Y-11644086D01*
X26355219Y-11651232D01*
X26358814Y-11655508D01*
X26360737Y-11657431D01*
X26362509Y-11659363D01*
X26362552Y-11659442D01*
X26362428Y-11659555D01*
X26362904Y-11660095D01*
X26365990Y-11665814D01*
X26373635Y-11672881D01*
X26405586Y-11702416D01*
X26409152Y-11705846D01*
X27523595Y-12820289D01*
X27557621Y-12882601D01*
X27560500Y-12909384D01*
X27560500Y-17570616D01*
X27540498Y-17638737D01*
X27523595Y-17659711D01*
X26445473Y-18737833D01*
X26426725Y-18752975D01*
X26425500Y-18754090D01*
X26416749Y-18759740D01*
X26410302Y-18767918D01*
X26410300Y-18767920D01*
X26395960Y-18786111D01*
X26392014Y-18790552D01*
X26392087Y-18790614D01*
X26388728Y-18794578D01*
X26385051Y-18798255D01*
X26373797Y-18814003D01*
X26370291Y-18818673D01*
X26338533Y-18858958D01*
X26335501Y-18867592D01*
X26330175Y-18875045D01*
X26327190Y-18885026D01*
X26315488Y-18924155D01*
X26313653Y-18929803D01*
X26308918Y-18943286D01*
X26296671Y-18978162D01*
X26296189Y-18983727D01*
X26296189Y-18986435D01*
X26296075Y-18989069D01*
X26296046Y-18989167D01*
X26295882Y-18989160D01*
X26295838Y-18989864D01*
X26293976Y-18996089D01*
X26294385Y-19006494D01*
X26296092Y-19049946D01*
X26296189Y-19054893D01*
X26296189Y-21784713D01*
X26276187Y-21852834D01*
X26222531Y-21899327D01*
X26152257Y-21909431D01*
X26102954Y-21891275D01*
X26097265Y-21887685D01*
X25944523Y-21791313D01*
X25740653Y-21709976D01*
X25734985Y-21708849D01*
X25734983Y-21708848D01*
X25531041Y-21668282D01*
X25531037Y-21668282D01*
X25525373Y-21667155D01*
X25519598Y-21667079D01*
X25519594Y-21667079D01*
X25408963Y-21665631D01*
X25305895Y-21664281D01*
X25300198Y-21665260D01*
X25300197Y-21665260D01*
X25095265Y-21700474D01*
X25089568Y-21701453D01*
X24883638Y-21777425D01*
X24878677Y-21780377D01*
X24878676Y-21780377D01*
X24699969Y-21886696D01*
X24699966Y-21886698D01*
X24695001Y-21889652D01*
X24529974Y-22034377D01*
X24394085Y-22206751D01*
X24391394Y-22211867D01*
X24391392Y-22211869D01*
X24380113Y-22233307D01*
X24291884Y-22401003D01*
X24290171Y-22406521D01*
X24290167Y-22406530D01*
X24250145Y-22535421D01*
X24210842Y-22594547D01*
X24145813Y-22623037D01*
X24075704Y-22611847D01*
X24022774Y-22564530D01*
X24008544Y-22532259D01*
X23981319Y-22435727D01*
X23981318Y-22435725D01*
X23979751Y-22430168D01*
X23965369Y-22401003D01*
X23885225Y-22238488D01*
X23882670Y-22233307D01*
X23751340Y-22057434D01*
X23590158Y-21908439D01*
X23404523Y-21791313D01*
X23200653Y-21709976D01*
X23194985Y-21708849D01*
X23194983Y-21708848D01*
X22991041Y-21668282D01*
X22991037Y-21668282D01*
X22985373Y-21667155D01*
X22979598Y-21667079D01*
X22979594Y-21667079D01*
X22868963Y-21665631D01*
X22765895Y-21664281D01*
X22760198Y-21665260D01*
X22760197Y-21665260D01*
X22555265Y-21700474D01*
X22549568Y-21701453D01*
X22343638Y-21777425D01*
X22338677Y-21780377D01*
X22338676Y-21780377D01*
X22159969Y-21886696D01*
X22159966Y-21886698D01*
X22155001Y-21889652D01*
X21989974Y-22034377D01*
X21854085Y-22206751D01*
X21851394Y-22211867D01*
X21851392Y-22211869D01*
X21840113Y-22233307D01*
X21751884Y-22401003D01*
X21686794Y-22610627D01*
X21660995Y-22828603D01*
X21675351Y-23047630D01*
X21729381Y-23260373D01*
X21821275Y-23459708D01*
X21824606Y-23464421D01*
X21824607Y-23464423D01*
X21877566Y-23539357D01*
X21947957Y-23638958D01*
X22105183Y-23792121D01*
X22109979Y-23795326D01*
X22109982Y-23795328D01*
X22246228Y-23886364D01*
X22287688Y-23914067D01*
X22292991Y-23916345D01*
X22292994Y-23916347D01*
X22484053Y-23998432D01*
X22489360Y-24000712D01*
X22703445Y-24049155D01*
X22709216Y-24049382D01*
X22709218Y-24049382D01*
X22782634Y-24052266D01*
X22922773Y-24057772D01*
X23014442Y-24044481D01*
X23134284Y-24027105D01*
X23134289Y-24027104D01*
X23139998Y-24026276D01*
X23145462Y-24024421D01*
X23145467Y-24024420D01*
X23298083Y-23972613D01*
X23347846Y-23955721D01*
X23539357Y-23848470D01*
X23708115Y-23708115D01*
X23848470Y-23539357D01*
X23955721Y-23347846D01*
X24011121Y-23184643D01*
X24051958Y-23126566D01*
X24117711Y-23099788D01*
X24187503Y-23112809D01*
X24239176Y-23161496D01*
X24252557Y-23194127D01*
X24269381Y-23260373D01*
X24361275Y-23459708D01*
X24364606Y-23464421D01*
X24364607Y-23464423D01*
X24417566Y-23539357D01*
X24487957Y-23638958D01*
X24645183Y-23792121D01*
X24649979Y-23795326D01*
X24649982Y-23795328D01*
X24786228Y-23886364D01*
X24827688Y-23914067D01*
X24832991Y-23916345D01*
X24832994Y-23916347D01*
X25024053Y-23998432D01*
X25029360Y-24000712D01*
X25243445Y-24049155D01*
X25249216Y-24049382D01*
X25249218Y-24049382D01*
X25322634Y-24052266D01*
X25462773Y-24057772D01*
X25554442Y-24044481D01*
X25674284Y-24027105D01*
X25674289Y-24027104D01*
X25679998Y-24026276D01*
X25685462Y-24024421D01*
X25685467Y-24024420D01*
X25838083Y-23972613D01*
X25887846Y-23955721D01*
X26079357Y-23848470D01*
X26089618Y-23839936D01*
X26154781Y-23811754D01*
X26224837Y-23823276D01*
X26277542Y-23870843D01*
X26296189Y-23936808D01*
X26296189Y-31701769D01*
X26293640Y-31725717D01*
X26293561Y-31727382D01*
X26291369Y-31737565D01*
X26292593Y-31747906D01*
X26295316Y-31770912D01*
X26295666Y-31776843D01*
X26295761Y-31776835D01*
X26296189Y-31782013D01*
X26296189Y-31787213D01*
X26297043Y-31792342D01*
X26297043Y-31792345D01*
X26299358Y-31806254D01*
X26300195Y-31812132D01*
X26306219Y-31863030D01*
X26310182Y-31871282D01*
X26311685Y-31880315D01*
X26316632Y-31889484D01*
X26316633Y-31889486D01*
X26336023Y-31925421D01*
X26338720Y-31930714D01*
X26357474Y-31969771D01*
X26357477Y-31969775D01*
X26360908Y-31976921D01*
X26364503Y-31981197D01*
X26366426Y-31983120D01*
X26368198Y-31985052D01*
X26368241Y-31985131D01*
X26368117Y-31985244D01*
X26368593Y-31985784D01*
X26371679Y-31991503D01*
X26379324Y-31998570D01*
X26411275Y-32028105D01*
X26414841Y-32031535D01*
X31284115Y-36900809D01*
X31318141Y-36963121D01*
X31313076Y-37033936D01*
X31270529Y-37090772D01*
X31204009Y-37115583D01*
X31134635Y-37100492D01*
X31127785Y-37096466D01*
X31024523Y-37031313D01*
X30820653Y-36949976D01*
X30814985Y-36948849D01*
X30814983Y-36948848D01*
X30611041Y-36908282D01*
X30611037Y-36908282D01*
X30605373Y-36907155D01*
X30599598Y-36907079D01*
X30599594Y-36907079D01*
X30488963Y-36905631D01*
X30385895Y-36904281D01*
X30380198Y-36905260D01*
X30380197Y-36905260D01*
X30175265Y-36940474D01*
X30169568Y-36941453D01*
X29963638Y-37017425D01*
X29958677Y-37020377D01*
X29958676Y-37020377D01*
X29779969Y-37126696D01*
X29779966Y-37126698D01*
X29775001Y-37129652D01*
X29609974Y-37274377D01*
X29474085Y-37446751D01*
X29471394Y-37451867D01*
X29471392Y-37451869D01*
X29410642Y-37567336D01*
X29371884Y-37641003D01*
X29370170Y-37646522D01*
X29370167Y-37646530D01*
X29330145Y-37775421D01*
X29290842Y-37834547D01*
X29225813Y-37863037D01*
X29155704Y-37851847D01*
X29102774Y-37804530D01*
X29088544Y-37772259D01*
X29061319Y-37675727D01*
X29061318Y-37675725D01*
X29059751Y-37670168D01*
X29051870Y-37654185D01*
X28965225Y-37478488D01*
X28962670Y-37473307D01*
X28956681Y-37465286D01*
X28834793Y-37302058D01*
X28834792Y-37302057D01*
X28831340Y-37297434D01*
X28728123Y-37202021D01*
X28674398Y-37152358D01*
X28674395Y-37152356D01*
X28670158Y-37148439D01*
X28484523Y-37031313D01*
X28280653Y-36949976D01*
X28274985Y-36948849D01*
X28274983Y-36948848D01*
X28071041Y-36908282D01*
X28071037Y-36908282D01*
X28065373Y-36907155D01*
X28059598Y-36907079D01*
X28059594Y-36907079D01*
X27948963Y-36905631D01*
X27845895Y-36904281D01*
X27840198Y-36905260D01*
X27840197Y-36905260D01*
X27635265Y-36940474D01*
X27629568Y-36941453D01*
X27423638Y-37017425D01*
X27418677Y-37020377D01*
X27418676Y-37020377D01*
X27239969Y-37126696D01*
X27239966Y-37126698D01*
X27235001Y-37129652D01*
X27069974Y-37274377D01*
X26934085Y-37446751D01*
X26931394Y-37451867D01*
X26931392Y-37451869D01*
X26870642Y-37567336D01*
X26831884Y-37641003D01*
X26830170Y-37646522D01*
X26830167Y-37646530D01*
X26790145Y-37775421D01*
X26750842Y-37834547D01*
X26685813Y-37863037D01*
X26615704Y-37851847D01*
X26562774Y-37804530D01*
X26548544Y-37772259D01*
X26521319Y-37675727D01*
X26521318Y-37675725D01*
X26519751Y-37670168D01*
X26511870Y-37654185D01*
X26425225Y-37478488D01*
X26422670Y-37473307D01*
X26416681Y-37465286D01*
X26294793Y-37302058D01*
X26294792Y-37302057D01*
X26291340Y-37297434D01*
X26188123Y-37202021D01*
X26134398Y-37152358D01*
X26134395Y-37152356D01*
X26130158Y-37148439D01*
X25944523Y-37031313D01*
X25740653Y-36949976D01*
X25734985Y-36948849D01*
X25734983Y-36948848D01*
X25531041Y-36908282D01*
X25531037Y-36908282D01*
X25525373Y-36907155D01*
X25519598Y-36907079D01*
X25519594Y-36907079D01*
X25408963Y-36905631D01*
X25305895Y-36904281D01*
X25300198Y-36905260D01*
X25300197Y-36905260D01*
X25095265Y-36940474D01*
X25089568Y-36941453D01*
X24883638Y-37017425D01*
X24878677Y-37020377D01*
X24878676Y-37020377D01*
X24699969Y-37126696D01*
X24699966Y-37126698D01*
X24695001Y-37129652D01*
X24529974Y-37274377D01*
X24394085Y-37446751D01*
X24391394Y-37451867D01*
X24391392Y-37451869D01*
X24330642Y-37567336D01*
X24291884Y-37641003D01*
X24290170Y-37646522D01*
X24290167Y-37646530D01*
X24250145Y-37775421D01*
X24210842Y-37834547D01*
X24145813Y-37863037D01*
X24075704Y-37851847D01*
X24022774Y-37804530D01*
X24008544Y-37772259D01*
X23981319Y-37675727D01*
X23981318Y-37675725D01*
X23979751Y-37670168D01*
X23971870Y-37654185D01*
X23885225Y-37478488D01*
X23882670Y-37473307D01*
X23876681Y-37465286D01*
X23754793Y-37302058D01*
X23754792Y-37302057D01*
X23751340Y-37297434D01*
X23648123Y-37202021D01*
X23594398Y-37152358D01*
X23594395Y-37152356D01*
X23590158Y-37148439D01*
X23404523Y-37031313D01*
X23200653Y-36949976D01*
X23194985Y-36948849D01*
X23194983Y-36948848D01*
X22991041Y-36908282D01*
X22991037Y-36908282D01*
X22985373Y-36907155D01*
X22979598Y-36907079D01*
X22979594Y-36907079D01*
X22868963Y-36905631D01*
X22765895Y-36904281D01*
X22760198Y-36905260D01*
X22760197Y-36905260D01*
X22555265Y-36940474D01*
X22549568Y-36941453D01*
X22343638Y-37017425D01*
X22338677Y-37020377D01*
X22338676Y-37020377D01*
X22159969Y-37126696D01*
X22159966Y-37126698D01*
X22155001Y-37129652D01*
X21989974Y-37274377D01*
X21986399Y-37278912D01*
X21986398Y-37278913D01*
X21929087Y-37351611D01*
X21871205Y-37392724D01*
X21800285Y-37396018D01*
X21738843Y-37360446D01*
X21706386Y-37297303D01*
X21709579Y-37236976D01*
X21738449Y-37141957D01*
X21740628Y-37131876D01*
X21770591Y-36904288D01*
X21771110Y-36897615D01*
X21772680Y-36833365D01*
X21772486Y-36826646D01*
X21753679Y-36597887D01*
X21751994Y-36587707D01*
X21696515Y-36366837D01*
X21693195Y-36357086D01*
X21602384Y-36148233D01*
X21597518Y-36139158D01*
X21518008Y-36016256D01*
X21507322Y-36007052D01*
X21497755Y-36011456D01*
X20692021Y-36817189D01*
X20684408Y-36831132D01*
X20684539Y-36832966D01*
X20688790Y-36839580D01*
X21494826Y-37645615D01*
X21506831Y-37652170D01*
X21509543Y-37650098D01*
X21575817Y-37624638D01*
X21645336Y-37639050D01*
X21696027Y-37688759D01*
X21711796Y-37757982D01*
X21706368Y-37787586D01*
X21691787Y-37834547D01*
X21686794Y-37850627D01*
X21660995Y-38068603D01*
X21675351Y-38287630D01*
X21729381Y-38500373D01*
X21821275Y-38699708D01*
X21824606Y-38704421D01*
X21824607Y-38704423D01*
X21877566Y-38779357D01*
X21947957Y-38878958D01*
X22105183Y-39032121D01*
X22109979Y-39035326D01*
X22109982Y-39035328D01*
X22183991Y-39084779D01*
X22287688Y-39154067D01*
X22292991Y-39156345D01*
X22292994Y-39156347D01*
X22384640Y-39195721D01*
X22489360Y-39240712D01*
X22703445Y-39289155D01*
X22709216Y-39289382D01*
X22709218Y-39289382D01*
X22782634Y-39292266D01*
X22922773Y-39297772D01*
X23014442Y-39284481D01*
X23134284Y-39267105D01*
X23134289Y-39267104D01*
X23139998Y-39266276D01*
X23145462Y-39264421D01*
X23145467Y-39264420D01*
X23342378Y-39197577D01*
X23347846Y-39195721D01*
X23539357Y-39088470D01*
X23708115Y-38948115D01*
X23848470Y-38779357D01*
X23955721Y-38587846D01*
X24011121Y-38424643D01*
X24051958Y-38366566D01*
X24117711Y-38339788D01*
X24187503Y-38352809D01*
X24239176Y-38401496D01*
X24252557Y-38434127D01*
X24269381Y-38500373D01*
X24361275Y-38699708D01*
X24364606Y-38704421D01*
X24364607Y-38704423D01*
X24417566Y-38779357D01*
X24487957Y-38878958D01*
X24645183Y-39032121D01*
X24649979Y-39035326D01*
X24649982Y-39035328D01*
X24723991Y-39084779D01*
X24827688Y-39154067D01*
X24832991Y-39156345D01*
X24832994Y-39156347D01*
X24924640Y-39195721D01*
X25029360Y-39240712D01*
X25243445Y-39289155D01*
X25249216Y-39289382D01*
X25249218Y-39289382D01*
X25322634Y-39292266D01*
X25462773Y-39297772D01*
X25554442Y-39284481D01*
X25674284Y-39267105D01*
X25674289Y-39267104D01*
X25679998Y-39266276D01*
X25685462Y-39264421D01*
X25685467Y-39264420D01*
X25882378Y-39197577D01*
X25887846Y-39195721D01*
X26079357Y-39088470D01*
X26248115Y-38948115D01*
X26388470Y-38779357D01*
X26495721Y-38587846D01*
X26551121Y-38424643D01*
X26591958Y-38366566D01*
X26657711Y-38339788D01*
X26727503Y-38352809D01*
X26779176Y-38401496D01*
X26792557Y-38434127D01*
X26809381Y-38500373D01*
X26901275Y-38699708D01*
X26904606Y-38704421D01*
X26904607Y-38704423D01*
X26957566Y-38779357D01*
X27027957Y-38878958D01*
X27185183Y-39032121D01*
X27189979Y-39035326D01*
X27189982Y-39035328D01*
X27263991Y-39084779D01*
X27367688Y-39154067D01*
X27372991Y-39156345D01*
X27372994Y-39156347D01*
X27464640Y-39195721D01*
X27569360Y-39240712D01*
X27783445Y-39289155D01*
X27789216Y-39289382D01*
X27789218Y-39289382D01*
X27862634Y-39292266D01*
X28002773Y-39297772D01*
X28094442Y-39284481D01*
X28214284Y-39267105D01*
X28214289Y-39267104D01*
X28219998Y-39266276D01*
X28225462Y-39264421D01*
X28225467Y-39264420D01*
X28422378Y-39197577D01*
X28427846Y-39195721D01*
X28619357Y-39088470D01*
X28788115Y-38948115D01*
X28928470Y-38779357D01*
X29035721Y-38587846D01*
X29091121Y-38424643D01*
X29131958Y-38366566D01*
X29197711Y-38339788D01*
X29267503Y-38352809D01*
X29319176Y-38401496D01*
X29332557Y-38434127D01*
X29349381Y-38500373D01*
X29441275Y-38699708D01*
X29444606Y-38704421D01*
X29444607Y-38704423D01*
X29497566Y-38779357D01*
X29567957Y-38878958D01*
X29725183Y-39032121D01*
X29729979Y-39035326D01*
X29729982Y-39035328D01*
X29803991Y-39084779D01*
X29907688Y-39154067D01*
X29912991Y-39156345D01*
X29912994Y-39156347D01*
X30004640Y-39195721D01*
X30109360Y-39240712D01*
X30323445Y-39289155D01*
X30329216Y-39289382D01*
X30329218Y-39289382D01*
X30402634Y-39292266D01*
X30542773Y-39297772D01*
X30634442Y-39284481D01*
X30754284Y-39267105D01*
X30754289Y-39267104D01*
X30759998Y-39266276D01*
X30765462Y-39264421D01*
X30765467Y-39264420D01*
X30962378Y-39197577D01*
X30967846Y-39195721D01*
X31159357Y-39088470D01*
X31328115Y-38948115D01*
X31468470Y-38779357D01*
X31575721Y-38587846D01*
X31631121Y-38424643D01*
X31671958Y-38366566D01*
X31737711Y-38339788D01*
X31807503Y-38352809D01*
X31859176Y-38401496D01*
X31872557Y-38434127D01*
X31889381Y-38500373D01*
X31981275Y-38699708D01*
X31984606Y-38704421D01*
X31984607Y-38704423D01*
X32037566Y-38779357D01*
X32107957Y-38878958D01*
X32265183Y-39032121D01*
X32269979Y-39035326D01*
X32269982Y-39035328D01*
X32343991Y-39084779D01*
X32447688Y-39154067D01*
X32452991Y-39156345D01*
X32452994Y-39156347D01*
X32544640Y-39195721D01*
X32649360Y-39240712D01*
X32863445Y-39289155D01*
X32869216Y-39289382D01*
X32869218Y-39289382D01*
X32942634Y-39292266D01*
X33082773Y-39297772D01*
X33174442Y-39284481D01*
X33294284Y-39267105D01*
X33294289Y-39267104D01*
X33299998Y-39266276D01*
X33305462Y-39264421D01*
X33305467Y-39264420D01*
X33502378Y-39197577D01*
X33507846Y-39195721D01*
X33699357Y-39088470D01*
X33868115Y-38948115D01*
X34008470Y-38779357D01*
X34115721Y-38587846D01*
X34171121Y-38424643D01*
X34211958Y-38366566D01*
X34277711Y-38339788D01*
X34347503Y-38352809D01*
X34399176Y-38401496D01*
X34412557Y-38434127D01*
X34429381Y-38500373D01*
X34521275Y-38699708D01*
X34524606Y-38704421D01*
X34524607Y-38704423D01*
X34577566Y-38779357D01*
X34647957Y-38878958D01*
X34805183Y-39032121D01*
X34809979Y-39035326D01*
X34809982Y-39035328D01*
X34883991Y-39084779D01*
X34987688Y-39154067D01*
X34992991Y-39156345D01*
X34992994Y-39156347D01*
X35084640Y-39195721D01*
X35189360Y-39240712D01*
X35403445Y-39289155D01*
X35409216Y-39289382D01*
X35409218Y-39289382D01*
X35482634Y-39292266D01*
X35622773Y-39297772D01*
X35714442Y-39284481D01*
X35834284Y-39267105D01*
X35834289Y-39267104D01*
X35839998Y-39266276D01*
X35845462Y-39264421D01*
X35845467Y-39264420D01*
X36042378Y-39197577D01*
X36047846Y-39195721D01*
X36239357Y-39088470D01*
X36408115Y-38948115D01*
X36548470Y-38779357D01*
X36655721Y-38587846D01*
X36711121Y-38424643D01*
X36751958Y-38366566D01*
X36817711Y-38339788D01*
X36887503Y-38352809D01*
X36939176Y-38401496D01*
X36952557Y-38434127D01*
X36969381Y-38500373D01*
X37061275Y-38699708D01*
X37064606Y-38704421D01*
X37064607Y-38704423D01*
X37117566Y-38779357D01*
X37187957Y-38878958D01*
X37345183Y-39032121D01*
X37349979Y-39035326D01*
X37349982Y-39035328D01*
X37423991Y-39084779D01*
X37527688Y-39154067D01*
X37532991Y-39156345D01*
X37532994Y-39156347D01*
X37624640Y-39195721D01*
X37729360Y-39240712D01*
X37943445Y-39289155D01*
X37949216Y-39289382D01*
X37949218Y-39289382D01*
X38022634Y-39292266D01*
X38162773Y-39297772D01*
X38254442Y-39284481D01*
X38374284Y-39267105D01*
X38374289Y-39267104D01*
X38379998Y-39266276D01*
X38385462Y-39264421D01*
X38385467Y-39264420D01*
X38582378Y-39197577D01*
X38587846Y-39195721D01*
X38747055Y-39106560D01*
X38816263Y-39090727D01*
X38883046Y-39114824D01*
X38926198Y-39171201D01*
X38932021Y-39241958D01*
X38897716Y-39305590D01*
X29184711Y-49018595D01*
X29122399Y-49052621D01*
X29095616Y-49055500D01*
X25250230Y-49055500D01*
X25182109Y-49035498D01*
X25138982Y-48988657D01*
X25075761Y-48869756D01*
X25071871Y-48864986D01*
X25071868Y-48864982D01*
X24953663Y-48720049D01*
X24953660Y-48720046D01*
X24949768Y-48715274D01*
X24796170Y-48588206D01*
X24620815Y-48493392D01*
X24430385Y-48434444D01*
X24424260Y-48433800D01*
X24424259Y-48433800D01*
X24264633Y-48417023D01*
X24227844Y-48401887D01*
X24201661Y-48415649D01*
X24188255Y-48417600D01*
X24039746Y-48431115D01*
X24039745Y-48431115D01*
X24033605Y-48431674D01*
X24027691Y-48433415D01*
X24027689Y-48433415D01*
X23897539Y-48471721D01*
X23842370Y-48487958D01*
X23665709Y-48580314D01*
X23660909Y-48584174D01*
X23660908Y-48584174D01*
X23655893Y-48588206D01*
X23510351Y-48705225D01*
X23382214Y-48857933D01*
X23286179Y-49032621D01*
X23284318Y-49038488D01*
X23284317Y-49038490D01*
X23278921Y-49055500D01*
X23225902Y-49222635D01*
X23203682Y-49420739D01*
X23220362Y-49619386D01*
X23222060Y-49625306D01*
X23272717Y-49801966D01*
X23275310Y-49811009D01*
X23366430Y-49988311D01*
X23490253Y-50144537D01*
X23642063Y-50273737D01*
X23647441Y-50276743D01*
X23647443Y-50276744D01*
X23689397Y-50300191D01*
X23816076Y-50370989D01*
X23821935Y-50372893D01*
X23821938Y-50372894D01*
X23857701Y-50384514D01*
X24005665Y-50432591D01*
X24011775Y-50433320D01*
X24011777Y-50433320D01*
X24079314Y-50441373D01*
X24203609Y-50456194D01*
X24209744Y-50455722D01*
X24209746Y-50455722D01*
X24396226Y-50441373D01*
X24396231Y-50441372D01*
X24402367Y-50440900D01*
X24408297Y-50439244D01*
X24408299Y-50439244D01*
X24498368Y-50414096D01*
X24594370Y-50387292D01*
X24599870Y-50384514D01*
X24766802Y-50300191D01*
X24766804Y-50300190D01*
X24772303Y-50297412D01*
X24929390Y-50174682D01*
X24951962Y-50148532D01*
X25055618Y-50028446D01*
X25055619Y-50028444D01*
X25059647Y-50023778D01*
X25142311Y-49878263D01*
X25193350Y-49828913D01*
X25251867Y-49814500D01*
X29251080Y-49814500D01*
X29275028Y-49817049D01*
X29276693Y-49817128D01*
X29286876Y-49819320D01*
X29297217Y-49818096D01*
X29320223Y-49815373D01*
X29326154Y-49815023D01*
X29326146Y-49814928D01*
X29331324Y-49814500D01*
X29336524Y-49814500D01*
X29341653Y-49813646D01*
X29341656Y-49813646D01*
X29355565Y-49811331D01*
X29361443Y-49810494D01*
X29402001Y-49805694D01*
X29402002Y-49805694D01*
X29412341Y-49804470D01*
X29420593Y-49800507D01*
X29429626Y-49799004D01*
X29438795Y-49794057D01*
X29438797Y-49794056D01*
X29474732Y-49774666D01*
X29480025Y-49771969D01*
X29519082Y-49753215D01*
X29519086Y-49753212D01*
X29526232Y-49749781D01*
X29530508Y-49746186D01*
X29532431Y-49744263D01*
X29534363Y-49742491D01*
X29534442Y-49742448D01*
X29534555Y-49742572D01*
X29535095Y-49742096D01*
X29540814Y-49739010D01*
X29577417Y-49699413D01*
X29580846Y-49695848D01*
X40045738Y-39230956D01*
X40108050Y-39196930D01*
X40184572Y-39204284D01*
X40264048Y-39238430D01*
X40264050Y-39238431D01*
X40269360Y-39240712D01*
X40483445Y-39289155D01*
X40489216Y-39289382D01*
X40489218Y-39289382D01*
X40562634Y-39292266D01*
X40702773Y-39297772D01*
X40794442Y-39284481D01*
X40914284Y-39267105D01*
X40914289Y-39267104D01*
X40919998Y-39266276D01*
X40925462Y-39264421D01*
X40925467Y-39264420D01*
X41122378Y-39197577D01*
X41127846Y-39195721D01*
X41287055Y-39106560D01*
X41356263Y-39090727D01*
X41423046Y-39114824D01*
X41466198Y-39171201D01*
X41472021Y-39241958D01*
X41437716Y-39305590D01*
X26644711Y-54098595D01*
X26582399Y-54132621D01*
X26555616Y-54135500D01*
X25250230Y-54135500D01*
X25182109Y-54115498D01*
X25138982Y-54068657D01*
X25075761Y-53949756D01*
X25071871Y-53944986D01*
X25071868Y-53944982D01*
X24953663Y-53800049D01*
X24953660Y-53800046D01*
X24949768Y-53795274D01*
X24796170Y-53668206D01*
X24620815Y-53573392D01*
X24430385Y-53514444D01*
X24424260Y-53513800D01*
X24424259Y-53513800D01*
X24238260Y-53494251D01*
X24238258Y-53494251D01*
X24232131Y-53493607D01*
X24109252Y-53504790D01*
X24039746Y-53511115D01*
X24039745Y-53511115D01*
X24033605Y-53511674D01*
X24027691Y-53513415D01*
X24027689Y-53513415D01*
X23897539Y-53551721D01*
X23842370Y-53567958D01*
X23665709Y-53660314D01*
X23660909Y-53664174D01*
X23660908Y-53664174D01*
X23655893Y-53668206D01*
X23510351Y-53785225D01*
X23382214Y-53937933D01*
X23286179Y-54112621D01*
X23284318Y-54118488D01*
X23284317Y-54118490D01*
X23278921Y-54135500D01*
X23225902Y-54302635D01*
X23203682Y-54500739D01*
X23220362Y-54699386D01*
X23242288Y-54775848D01*
X23272717Y-54881966D01*
X23275310Y-54891009D01*
X23366430Y-55068311D01*
X23490253Y-55224537D01*
X23642063Y-55353737D01*
X23647441Y-55356743D01*
X23647443Y-55356744D01*
X23689397Y-55380191D01*
X23816076Y-55450989D01*
X23821935Y-55452893D01*
X23821938Y-55452894D01*
X23857701Y-55464514D01*
X24005665Y-55512591D01*
X24011775Y-55513320D01*
X24011777Y-55513320D01*
X24079314Y-55521373D01*
X24182015Y-55533619D01*
X24216739Y-55548476D01*
X24244285Y-55533997D01*
X24259445Y-55531898D01*
X24396226Y-55521373D01*
X24396231Y-55521372D01*
X24402367Y-55520900D01*
X24408297Y-55519244D01*
X24408299Y-55519244D01*
X24498368Y-55494096D01*
X24594370Y-55467292D01*
X24599870Y-55464514D01*
X24766802Y-55380191D01*
X24766804Y-55380190D01*
X24772303Y-55377412D01*
X24929390Y-55254682D01*
X24951962Y-55228532D01*
X25055618Y-55108446D01*
X25055619Y-55108444D01*
X25059647Y-55103778D01*
X25142311Y-54958263D01*
X25193350Y-54908913D01*
X25251867Y-54894500D01*
X26711080Y-54894500D01*
X26735028Y-54897049D01*
X26736693Y-54897128D01*
X26746876Y-54899320D01*
X26757217Y-54898096D01*
X26780223Y-54895373D01*
X26786154Y-54895023D01*
X26786146Y-54894928D01*
X26791324Y-54894500D01*
X26796524Y-54894500D01*
X26801653Y-54893646D01*
X26801656Y-54893646D01*
X26815565Y-54891331D01*
X26821443Y-54890494D01*
X26862001Y-54885694D01*
X26862002Y-54885694D01*
X26872341Y-54884470D01*
X26880593Y-54880507D01*
X26889626Y-54879004D01*
X26898795Y-54874057D01*
X26898797Y-54874056D01*
X26934732Y-54854666D01*
X26940025Y-54851969D01*
X26979082Y-54833215D01*
X26979086Y-54833212D01*
X26986232Y-54829781D01*
X26990508Y-54826186D01*
X26992431Y-54824263D01*
X26994363Y-54822491D01*
X26994442Y-54822448D01*
X26994555Y-54822572D01*
X26995095Y-54822096D01*
X27000814Y-54819010D01*
X27037417Y-54779413D01*
X27040846Y-54775848D01*
X42585738Y-39230956D01*
X42648050Y-39196930D01*
X42724572Y-39204284D01*
X42804048Y-39238430D01*
X42804050Y-39238431D01*
X42809360Y-39240712D01*
X43023445Y-39289155D01*
X43029216Y-39289382D01*
X43029218Y-39289382D01*
X43102634Y-39292266D01*
X43242773Y-39297772D01*
X43334442Y-39284481D01*
X43454284Y-39267105D01*
X43454289Y-39267104D01*
X43459998Y-39266276D01*
X43465462Y-39264421D01*
X43465467Y-39264420D01*
X43662378Y-39197577D01*
X43667846Y-39195721D01*
X43859357Y-39088470D01*
X44028115Y-38948115D01*
X44168470Y-38779357D01*
X44275721Y-38587846D01*
X44331121Y-38424643D01*
X44371958Y-38366566D01*
X44437711Y-38339788D01*
X44507503Y-38352809D01*
X44559176Y-38401496D01*
X44572557Y-38434127D01*
X44589381Y-38500373D01*
X44681275Y-38699708D01*
X44684606Y-38704421D01*
X44684607Y-38704423D01*
X44737566Y-38779357D01*
X44807957Y-38878958D01*
X44965183Y-39032121D01*
X44969979Y-39035326D01*
X44969982Y-39035328D01*
X45043991Y-39084779D01*
X45147688Y-39154067D01*
X45152991Y-39156345D01*
X45152994Y-39156347D01*
X45244640Y-39195721D01*
X45349360Y-39240712D01*
X45563445Y-39289155D01*
X45569216Y-39289382D01*
X45569218Y-39289382D01*
X45642634Y-39292266D01*
X45782773Y-39297772D01*
X45874442Y-39284481D01*
X45994284Y-39267105D01*
X45994289Y-39267104D01*
X45999998Y-39266276D01*
X46005462Y-39264421D01*
X46005467Y-39264420D01*
X46202378Y-39197577D01*
X46207846Y-39195721D01*
X46399357Y-39088470D01*
X46568115Y-38948115D01*
X46708470Y-38779357D01*
X46815721Y-38587846D01*
X46871121Y-38424643D01*
X46911958Y-38366566D01*
X46977711Y-38339788D01*
X47047503Y-38352809D01*
X47099176Y-38401496D01*
X47112557Y-38434127D01*
X47129381Y-38500373D01*
X47221275Y-38699708D01*
X47224606Y-38704421D01*
X47224607Y-38704423D01*
X47277566Y-38779357D01*
X47347957Y-38878958D01*
X47505183Y-39032121D01*
X47509979Y-39035326D01*
X47509982Y-39035328D01*
X47583991Y-39084779D01*
X47687688Y-39154067D01*
X47692991Y-39156345D01*
X47692994Y-39156347D01*
X47784640Y-39195721D01*
X47889360Y-39240712D01*
X48103445Y-39289155D01*
X48109216Y-39289382D01*
X48109218Y-39289382D01*
X48182634Y-39292266D01*
X48322773Y-39297772D01*
X48414442Y-39284481D01*
X48534284Y-39267105D01*
X48534289Y-39267104D01*
X48539998Y-39266276D01*
X48545462Y-39264421D01*
X48545467Y-39264420D01*
X48742378Y-39197577D01*
X48747846Y-39195721D01*
X48939357Y-39088470D01*
X49108115Y-38948115D01*
X49248470Y-38779357D01*
X49355721Y-38587846D01*
X49411121Y-38424643D01*
X49451958Y-38366566D01*
X49517711Y-38339788D01*
X49587503Y-38352809D01*
X49639176Y-38401496D01*
X49652557Y-38434127D01*
X49669381Y-38500373D01*
X49761275Y-38699708D01*
X49764606Y-38704421D01*
X49764607Y-38704423D01*
X49817566Y-38779357D01*
X49887957Y-38878958D01*
X50045183Y-39032121D01*
X50049979Y-39035326D01*
X50049982Y-39035328D01*
X50123991Y-39084779D01*
X50227688Y-39154067D01*
X50232991Y-39156345D01*
X50232994Y-39156347D01*
X50324640Y-39195721D01*
X50429360Y-39240712D01*
X50643445Y-39289155D01*
X50649216Y-39289382D01*
X50649218Y-39289382D01*
X50722634Y-39292266D01*
X50862773Y-39297772D01*
X50954442Y-39284481D01*
X51074284Y-39267105D01*
X51074289Y-39267104D01*
X51079998Y-39266276D01*
X51085462Y-39264421D01*
X51085467Y-39264420D01*
X51282378Y-39197577D01*
X51287846Y-39195721D01*
X51479357Y-39088470D01*
X51648115Y-38948115D01*
X51788470Y-38779357D01*
X51895721Y-38587846D01*
X51925414Y-38500373D01*
X51964420Y-38385467D01*
X51964421Y-38385462D01*
X51966276Y-38379998D01*
X51967104Y-38374289D01*
X51967105Y-38374284D01*
X51994681Y-38184088D01*
X51997772Y-38162773D01*
X51999416Y-38100000D01*
X51979332Y-37881424D01*
X51970646Y-37850627D01*
X51921319Y-37675727D01*
X51921318Y-37675725D01*
X51919751Y-37670168D01*
X51911870Y-37654185D01*
X51825225Y-37478488D01*
X51822670Y-37473307D01*
X51816681Y-37465286D01*
X51694793Y-37302058D01*
X51694792Y-37302057D01*
X51691340Y-37297434D01*
X51588123Y-37202021D01*
X51534398Y-37152358D01*
X51534395Y-37152356D01*
X51530158Y-37148439D01*
X51344523Y-37031313D01*
X51140653Y-36949976D01*
X51134985Y-36948849D01*
X51134983Y-36948848D01*
X50931041Y-36908282D01*
X50931037Y-36908282D01*
X50925373Y-36907155D01*
X50919598Y-36907079D01*
X50919594Y-36907079D01*
X50808963Y-36905631D01*
X50705895Y-36904281D01*
X50700198Y-36905260D01*
X50700197Y-36905260D01*
X50495265Y-36940474D01*
X50489568Y-36941453D01*
X50283638Y-37017425D01*
X50278677Y-37020377D01*
X50278676Y-37020377D01*
X50099969Y-37126696D01*
X50099966Y-37126698D01*
X50095001Y-37129652D01*
X49929974Y-37274377D01*
X49794085Y-37446751D01*
X49791394Y-37451867D01*
X49791392Y-37451869D01*
X49730642Y-37567336D01*
X49691884Y-37641003D01*
X49690170Y-37646522D01*
X49690167Y-37646530D01*
X49650145Y-37775421D01*
X49610842Y-37834547D01*
X49545813Y-37863037D01*
X49475704Y-37851847D01*
X49422774Y-37804530D01*
X49408544Y-37772259D01*
X49381319Y-37675727D01*
X49381318Y-37675725D01*
X49379751Y-37670168D01*
X49371870Y-37654185D01*
X49285225Y-37478488D01*
X49282670Y-37473307D01*
X49276681Y-37465286D01*
X49154793Y-37302058D01*
X49154792Y-37302057D01*
X49151340Y-37297434D01*
X49048123Y-37202021D01*
X48994398Y-37152358D01*
X48994395Y-37152356D01*
X48990158Y-37148439D01*
X48804523Y-37031313D01*
X48600653Y-36949976D01*
X48594985Y-36948849D01*
X48594983Y-36948848D01*
X48391041Y-36908282D01*
X48391037Y-36908282D01*
X48385373Y-36907155D01*
X48379598Y-36907079D01*
X48379594Y-36907079D01*
X48268963Y-36905631D01*
X48165895Y-36904281D01*
X48160198Y-36905260D01*
X48160197Y-36905260D01*
X47955265Y-36940474D01*
X47949568Y-36941453D01*
X47743638Y-37017425D01*
X47738677Y-37020377D01*
X47738676Y-37020377D01*
X47559969Y-37126696D01*
X47559966Y-37126698D01*
X47555001Y-37129652D01*
X47389974Y-37274377D01*
X47254085Y-37446751D01*
X47251394Y-37451867D01*
X47251392Y-37451869D01*
X47190642Y-37567336D01*
X47151884Y-37641003D01*
X47150170Y-37646522D01*
X47150167Y-37646530D01*
X47110145Y-37775421D01*
X47070842Y-37834547D01*
X47005813Y-37863037D01*
X46935704Y-37851847D01*
X46882774Y-37804530D01*
X46868544Y-37772259D01*
X46841319Y-37675727D01*
X46841318Y-37675725D01*
X46839751Y-37670168D01*
X46831870Y-37654185D01*
X46745225Y-37478488D01*
X46742670Y-37473307D01*
X46736681Y-37465286D01*
X46614793Y-37302058D01*
X46614792Y-37302057D01*
X46611340Y-37297434D01*
X46508123Y-37202021D01*
X46454398Y-37152358D01*
X46454395Y-37152356D01*
X46450158Y-37148439D01*
X46264523Y-37031313D01*
X46060653Y-36949976D01*
X46054985Y-36948849D01*
X46054983Y-36948848D01*
X45851041Y-36908282D01*
X45851037Y-36908282D01*
X45845373Y-36907155D01*
X45839598Y-36907079D01*
X45839594Y-36907079D01*
X45728963Y-36905631D01*
X45625895Y-36904281D01*
X45620198Y-36905260D01*
X45620197Y-36905260D01*
X45415265Y-36940474D01*
X45409568Y-36941453D01*
X45203638Y-37017425D01*
X45198677Y-37020377D01*
X45198676Y-37020377D01*
X45019969Y-37126696D01*
X45019966Y-37126698D01*
X45015001Y-37129652D01*
X44849974Y-37274377D01*
X44714085Y-37446751D01*
X44711394Y-37451867D01*
X44711392Y-37451869D01*
X44650642Y-37567336D01*
X44611884Y-37641003D01*
X44610170Y-37646522D01*
X44610167Y-37646530D01*
X44570145Y-37775421D01*
X44530842Y-37834547D01*
X44465813Y-37863037D01*
X44395704Y-37851847D01*
X44342774Y-37804530D01*
X44328544Y-37772259D01*
X44301319Y-37675727D01*
X44301318Y-37675725D01*
X44299751Y-37670168D01*
X44291870Y-37654185D01*
X44205225Y-37478488D01*
X44202670Y-37473307D01*
X44196681Y-37465286D01*
X44074793Y-37302058D01*
X44074792Y-37302057D01*
X44071340Y-37297434D01*
X43968123Y-37202021D01*
X43914398Y-37152358D01*
X43914395Y-37152356D01*
X43910158Y-37148439D01*
X43724523Y-37031313D01*
X43520653Y-36949976D01*
X43514985Y-36948849D01*
X43514983Y-36948848D01*
X43311041Y-36908282D01*
X43311037Y-36908282D01*
X43305373Y-36907155D01*
X43299598Y-36907079D01*
X43299594Y-36907079D01*
X43188963Y-36905631D01*
X43085895Y-36904281D01*
X43080198Y-36905260D01*
X43080197Y-36905260D01*
X42875265Y-36940474D01*
X42869568Y-36941453D01*
X42663638Y-37017425D01*
X42658677Y-37020377D01*
X42658676Y-37020377D01*
X42479969Y-37126696D01*
X42479966Y-37126698D01*
X42475001Y-37129652D01*
X42309974Y-37274377D01*
X42174085Y-37446751D01*
X42171394Y-37451867D01*
X42171392Y-37451869D01*
X42110642Y-37567336D01*
X42071884Y-37641003D01*
X42070170Y-37646522D01*
X42070167Y-37646530D01*
X42030145Y-37775421D01*
X41990842Y-37834547D01*
X41925813Y-37863037D01*
X41855704Y-37851847D01*
X41802774Y-37804530D01*
X41788544Y-37772259D01*
X41761319Y-37675727D01*
X41761318Y-37675725D01*
X41759751Y-37670168D01*
X41751870Y-37654185D01*
X41665225Y-37478488D01*
X41662670Y-37473307D01*
X41656681Y-37465286D01*
X41534793Y-37302058D01*
X41534792Y-37302057D01*
X41531340Y-37297434D01*
X41428123Y-37202021D01*
X41374398Y-37152358D01*
X41374395Y-37152356D01*
X41370158Y-37148439D01*
X41184523Y-37031313D01*
X40980653Y-36949976D01*
X40974985Y-36948849D01*
X40974983Y-36948848D01*
X40771041Y-36908282D01*
X40771037Y-36908282D01*
X40765373Y-36907155D01*
X40759598Y-36907079D01*
X40759594Y-36907079D01*
X40648963Y-36905631D01*
X40545895Y-36904281D01*
X40540198Y-36905260D01*
X40540197Y-36905260D01*
X40335265Y-36940474D01*
X40329568Y-36941453D01*
X40123638Y-37017425D01*
X40118677Y-37020377D01*
X40118676Y-37020377D01*
X39939969Y-37126696D01*
X39939966Y-37126698D01*
X39935001Y-37129652D01*
X39769974Y-37274377D01*
X39634085Y-37446751D01*
X39631394Y-37451867D01*
X39631392Y-37451869D01*
X39570642Y-37567336D01*
X39531884Y-37641003D01*
X39530170Y-37646522D01*
X39530167Y-37646530D01*
X39490145Y-37775421D01*
X39450842Y-37834547D01*
X39385813Y-37863037D01*
X39315704Y-37851847D01*
X39262774Y-37804530D01*
X39248544Y-37772259D01*
X39221319Y-37675727D01*
X39221318Y-37675725D01*
X39219751Y-37670168D01*
X39211870Y-37654185D01*
X39125225Y-37478488D01*
X39122670Y-37473307D01*
X39116681Y-37465286D01*
X38994793Y-37302058D01*
X38994792Y-37302057D01*
X38991340Y-37297434D01*
X38888123Y-37202021D01*
X38834398Y-37152358D01*
X38834395Y-37152356D01*
X38830158Y-37148439D01*
X38644523Y-37031313D01*
X38440653Y-36949976D01*
X38434985Y-36948849D01*
X38434983Y-36948848D01*
X38231041Y-36908282D01*
X38231037Y-36908282D01*
X38225373Y-36907155D01*
X38219598Y-36907079D01*
X38219594Y-36907079D01*
X38108963Y-36905631D01*
X38005895Y-36904281D01*
X38000198Y-36905260D01*
X38000197Y-36905260D01*
X37795265Y-36940474D01*
X37789568Y-36941453D01*
X37583638Y-37017425D01*
X37578677Y-37020377D01*
X37578676Y-37020377D01*
X37399969Y-37126696D01*
X37399966Y-37126698D01*
X37395001Y-37129652D01*
X37229974Y-37274377D01*
X37094085Y-37446751D01*
X37091394Y-37451867D01*
X37091392Y-37451869D01*
X37030642Y-37567336D01*
X36991884Y-37641003D01*
X36990170Y-37646522D01*
X36990167Y-37646530D01*
X36950145Y-37775421D01*
X36910842Y-37834547D01*
X36845813Y-37863037D01*
X36775704Y-37851847D01*
X36722774Y-37804530D01*
X36708544Y-37772259D01*
X36681319Y-37675727D01*
X36681318Y-37675725D01*
X36679751Y-37670168D01*
X36671870Y-37654185D01*
X36585225Y-37478488D01*
X36582670Y-37473307D01*
X36576681Y-37465286D01*
X36454793Y-37302058D01*
X36454792Y-37302057D01*
X36451340Y-37297434D01*
X36348123Y-37202021D01*
X36294398Y-37152358D01*
X36294395Y-37152356D01*
X36290158Y-37148439D01*
X36104523Y-37031313D01*
X35900653Y-36949976D01*
X35894985Y-36948849D01*
X35894983Y-36948848D01*
X35691041Y-36908282D01*
X35691037Y-36908282D01*
X35685373Y-36907155D01*
X35679598Y-36907079D01*
X35679594Y-36907079D01*
X35568963Y-36905631D01*
X35465895Y-36904281D01*
X35460198Y-36905260D01*
X35460197Y-36905260D01*
X35255265Y-36940474D01*
X35249568Y-36941453D01*
X35190835Y-36963121D01*
X35097746Y-36997463D01*
X35026912Y-37002275D01*
X34965040Y-36968346D01*
X29626405Y-31629711D01*
X29592379Y-31567399D01*
X29589500Y-31540616D01*
X29589500Y-23937190D01*
X29609502Y-23869069D01*
X29663158Y-23822576D01*
X29733432Y-23812472D01*
X29785502Y-23832425D01*
X29907688Y-23914067D01*
X29912991Y-23916345D01*
X29912994Y-23916347D01*
X30104053Y-23998432D01*
X30109360Y-24000712D01*
X30323445Y-24049155D01*
X30329216Y-24049382D01*
X30329218Y-24049382D01*
X30402634Y-24052266D01*
X30542773Y-24057772D01*
X30634442Y-24044481D01*
X30754284Y-24027105D01*
X30754289Y-24027104D01*
X30759998Y-24026276D01*
X30765462Y-24024421D01*
X30765467Y-24024420D01*
X30918083Y-23972613D01*
X30967846Y-23955721D01*
X31159357Y-23848470D01*
X31163933Y-23844664D01*
X31164012Y-23844630D01*
X31168557Y-23841506D01*
X31169171Y-23842399D01*
X31229097Y-23816485D01*
X31299152Y-23828010D01*
X31351856Y-23875580D01*
X31370500Y-23941540D01*
X31370500Y-24513264D01*
X31350498Y-24581385D01*
X31296842Y-24627878D01*
X31288118Y-24631473D01*
X31106638Y-24698425D01*
X31101677Y-24701377D01*
X31101676Y-24701377D01*
X30922969Y-24807696D01*
X30922966Y-24807698D01*
X30918001Y-24810652D01*
X30752974Y-24955377D01*
X30617085Y-25127751D01*
X30614394Y-25132867D01*
X30614392Y-25132869D01*
X30520491Y-25311346D01*
X30514884Y-25322003D01*
X30449794Y-25531627D01*
X30423995Y-25749603D01*
X30438351Y-25968630D01*
X30492381Y-26181373D01*
X30584275Y-26380708D01*
X30587606Y-26385421D01*
X30587607Y-26385423D01*
X30640566Y-26460357D01*
X30710957Y-26559958D01*
X30868183Y-26713121D01*
X30872979Y-26716326D01*
X30872982Y-26716328D01*
X30946991Y-26765779D01*
X31050688Y-26835067D01*
X31055991Y-26837345D01*
X31055994Y-26837347D01*
X31147640Y-26876721D01*
X31252360Y-26921712D01*
X31466445Y-26970155D01*
X31472216Y-26970382D01*
X31472218Y-26970382D01*
X31545634Y-26973266D01*
X31685773Y-26978772D01*
X31777442Y-26965481D01*
X31897284Y-26948105D01*
X31897289Y-26948104D01*
X31902998Y-26947276D01*
X31908462Y-26945421D01*
X31908467Y-26945420D01*
X32105378Y-26878577D01*
X32110846Y-26876721D01*
X32302357Y-26769470D01*
X32471115Y-26629115D01*
X32611470Y-26460357D01*
X32718721Y-26268846D01*
X32774121Y-26105643D01*
X32814958Y-26047566D01*
X32880711Y-26020788D01*
X32950503Y-26033809D01*
X33002176Y-26082496D01*
X33015557Y-26115127D01*
X33032381Y-26181373D01*
X33124275Y-26380708D01*
X33127606Y-26385421D01*
X33127607Y-26385423D01*
X33180566Y-26460357D01*
X33250957Y-26559958D01*
X33408183Y-26713121D01*
X33412979Y-26716326D01*
X33412982Y-26716328D01*
X33486991Y-26765779D01*
X33590688Y-26835067D01*
X33595991Y-26837345D01*
X33595994Y-26837347D01*
X33687640Y-26876721D01*
X33792360Y-26921712D01*
X34006445Y-26970155D01*
X34012216Y-26970382D01*
X34012218Y-26970382D01*
X34085634Y-26973266D01*
X34225773Y-26978772D01*
X34317442Y-26965481D01*
X34437284Y-26948105D01*
X34437289Y-26948104D01*
X34442998Y-26947276D01*
X34448462Y-26945421D01*
X34448467Y-26945420D01*
X34645378Y-26878577D01*
X34650846Y-26876721D01*
X34842357Y-26769470D01*
X35011115Y-26629115D01*
X35151470Y-26460357D01*
X35258721Y-26268846D01*
X35288414Y-26181373D01*
X35327420Y-26066467D01*
X35327421Y-26066462D01*
X35329276Y-26060998D01*
X35330104Y-26055289D01*
X35330105Y-26055284D01*
X35357909Y-25863518D01*
X35360772Y-25843773D01*
X35362416Y-25781000D01*
X35359531Y-25749603D01*
X40837995Y-25749603D01*
X40852351Y-25968630D01*
X40906381Y-26181373D01*
X40998275Y-26380708D01*
X41001606Y-26385421D01*
X41001607Y-26385423D01*
X41054566Y-26460357D01*
X41124957Y-26559958D01*
X41282183Y-26713121D01*
X41286979Y-26716326D01*
X41286982Y-26716328D01*
X41360991Y-26765779D01*
X41464688Y-26835067D01*
X41469991Y-26837345D01*
X41469994Y-26837347D01*
X41561640Y-26876721D01*
X41666360Y-26921712D01*
X41880445Y-26970155D01*
X41886216Y-26970382D01*
X41886218Y-26970382D01*
X41959634Y-26973266D01*
X42099773Y-26978772D01*
X42191442Y-26965481D01*
X42311284Y-26948105D01*
X42311289Y-26948104D01*
X42316998Y-26947276D01*
X42322462Y-26945421D01*
X42322467Y-26945420D01*
X42519378Y-26878577D01*
X42524846Y-26876721D01*
X42716357Y-26769470D01*
X42885115Y-26629115D01*
X43025470Y-26460357D01*
X43132721Y-26268846D01*
X43188121Y-26105643D01*
X43228958Y-26047566D01*
X43294711Y-26020788D01*
X43364503Y-26033809D01*
X43416176Y-26082496D01*
X43429557Y-26115127D01*
X43446381Y-26181373D01*
X43538275Y-26380708D01*
X43541606Y-26385421D01*
X43541607Y-26385423D01*
X43594566Y-26460357D01*
X43664957Y-26559958D01*
X43822183Y-26713121D01*
X43826979Y-26716326D01*
X43826982Y-26716328D01*
X43900991Y-26765779D01*
X44004688Y-26835067D01*
X44009991Y-26837345D01*
X44009994Y-26837347D01*
X44101640Y-26876721D01*
X44206360Y-26921712D01*
X44420445Y-26970155D01*
X44426216Y-26970382D01*
X44426218Y-26970382D01*
X44499634Y-26973266D01*
X44639773Y-26978772D01*
X44731442Y-26965481D01*
X44851284Y-26948105D01*
X44851289Y-26948104D01*
X44856998Y-26947276D01*
X44862462Y-26945421D01*
X44862467Y-26945420D01*
X45059378Y-26878577D01*
X45064846Y-26876721D01*
X45256357Y-26769470D01*
X45425115Y-26629115D01*
X45565470Y-26460357D01*
X45672721Y-26268846D01*
X45702414Y-26181373D01*
X45741420Y-26066467D01*
X45741421Y-26066462D01*
X45743276Y-26060998D01*
X45744104Y-26055289D01*
X45744105Y-26055284D01*
X45771909Y-25863518D01*
X45774772Y-25843773D01*
X45776416Y-25781000D01*
X45760647Y-25609385D01*
X45756861Y-25568178D01*
X45756860Y-25568175D01*
X45756332Y-25562424D01*
X45744360Y-25519976D01*
X45698319Y-25356727D01*
X45698318Y-25356725D01*
X45696751Y-25351168D01*
X45694031Y-25345651D01*
X45602225Y-25159488D01*
X45599670Y-25154307D01*
X45575015Y-25121289D01*
X45471793Y-24983058D01*
X45471792Y-24983057D01*
X45468340Y-24978434D01*
X45307158Y-24829439D01*
X45121523Y-24712313D01*
X44917653Y-24630976D01*
X44911985Y-24629849D01*
X44911983Y-24629848D01*
X44708041Y-24589282D01*
X44708037Y-24589282D01*
X44702373Y-24588155D01*
X44696598Y-24588079D01*
X44696594Y-24588079D01*
X44585963Y-24586631D01*
X44482895Y-24585281D01*
X44477198Y-24586260D01*
X44477197Y-24586260D01*
X44324502Y-24612498D01*
X44266568Y-24622453D01*
X44060638Y-24698425D01*
X44055677Y-24701377D01*
X44055676Y-24701377D01*
X43876969Y-24807696D01*
X43876966Y-24807698D01*
X43872001Y-24810652D01*
X43706974Y-24955377D01*
X43571085Y-25127751D01*
X43568394Y-25132867D01*
X43568392Y-25132869D01*
X43474491Y-25311346D01*
X43468884Y-25322003D01*
X43467171Y-25327521D01*
X43467167Y-25327530D01*
X43427145Y-25456421D01*
X43387842Y-25515547D01*
X43322813Y-25544037D01*
X43252704Y-25532847D01*
X43199774Y-25485530D01*
X43185544Y-25453259D01*
X43158319Y-25356727D01*
X43158318Y-25356725D01*
X43156751Y-25351168D01*
X43154031Y-25345651D01*
X43062225Y-25159488D01*
X43059670Y-25154307D01*
X43035015Y-25121289D01*
X42931793Y-24983058D01*
X42931792Y-24983057D01*
X42928340Y-24978434D01*
X42767158Y-24829439D01*
X42581523Y-24712313D01*
X42377653Y-24630976D01*
X42371985Y-24629849D01*
X42371983Y-24629848D01*
X42168041Y-24589282D01*
X42168037Y-24589282D01*
X42162373Y-24588155D01*
X42156598Y-24588079D01*
X42156594Y-24588079D01*
X42045963Y-24586631D01*
X41942895Y-24585281D01*
X41937198Y-24586260D01*
X41937197Y-24586260D01*
X41784502Y-24612498D01*
X41726568Y-24622453D01*
X41520638Y-24698425D01*
X41515677Y-24701377D01*
X41515676Y-24701377D01*
X41336969Y-24807696D01*
X41336966Y-24807698D01*
X41332001Y-24810652D01*
X41166974Y-24955377D01*
X41031085Y-25127751D01*
X41028394Y-25132867D01*
X41028392Y-25132869D01*
X40934491Y-25311346D01*
X40928884Y-25322003D01*
X40863794Y-25531627D01*
X40837995Y-25749603D01*
X35359531Y-25749603D01*
X35346647Y-25609385D01*
X35342861Y-25568178D01*
X35342860Y-25568175D01*
X35342332Y-25562424D01*
X35330360Y-25519976D01*
X35284319Y-25356727D01*
X35284318Y-25356725D01*
X35282751Y-25351168D01*
X35280031Y-25345651D01*
X35188225Y-25159488D01*
X35185670Y-25154307D01*
X35161015Y-25121289D01*
X35057793Y-24983058D01*
X35057792Y-24983057D01*
X35054340Y-24978434D01*
X34893158Y-24829439D01*
X34728265Y-24725400D01*
X34681327Y-24672134D01*
X34669500Y-24618838D01*
X34669500Y-23937190D01*
X34689502Y-23869069D01*
X34743158Y-23822576D01*
X34813432Y-23812472D01*
X34865502Y-23832425D01*
X34987688Y-23914067D01*
X34992991Y-23916345D01*
X34992994Y-23916347D01*
X35184053Y-23998432D01*
X35189360Y-24000712D01*
X35403445Y-24049155D01*
X35409216Y-24049382D01*
X35409218Y-24049382D01*
X35482634Y-24052266D01*
X35622773Y-24057772D01*
X35714442Y-24044481D01*
X35834284Y-24027105D01*
X35834289Y-24027104D01*
X35839998Y-24026276D01*
X35845462Y-24024421D01*
X35845467Y-24024420D01*
X35998083Y-23972613D01*
X36047846Y-23955721D01*
X36239357Y-23848470D01*
X36408115Y-23708115D01*
X36548470Y-23539357D01*
X36655721Y-23347846D01*
X36711121Y-23184643D01*
X36751958Y-23126566D01*
X36817711Y-23099788D01*
X36887503Y-23112809D01*
X36939176Y-23161496D01*
X36952557Y-23194127D01*
X36969381Y-23260373D01*
X37061275Y-23459708D01*
X37064606Y-23464421D01*
X37064607Y-23464423D01*
X37117566Y-23539357D01*
X37187957Y-23638958D01*
X37345183Y-23792121D01*
X37349979Y-23795326D01*
X37349982Y-23795328D01*
X37486228Y-23886364D01*
X37527688Y-23914067D01*
X37532991Y-23916345D01*
X37532994Y-23916347D01*
X37724053Y-23998432D01*
X37729360Y-24000712D01*
X37943445Y-24049155D01*
X37949216Y-24049382D01*
X37949218Y-24049382D01*
X38022634Y-24052266D01*
X38162773Y-24057772D01*
X38254442Y-24044481D01*
X38374284Y-24027105D01*
X38374289Y-24027104D01*
X38379998Y-24026276D01*
X38385462Y-24024421D01*
X38385467Y-24024420D01*
X38538083Y-23972613D01*
X38587846Y-23955721D01*
X38779357Y-23848470D01*
X38948115Y-23708115D01*
X39088470Y-23539357D01*
X39195721Y-23347846D01*
X39251121Y-23184643D01*
X39291958Y-23126566D01*
X39357711Y-23099788D01*
X39427503Y-23112809D01*
X39479176Y-23161496D01*
X39492557Y-23194127D01*
X39509381Y-23260373D01*
X39601275Y-23459708D01*
X39604606Y-23464421D01*
X39604607Y-23464423D01*
X39657566Y-23539357D01*
X39727957Y-23638958D01*
X39885183Y-23792121D01*
X39889979Y-23795326D01*
X39889982Y-23795328D01*
X40026228Y-23886364D01*
X40067688Y-23914067D01*
X40072991Y-23916345D01*
X40072994Y-23916347D01*
X40264053Y-23998432D01*
X40269360Y-24000712D01*
X40483445Y-24049155D01*
X40489216Y-24049382D01*
X40489218Y-24049382D01*
X40562634Y-24052266D01*
X40702773Y-24057772D01*
X40794442Y-24044481D01*
X40914284Y-24027105D01*
X40914289Y-24027104D01*
X40919998Y-24026276D01*
X40925462Y-24024421D01*
X40925467Y-24024420D01*
X41078083Y-23972613D01*
X41127846Y-23955721D01*
X41319357Y-23848470D01*
X41488115Y-23708115D01*
X41628470Y-23539357D01*
X41735721Y-23347846D01*
X41791121Y-23184643D01*
X41831958Y-23126566D01*
X41897711Y-23099788D01*
X41967503Y-23112809D01*
X42019176Y-23161496D01*
X42032557Y-23194127D01*
X42049381Y-23260373D01*
X42141275Y-23459708D01*
X42144606Y-23464421D01*
X42144607Y-23464423D01*
X42197566Y-23539357D01*
X42267957Y-23638958D01*
X42425183Y-23792121D01*
X42429979Y-23795326D01*
X42429982Y-23795328D01*
X42566228Y-23886364D01*
X42607688Y-23914067D01*
X42612991Y-23916345D01*
X42612994Y-23916347D01*
X42804053Y-23998432D01*
X42809360Y-24000712D01*
X43023445Y-24049155D01*
X43029216Y-24049382D01*
X43029218Y-24049382D01*
X43102634Y-24052266D01*
X43242773Y-24057772D01*
X43334442Y-24044481D01*
X43454284Y-24027105D01*
X43454289Y-24027104D01*
X43459998Y-24026276D01*
X43465462Y-24024421D01*
X43465467Y-24024420D01*
X43618083Y-23972613D01*
X43667846Y-23955721D01*
X43859357Y-23848470D01*
X44028115Y-23708115D01*
X44168470Y-23539357D01*
X44275721Y-23347846D01*
X44331121Y-23184643D01*
X44371958Y-23126566D01*
X44437711Y-23099788D01*
X44507503Y-23112809D01*
X44559176Y-23161496D01*
X44572557Y-23194127D01*
X44589381Y-23260373D01*
X44681275Y-23459708D01*
X44684606Y-23464421D01*
X44684607Y-23464423D01*
X44737566Y-23539357D01*
X44807957Y-23638958D01*
X44965183Y-23792121D01*
X44969979Y-23795326D01*
X44969982Y-23795328D01*
X45106228Y-23886364D01*
X45147688Y-23914067D01*
X45152991Y-23916345D01*
X45152994Y-23916347D01*
X45344053Y-23998432D01*
X45349360Y-24000712D01*
X45563445Y-24049155D01*
X45569216Y-24049382D01*
X45569218Y-24049382D01*
X45642634Y-24052266D01*
X45782773Y-24057772D01*
X45874442Y-24044481D01*
X45994284Y-24027105D01*
X45994289Y-24027104D01*
X45999998Y-24026276D01*
X46005462Y-24024421D01*
X46005467Y-24024420D01*
X46158083Y-23972613D01*
X46207846Y-23955721D01*
X46399357Y-23848470D01*
X46568115Y-23708115D01*
X46708470Y-23539357D01*
X46815721Y-23347846D01*
X46871121Y-23184643D01*
X46911958Y-23126566D01*
X46977711Y-23099788D01*
X47047503Y-23112809D01*
X47099176Y-23161496D01*
X47112557Y-23194127D01*
X47129381Y-23260373D01*
X47221275Y-23459708D01*
X47224606Y-23464421D01*
X47224607Y-23464423D01*
X47277566Y-23539357D01*
X47347957Y-23638958D01*
X47505183Y-23792121D01*
X47509979Y-23795326D01*
X47509982Y-23795328D01*
X47646228Y-23886364D01*
X47687688Y-23914067D01*
X47692991Y-23916345D01*
X47692994Y-23916347D01*
X47884053Y-23998432D01*
X47889360Y-24000712D01*
X48103445Y-24049155D01*
X48109216Y-24049382D01*
X48109218Y-24049382D01*
X48182634Y-24052266D01*
X48322773Y-24057772D01*
X48414442Y-24044481D01*
X48534284Y-24027105D01*
X48534289Y-24027104D01*
X48539998Y-24026276D01*
X48545462Y-24024421D01*
X48545467Y-24024420D01*
X48698083Y-23972613D01*
X48747846Y-23955721D01*
X48939357Y-23848470D01*
X49108115Y-23708115D01*
X49248470Y-23539357D01*
X49355721Y-23347846D01*
X49411121Y-23184643D01*
X49451958Y-23126566D01*
X49517711Y-23099788D01*
X49587503Y-23112809D01*
X49639176Y-23161496D01*
X49652557Y-23194127D01*
X49669381Y-23260373D01*
X49761275Y-23459708D01*
X49764606Y-23464421D01*
X49764607Y-23464423D01*
X49817566Y-23539357D01*
X49887957Y-23638958D01*
X50045183Y-23792121D01*
X50049979Y-23795326D01*
X50049982Y-23795328D01*
X50186228Y-23886364D01*
X50227688Y-23914067D01*
X50232991Y-23916345D01*
X50232994Y-23916347D01*
X50424053Y-23998432D01*
X50429360Y-24000712D01*
X50643445Y-24049155D01*
X50649216Y-24049382D01*
X50649218Y-24049382D01*
X50722634Y-24052266D01*
X50862773Y-24057772D01*
X50954442Y-24044481D01*
X51074284Y-24027105D01*
X51074289Y-24027104D01*
X51079998Y-24026276D01*
X51085462Y-24024421D01*
X51085467Y-24024420D01*
X51266795Y-23962867D01*
X51337730Y-23959911D01*
X51396391Y-23993085D01*
X52923595Y-25520290D01*
X52957621Y-25582602D01*
X52960500Y-25609385D01*
X52960500Y-39160616D01*
X52940498Y-39228737D01*
X52923595Y-39249711D01*
X40519711Y-51653595D01*
X40457399Y-51687621D01*
X40430616Y-51690500D01*
X33073920Y-51690500D01*
X33049972Y-51687951D01*
X33048307Y-51687872D01*
X33038124Y-51685680D01*
X33027783Y-51686904D01*
X33004777Y-51689627D01*
X32998846Y-51689977D01*
X32998854Y-51690072D01*
X32993676Y-51690500D01*
X32988476Y-51690500D01*
X32983347Y-51691354D01*
X32983344Y-51691354D01*
X32969435Y-51693669D01*
X32963557Y-51694506D01*
X32922999Y-51699306D01*
X32922998Y-51699306D01*
X32912659Y-51700530D01*
X32904407Y-51704493D01*
X32895374Y-51705996D01*
X32886205Y-51710943D01*
X32886203Y-51710944D01*
X32850268Y-51730334D01*
X32844975Y-51733031D01*
X32805918Y-51751785D01*
X32805914Y-51751788D01*
X32798768Y-51755219D01*
X32794492Y-51758814D01*
X32792569Y-51760737D01*
X32790637Y-51762509D01*
X32790558Y-51762552D01*
X32790445Y-51762428D01*
X32789905Y-51762904D01*
X32784186Y-51765990D01*
X32777119Y-51773635D01*
X32747584Y-51805586D01*
X32744154Y-51809152D01*
X25374711Y-59178595D01*
X25312399Y-59212621D01*
X25285616Y-59215500D01*
X25250230Y-59215500D01*
X25182109Y-59195498D01*
X25138982Y-59148657D01*
X25075761Y-59029756D01*
X25071871Y-59024986D01*
X25071868Y-59024982D01*
X24953663Y-58880049D01*
X24953660Y-58880046D01*
X24949768Y-58875274D01*
X24897734Y-58832227D01*
X24800919Y-58752135D01*
X24796170Y-58748206D01*
X24620815Y-58653392D01*
X24430385Y-58594444D01*
X24424260Y-58593800D01*
X24424259Y-58593800D01*
X24264633Y-58577023D01*
X24227844Y-58561887D01*
X24201661Y-58575649D01*
X24188256Y-58577600D01*
X24158627Y-58580296D01*
X24039746Y-58591115D01*
X24039745Y-58591115D01*
X24033605Y-58591674D01*
X24027691Y-58593415D01*
X24027689Y-58593415D01*
X23897539Y-58631721D01*
X23842370Y-58647958D01*
X23665709Y-58740314D01*
X23660909Y-58744174D01*
X23660908Y-58744174D01*
X23655893Y-58748206D01*
X23510351Y-58865225D01*
X23382214Y-59017933D01*
X23286179Y-59192621D01*
X23284318Y-59198488D01*
X23284317Y-59198490D01*
X23278921Y-59215500D01*
X23225902Y-59382635D01*
X23203682Y-59580739D01*
X23220362Y-59779386D01*
X23242551Y-59856768D01*
X23272717Y-59961966D01*
X23275310Y-59971009D01*
X23366430Y-60148311D01*
X23490253Y-60304537D01*
X23494946Y-60308531D01*
X23494947Y-60308532D01*
X23507746Y-60319425D01*
X23530132Y-60338476D01*
X23553714Y-60358546D01*
X23592627Y-60417928D01*
X23593258Y-60488922D01*
X23555407Y-60548987D01*
X23491091Y-60579053D01*
X23472051Y-60580500D01*
X18179384Y-60580500D01*
X18111263Y-60560498D01*
X18090289Y-60543595D01*
X15660471Y-58113777D01*
X23530777Y-58113777D01*
X23540074Y-58125793D01*
X23583069Y-58155898D01*
X23592555Y-58161376D01*
X23783993Y-58250645D01*
X23794285Y-58254391D01*
X23998309Y-58309059D01*
X24009104Y-58310962D01*
X24187817Y-58326598D01*
X24227012Y-58341930D01*
X24255136Y-58327769D01*
X24266821Y-58326192D01*
X24440896Y-58310962D01*
X24451691Y-58309059D01*
X24655715Y-58254391D01*
X24666007Y-58250645D01*
X24857445Y-58161376D01*
X24866931Y-58155898D01*
X24910764Y-58125207D01*
X24919139Y-58114729D01*
X24912071Y-58101281D01*
X24237812Y-57427022D01*
X24223868Y-57419408D01*
X24222035Y-57419539D01*
X24215420Y-57423790D01*
X23537207Y-58102003D01*
X23530777Y-58113777D01*
X15660471Y-58113777D01*
X14607169Y-57060475D01*
X22950628Y-57060475D01*
X22969038Y-57270896D01*
X22970941Y-57281691D01*
X23025609Y-57485715D01*
X23029355Y-57496007D01*
X23118623Y-57687441D01*
X23124103Y-57696932D01*
X23154794Y-57740765D01*
X23165271Y-57749140D01*
X23178718Y-57742072D01*
X23852978Y-57067812D01*
X23859356Y-57056132D01*
X24589408Y-57056132D01*
X24589539Y-57057965D01*
X24593790Y-57064580D01*
X25272003Y-57742793D01*
X25283777Y-57749223D01*
X25295793Y-57739926D01*
X25325897Y-57696932D01*
X25331377Y-57687441D01*
X25420645Y-57496007D01*
X25424391Y-57485715D01*
X25479059Y-57281691D01*
X25480962Y-57270896D01*
X25499372Y-57060475D01*
X25499372Y-57049525D01*
X25480962Y-56839104D01*
X25479059Y-56828309D01*
X25424391Y-56624285D01*
X25420645Y-56613993D01*
X25331377Y-56422559D01*
X25325897Y-56413068D01*
X25295206Y-56369235D01*
X25284729Y-56360860D01*
X25271282Y-56367928D01*
X24597022Y-57042188D01*
X24589408Y-57056132D01*
X23859356Y-57056132D01*
X23860592Y-57053868D01*
X23860461Y-57052035D01*
X23856210Y-57045420D01*
X23177997Y-56367207D01*
X23166223Y-56360777D01*
X23154207Y-56370074D01*
X23124103Y-56413068D01*
X23118623Y-56422559D01*
X23029355Y-56613993D01*
X23025609Y-56624285D01*
X22970941Y-56828309D01*
X22969038Y-56839104D01*
X22950628Y-57049525D01*
X22950628Y-57060475D01*
X14607169Y-57060475D01*
X13541965Y-55995271D01*
X23530860Y-55995271D01*
X23537928Y-56008718D01*
X24212188Y-56682978D01*
X24226132Y-56690592D01*
X24227965Y-56690461D01*
X24234580Y-56686210D01*
X24912793Y-56007997D01*
X24919223Y-55996223D01*
X24909926Y-55984207D01*
X24866931Y-55954102D01*
X24857445Y-55948624D01*
X24666007Y-55859355D01*
X24655715Y-55855609D01*
X24451691Y-55800941D01*
X24440895Y-55799037D01*
X24258131Y-55783048D01*
X24219210Y-55767824D01*
X24188030Y-55782982D01*
X24178078Y-55784254D01*
X24009104Y-55799038D01*
X23998309Y-55800941D01*
X23794285Y-55855609D01*
X23783993Y-55859355D01*
X23592559Y-55948623D01*
X23583068Y-55954103D01*
X23539235Y-55984794D01*
X23530860Y-55995271D01*
X13541965Y-55995271D01*
X12517889Y-54971195D01*
X12483863Y-54908883D01*
X12487425Y-54842329D01*
X12508354Y-54779414D01*
X12521035Y-54741294D01*
X12527105Y-54693247D01*
X12545578Y-54547023D01*
X12545579Y-54547013D01*
X12546020Y-54543520D01*
X12546418Y-54515000D01*
X12526965Y-54316606D01*
X12525184Y-54310707D01*
X12525183Y-54310702D01*
X12471129Y-54131667D01*
X12469348Y-54125768D01*
X12375761Y-53949756D01*
X12371871Y-53944986D01*
X12371868Y-53944982D01*
X12253663Y-53800049D01*
X12253660Y-53800046D01*
X12249768Y-53795274D01*
X12096170Y-53668206D01*
X11920815Y-53573392D01*
X11730385Y-53514444D01*
X11724260Y-53513800D01*
X11724259Y-53513800D01*
X11538260Y-53494251D01*
X11538258Y-53494251D01*
X11532131Y-53493607D01*
X11409252Y-53504790D01*
X11339746Y-53511115D01*
X11339745Y-53511115D01*
X11333605Y-53511674D01*
X11327691Y-53513415D01*
X11327689Y-53513415D01*
X11197539Y-53551721D01*
X11142370Y-53567958D01*
X10965709Y-53660314D01*
X10960909Y-53664174D01*
X10960908Y-53664174D01*
X10955893Y-53668206D01*
X10810351Y-53785225D01*
X10682214Y-53937933D01*
X10586179Y-54112621D01*
X10584318Y-54118488D01*
X10584317Y-54118490D01*
X10578921Y-54135500D01*
X10525902Y-54302635D01*
X10503682Y-54500739D01*
X10520362Y-54699386D01*
X10542288Y-54775848D01*
X10572717Y-54881966D01*
X10575310Y-54891009D01*
X10666430Y-55068311D01*
X10790253Y-55224537D01*
X10942063Y-55353737D01*
X10947441Y-55356743D01*
X10947443Y-55356744D01*
X10989397Y-55380191D01*
X11116076Y-55450989D01*
X11121935Y-55452893D01*
X11121938Y-55452894D01*
X11157701Y-55464514D01*
X11305665Y-55512591D01*
X11311775Y-55513320D01*
X11311777Y-55513320D01*
X11379314Y-55521373D01*
X11503609Y-55536194D01*
X11509744Y-55535722D01*
X11509746Y-55535722D01*
X11696226Y-55521373D01*
X11696231Y-55521372D01*
X11702367Y-55520900D01*
X11708297Y-55519244D01*
X11708299Y-55519244D01*
X11859593Y-55477002D01*
X11930584Y-55477949D01*
X11982572Y-55509266D01*
X17663522Y-61190216D01*
X17678664Y-61208964D01*
X17679779Y-61210189D01*
X17685429Y-61218940D01*
X17693607Y-61225387D01*
X17693609Y-61225389D01*
X17711800Y-61239729D01*
X17716244Y-61243678D01*
X17716306Y-61243604D01*
X17720263Y-61246957D01*
X17723944Y-61250638D01*
X17739654Y-61261865D01*
X17744380Y-61265413D01*
X17784647Y-61297156D01*
X17793284Y-61300189D01*
X17800734Y-61305513D01*
X17810710Y-61308497D01*
X17810711Y-61308497D01*
X17826046Y-61313083D01*
X17849849Y-61320202D01*
X17855486Y-61322034D01*
X17893853Y-61335507D01*
X17903851Y-61339018D01*
X17909416Y-61339500D01*
X17912124Y-61339500D01*
X17914758Y-61339614D01*
X17914856Y-61339643D01*
X17914849Y-61339807D01*
X17915553Y-61339851D01*
X17921778Y-61341713D01*
X17975635Y-61339597D01*
X17980582Y-61339500D01*
X22996878Y-61339500D01*
X23064999Y-61359502D01*
X23111492Y-61413158D01*
X23121596Y-61483432D01*
X23111073Y-61518750D01*
X23029355Y-61693993D01*
X23025609Y-61704285D01*
X22970941Y-61908309D01*
X22969038Y-61919104D01*
X22950628Y-62129525D01*
X22950628Y-62140475D01*
X22969038Y-62350896D01*
X22970941Y-62361691D01*
X23025609Y-62565715D01*
X23029355Y-62576007D01*
X23069809Y-62662761D01*
X23080470Y-62732953D01*
X23051490Y-62797766D01*
X22992070Y-62836622D01*
X22955614Y-62842011D01*
X17900895Y-62842011D01*
X17832774Y-62822009D01*
X17811800Y-62805106D01*
X12517889Y-57511195D01*
X12483863Y-57448883D01*
X12487425Y-57382329D01*
X12519090Y-57287140D01*
X12521035Y-57281294D01*
X12527105Y-57233247D01*
X12545578Y-57087023D01*
X12545579Y-57087013D01*
X12546020Y-57083520D01*
X12546418Y-57055000D01*
X12526965Y-56856606D01*
X12525184Y-56850707D01*
X12525183Y-56850702D01*
X12471129Y-56671667D01*
X12469348Y-56665768D01*
X12375761Y-56489756D01*
X12371871Y-56484986D01*
X12371868Y-56484982D01*
X12253663Y-56340049D01*
X12253660Y-56340046D01*
X12249768Y-56335274D01*
X12096170Y-56208206D01*
X11920815Y-56113392D01*
X11730385Y-56054444D01*
X11724260Y-56053800D01*
X11724259Y-56053800D01*
X11538260Y-56034251D01*
X11538258Y-56034251D01*
X11532131Y-56033607D01*
X11409252Y-56044790D01*
X11339746Y-56051115D01*
X11339745Y-56051115D01*
X11333605Y-56051674D01*
X11327691Y-56053415D01*
X11327689Y-56053415D01*
X11197539Y-56091721D01*
X11142370Y-56107958D01*
X10965709Y-56200314D01*
X10960909Y-56204174D01*
X10960908Y-56204174D01*
X10955893Y-56208206D01*
X10810351Y-56325225D01*
X10682214Y-56477933D01*
X10586179Y-56652621D01*
X10525902Y-56842635D01*
X10503682Y-57040739D01*
X354000Y-57040739D01*
X354000Y-51960739D01*
X10503682Y-51960739D01*
X10520362Y-52159386D01*
X10532379Y-52201294D01*
X10570036Y-52332615D01*
X10575310Y-52351009D01*
X10666430Y-52528311D01*
X10790253Y-52684537D01*
X10942063Y-52813737D01*
X10947441Y-52816743D01*
X10947443Y-52816744D01*
X10989397Y-52840191D01*
X11116076Y-52910989D01*
X11121935Y-52912893D01*
X11121938Y-52912894D01*
X11157701Y-52924514D01*
X11305665Y-52972591D01*
X11311775Y-52973320D01*
X11311777Y-52973320D01*
X11379314Y-52981373D01*
X11503609Y-52996194D01*
X11509744Y-52995722D01*
X11509746Y-52995722D01*
X11696226Y-52981373D01*
X11696231Y-52981372D01*
X11702367Y-52980900D01*
X11708297Y-52979244D01*
X11708299Y-52979244D01*
X11798369Y-52954096D01*
X11894370Y-52927292D01*
X11899870Y-52924514D01*
X12066802Y-52840191D01*
X12066804Y-52840190D01*
X12072303Y-52837412D01*
X12229390Y-52714682D01*
X12251962Y-52688532D01*
X12355618Y-52568446D01*
X12355619Y-52568444D01*
X12359647Y-52563778D01*
X12458112Y-52390448D01*
X12521035Y-52201294D01*
X12527105Y-52153247D01*
X12545578Y-52007023D01*
X12545579Y-52007013D01*
X12546020Y-52003520D01*
X12546418Y-51975000D01*
X12545020Y-51960739D01*
X23203682Y-51960739D01*
X23220362Y-52159386D01*
X23232379Y-52201294D01*
X23270036Y-52332615D01*
X23275310Y-52351009D01*
X23366430Y-52528311D01*
X23490253Y-52684537D01*
X23642063Y-52813737D01*
X23647441Y-52816743D01*
X23647443Y-52816744D01*
X23689397Y-52840191D01*
X23816076Y-52910989D01*
X23821935Y-52912893D01*
X23821938Y-52912894D01*
X23857701Y-52924514D01*
X24005665Y-52972591D01*
X24011775Y-52973320D01*
X24011777Y-52973320D01*
X24079314Y-52981373D01*
X24203609Y-52996194D01*
X24209744Y-52995722D01*
X24209746Y-52995722D01*
X24396226Y-52981373D01*
X24396231Y-52981372D01*
X24402367Y-52980900D01*
X24408297Y-52979244D01*
X24408299Y-52979244D01*
X24498369Y-52954096D01*
X24594370Y-52927292D01*
X24599870Y-52924514D01*
X24766802Y-52840191D01*
X24766804Y-52840190D01*
X24772303Y-52837412D01*
X24929390Y-52714682D01*
X24951962Y-52688532D01*
X25055618Y-52568446D01*
X25055619Y-52568444D01*
X25059647Y-52563778D01*
X25158112Y-52390448D01*
X25221035Y-52201294D01*
X25227105Y-52153247D01*
X25245578Y-52007023D01*
X25245579Y-52007013D01*
X25246020Y-52003520D01*
X25246418Y-51975000D01*
X25226965Y-51776606D01*
X25225184Y-51770707D01*
X25225183Y-51770702D01*
X25171129Y-51591667D01*
X25169348Y-51585768D01*
X25075761Y-51409756D01*
X25071871Y-51404986D01*
X25071868Y-51404982D01*
X24953663Y-51260049D01*
X24953660Y-51260046D01*
X24949768Y-51255274D01*
X24796170Y-51128206D01*
X24620815Y-51033392D01*
X24430385Y-50974444D01*
X24424260Y-50973800D01*
X24424259Y-50973800D01*
X24238260Y-50954251D01*
X24238258Y-50954251D01*
X24232131Y-50953607D01*
X24109252Y-50964790D01*
X24039746Y-50971115D01*
X24039745Y-50971115D01*
X24033605Y-50971674D01*
X24027691Y-50973415D01*
X24027689Y-50973415D01*
X23897539Y-51011721D01*
X23842370Y-51027958D01*
X23665709Y-51120314D01*
X23660909Y-51124174D01*
X23660908Y-51124174D01*
X23655893Y-51128206D01*
X23510351Y-51245225D01*
X23382214Y-51397933D01*
X23286179Y-51572621D01*
X23225902Y-51762635D01*
X23203682Y-51960739D01*
X12545020Y-51960739D01*
X12526965Y-51776606D01*
X12525184Y-51770707D01*
X12525183Y-51770702D01*
X12471129Y-51591667D01*
X12469348Y-51585768D01*
X12375761Y-51409756D01*
X12371871Y-51404986D01*
X12371868Y-51404982D01*
X12253663Y-51260049D01*
X12253660Y-51260046D01*
X12249768Y-51255274D01*
X12096170Y-51128206D01*
X11920815Y-51033392D01*
X11730385Y-50974444D01*
X11724260Y-50973800D01*
X11724259Y-50973800D01*
X11564633Y-50957023D01*
X11527844Y-50941887D01*
X11501661Y-50955649D01*
X11488255Y-50957600D01*
X11339746Y-50971115D01*
X11339745Y-50971115D01*
X11333605Y-50971674D01*
X11327691Y-50973415D01*
X11327689Y-50973415D01*
X11197539Y-51011721D01*
X11142370Y-51027958D01*
X10965709Y-51120314D01*
X10960909Y-51124174D01*
X10960908Y-51124174D01*
X10955893Y-51128206D01*
X10810351Y-51245225D01*
X10682214Y-51397933D01*
X10586179Y-51572621D01*
X10525902Y-51762635D01*
X10503682Y-51960739D01*
X354000Y-51960739D01*
X354000Y-50493777D01*
X10830777Y-50493777D01*
X10840074Y-50505793D01*
X10883069Y-50535898D01*
X10892555Y-50541376D01*
X11083993Y-50630645D01*
X11094285Y-50634391D01*
X11298309Y-50689059D01*
X11309104Y-50690962D01*
X11487817Y-50706598D01*
X11527012Y-50721930D01*
X11555136Y-50707769D01*
X11566821Y-50706192D01*
X11740896Y-50690962D01*
X11751691Y-50689059D01*
X11955715Y-50634391D01*
X11966007Y-50630645D01*
X12157445Y-50541376D01*
X12166931Y-50535898D01*
X12210764Y-50505207D01*
X12219139Y-50494729D01*
X12212071Y-50481281D01*
X11537812Y-49807022D01*
X11523868Y-49799408D01*
X11522035Y-49799539D01*
X11515420Y-49803790D01*
X10837207Y-50482003D01*
X10830777Y-50493777D01*
X354000Y-50493777D01*
X354000Y-49440475D01*
X10250628Y-49440475D01*
X10269038Y-49650896D01*
X10270941Y-49661691D01*
X10325609Y-49865715D01*
X10329355Y-49876007D01*
X10418623Y-50067441D01*
X10424103Y-50076932D01*
X10454794Y-50120765D01*
X10465271Y-50129140D01*
X10478718Y-50122072D01*
X11152978Y-49447812D01*
X11159356Y-49436132D01*
X11889408Y-49436132D01*
X11889539Y-49437965D01*
X11893790Y-49444580D01*
X12572003Y-50122793D01*
X12583777Y-50129223D01*
X12595793Y-50119926D01*
X12625897Y-50076932D01*
X12631377Y-50067441D01*
X12720645Y-49876007D01*
X12724391Y-49865715D01*
X12779059Y-49661691D01*
X12780962Y-49650896D01*
X12799372Y-49440475D01*
X12799372Y-49429525D01*
X12780962Y-49219104D01*
X12779059Y-49208309D01*
X12724391Y-49004285D01*
X12720645Y-48993993D01*
X12631377Y-48802559D01*
X12625897Y-48793068D01*
X12595206Y-48749235D01*
X12584729Y-48740860D01*
X12571282Y-48747928D01*
X11897022Y-49422188D01*
X11889408Y-49436132D01*
X11159356Y-49436132D01*
X11160592Y-49433868D01*
X11160461Y-49432035D01*
X11156210Y-49425420D01*
X10477997Y-48747207D01*
X10466223Y-48740777D01*
X10454207Y-48750074D01*
X10424103Y-48793068D01*
X10418623Y-48802559D01*
X10329355Y-48993993D01*
X10325609Y-49004285D01*
X10270941Y-49208309D01*
X10269038Y-49219104D01*
X10250628Y-49429525D01*
X10250628Y-49440475D01*
X354000Y-49440475D01*
X354000Y-48375271D01*
X10830860Y-48375271D01*
X10837928Y-48388718D01*
X11512188Y-49062978D01*
X11526132Y-49070592D01*
X11527965Y-49070461D01*
X11534580Y-49066210D01*
X12212793Y-48387997D01*
X12219223Y-48376223D01*
X12209926Y-48364207D01*
X12166931Y-48334102D01*
X12157445Y-48328624D01*
X11966007Y-48239355D01*
X11955715Y-48235609D01*
X11751691Y-48180941D01*
X11740895Y-48179037D01*
X11558131Y-48163048D01*
X11519210Y-48147824D01*
X11488030Y-48162982D01*
X11478078Y-48164254D01*
X11309104Y-48179038D01*
X11298309Y-48180941D01*
X11094285Y-48235609D01*
X11083993Y-48239355D01*
X10892559Y-48328623D01*
X10883068Y-48334103D01*
X10839235Y-48364794D01*
X10830860Y-48375271D01*
X354000Y-48375271D01*
X354000Y-47953777D01*
X23530777Y-47953777D01*
X23540074Y-47965793D01*
X23583069Y-47995898D01*
X23592555Y-48001376D01*
X23783993Y-48090645D01*
X23794285Y-48094391D01*
X23998309Y-48149059D01*
X24009104Y-48150962D01*
X24187817Y-48166598D01*
X24227012Y-48181930D01*
X24255136Y-48167769D01*
X24266821Y-48166192D01*
X24440896Y-48150962D01*
X24451691Y-48149059D01*
X24655715Y-48094391D01*
X24666007Y-48090645D01*
X24857445Y-48001376D01*
X24866931Y-47995898D01*
X24910764Y-47965207D01*
X24919139Y-47954729D01*
X24912071Y-47941281D01*
X24237812Y-47267022D01*
X24223868Y-47259408D01*
X24222035Y-47259539D01*
X24215420Y-47263790D01*
X23537207Y-47942003D01*
X23530777Y-47953777D01*
X354000Y-47953777D01*
X354000Y-44340739D01*
X10503682Y-44340739D01*
X10520362Y-44539386D01*
X10575310Y-44731009D01*
X10666430Y-44908311D01*
X10790253Y-45064537D01*
X10942063Y-45193737D01*
X10947441Y-45196743D01*
X10947443Y-45196744D01*
X10989397Y-45220191D01*
X11116076Y-45290989D01*
X11121935Y-45292893D01*
X11121938Y-45292894D01*
X11157701Y-45304514D01*
X11305665Y-45352591D01*
X11311775Y-45353320D01*
X11311777Y-45353320D01*
X11379314Y-45361373D01*
X11503609Y-45376194D01*
X11509744Y-45375722D01*
X11509746Y-45375722D01*
X11696226Y-45361373D01*
X11696231Y-45361372D01*
X11702367Y-45360900D01*
X11708297Y-45359244D01*
X11708299Y-45359244D01*
X11798368Y-45334096D01*
X11894370Y-45307292D01*
X11899870Y-45304514D01*
X12066802Y-45220191D01*
X12066804Y-45220190D01*
X12072303Y-45217412D01*
X12229390Y-45094682D01*
X12251962Y-45068532D01*
X12355618Y-44948446D01*
X12355619Y-44948444D01*
X12359647Y-44943778D01*
X12458112Y-44770448D01*
X12521035Y-44581294D01*
X12527105Y-44533247D01*
X12545578Y-44387023D01*
X12545579Y-44387013D01*
X12546020Y-44383520D01*
X12546418Y-44355000D01*
X12526965Y-44156606D01*
X12525184Y-44150707D01*
X12525183Y-44150702D01*
X12471129Y-43971667D01*
X12469348Y-43965768D01*
X12375761Y-43789756D01*
X12371871Y-43784986D01*
X12371868Y-43784982D01*
X12253663Y-43640049D01*
X12253660Y-43640046D01*
X12249768Y-43635274D01*
X12096170Y-43508206D01*
X11920815Y-43413392D01*
X11730385Y-43354444D01*
X11724260Y-43353800D01*
X11724259Y-43353800D01*
X11538260Y-43334251D01*
X11538258Y-43334251D01*
X11532131Y-43333607D01*
X11409252Y-43344790D01*
X11339746Y-43351115D01*
X11339745Y-43351115D01*
X11333605Y-43351674D01*
X11327691Y-43353415D01*
X11327689Y-43353415D01*
X11197539Y-43391721D01*
X11142370Y-43407958D01*
X10965709Y-43500314D01*
X10960909Y-43504174D01*
X10960908Y-43504174D01*
X10955893Y-43508206D01*
X10810351Y-43625225D01*
X10682214Y-43777933D01*
X10586179Y-43952621D01*
X10525902Y-44142635D01*
X10503682Y-44340739D01*
X354000Y-44340739D01*
X354000Y-17750964D01*
X5241148Y-17750964D01*
X5254424Y-17953522D01*
X5255845Y-17959118D01*
X5255846Y-17959123D01*
X5282627Y-18064571D01*
X5304392Y-18150269D01*
X5306809Y-18155512D01*
X5344010Y-18236208D01*
X5389377Y-18334616D01*
X5506533Y-18500389D01*
X5651938Y-18642035D01*
X5820720Y-18754812D01*
X5826023Y-18757090D01*
X5826026Y-18757092D01*
X6001921Y-18832662D01*
X6007228Y-18834942D01*
X6077218Y-18850779D01*
X6199579Y-18878467D01*
X6199584Y-18878468D01*
X6205216Y-18879742D01*
X6210987Y-18879969D01*
X6210989Y-18879969D01*
X6270756Y-18882317D01*
X6408053Y-18887712D01*
X6515348Y-18872155D01*
X6603231Y-18859413D01*
X6603236Y-18859412D01*
X6608945Y-18858584D01*
X6614409Y-18856729D01*
X6614414Y-18856728D01*
X6795693Y-18795192D01*
X6795698Y-18795190D01*
X6801165Y-18793334D01*
X6835414Y-18774154D01*
X6883334Y-18747317D01*
X6978276Y-18694147D01*
X7017969Y-18661135D01*
X7129913Y-18568031D01*
X7134345Y-18564345D01*
X7264147Y-18408276D01*
X7363334Y-18231165D01*
X7365190Y-18225698D01*
X7365192Y-18225693D01*
X7426728Y-18044414D01*
X7426729Y-18044409D01*
X7428584Y-18038945D01*
X7429412Y-18033236D01*
X7429413Y-18033231D01*
X7449784Y-17892731D01*
X7457712Y-17838053D01*
X7459232Y-17780000D01*
X7444788Y-17622806D01*
X7441187Y-17583613D01*
X7441186Y-17583610D01*
X7440658Y-17577859D01*
X7438615Y-17570616D01*
X7387125Y-17388046D01*
X7387124Y-17388044D01*
X7385557Y-17382487D01*
X7374978Y-17361033D01*
X7298331Y-17205609D01*
X7295776Y-17200428D01*
X7174320Y-17037779D01*
X7030609Y-16904933D01*
X7785500Y-16904933D01*
X7785501Y-18655066D01*
X7800266Y-18729301D01*
X7807161Y-18739620D01*
X7807162Y-18739622D01*
X7846340Y-18798255D01*
X7856516Y-18813484D01*
X7940699Y-18869734D01*
X8014933Y-18884500D01*
X8889858Y-18884500D01*
X9765066Y-18884499D01*
X9800818Y-18877388D01*
X9827126Y-18872156D01*
X9827128Y-18872155D01*
X9839301Y-18869734D01*
X9849621Y-18862839D01*
X9849622Y-18862838D01*
X9913168Y-18820377D01*
X9923484Y-18813484D01*
X9979734Y-18729301D01*
X9994500Y-18655067D01*
X9994499Y-16904934D01*
X9979734Y-16830699D01*
X9953654Y-16791667D01*
X9930377Y-16756832D01*
X9923484Y-16746516D01*
X9839301Y-16690266D01*
X9765067Y-16675500D01*
X8890142Y-16675500D01*
X8014934Y-16675501D01*
X7979182Y-16682612D01*
X7952874Y-16687844D01*
X7952872Y-16687845D01*
X7940699Y-16690266D01*
X7930379Y-16697161D01*
X7930378Y-16697162D01*
X7872851Y-16735601D01*
X7856516Y-16746516D01*
X7800266Y-16830699D01*
X7785500Y-16904933D01*
X7030609Y-16904933D01*
X7025258Y-16899987D01*
X7020375Y-16896906D01*
X7020371Y-16896903D01*
X6858464Y-16794748D01*
X6853581Y-16791667D01*
X6665039Y-16716446D01*
X6659379Y-16715320D01*
X6659375Y-16715319D01*
X6471613Y-16677971D01*
X6471610Y-16677971D01*
X6465946Y-16676844D01*
X6460171Y-16676768D01*
X6460167Y-16676768D01*
X6358793Y-16675441D01*
X6262971Y-16674187D01*
X6257274Y-16675166D01*
X6257273Y-16675166D01*
X6129271Y-16697161D01*
X6062910Y-16708564D01*
X5872463Y-16778824D01*
X5698010Y-16882612D01*
X5693670Y-16886418D01*
X5693666Y-16886421D01*
X5549733Y-17012648D01*
X5545392Y-17016455D01*
X5419720Y-17175869D01*
X5417031Y-17180980D01*
X5417029Y-17180983D01*
X5404073Y-17205609D01*
X5325203Y-17355515D01*
X5265007Y-17549378D01*
X5241148Y-17750964D01*
X354000Y-17750964D01*
X354000Y-6327916D01*
X4241200Y-6327916D01*
X4257713Y-6614317D01*
X4258538Y-6618524D01*
X4258539Y-6618529D01*
X4271401Y-6684085D01*
X4312944Y-6895828D01*
X4314331Y-6899879D01*
X4341566Y-6979425D01*
X4405868Y-7167238D01*
X4407793Y-7171065D01*
X4407794Y-7171068D01*
X4496482Y-7347404D01*
X4534767Y-7423526D01*
X4537193Y-7427055D01*
X4537196Y-7427061D01*
X4690250Y-7649754D01*
X4697256Y-7659948D01*
X4700143Y-7663121D01*
X4700144Y-7663122D01*
X4766967Y-7736560D01*
X4890328Y-7872132D01*
X4893609Y-7874875D01*
X5107118Y-8053397D01*
X5107123Y-8053401D01*
X5110410Y-8056149D01*
X5166921Y-8091598D01*
X5349790Y-8206312D01*
X5349794Y-8206314D01*
X5353430Y-8208595D01*
X5357340Y-8210360D01*
X5357341Y-8210361D01*
X5610979Y-8324883D01*
X5610983Y-8324885D01*
X5614891Y-8326649D01*
X5619011Y-8327869D01*
X5619010Y-8327869D01*
X5885841Y-8406908D01*
X5885845Y-8406909D01*
X5889954Y-8408126D01*
X5894191Y-8408774D01*
X5894194Y-8408775D01*
X6136211Y-8445809D01*
X6173530Y-8451520D01*
X6319584Y-8453814D01*
X6456081Y-8455959D01*
X6456087Y-8455959D01*
X6460372Y-8456026D01*
X6745171Y-8421561D01*
X7022658Y-8348764D01*
X7026618Y-8347124D01*
X7026623Y-8347122D01*
X7155178Y-8293873D01*
X7287698Y-8238981D01*
X7535387Y-8094243D01*
X7761140Y-7917230D01*
X7960782Y-7711216D01*
X7963315Y-7707768D01*
X7963319Y-7707763D01*
X8128079Y-7483469D01*
X8130617Y-7480014D01*
X8159368Y-7427061D01*
X8265453Y-7231677D01*
X8265454Y-7231675D01*
X8267503Y-7227901D01*
X8368906Y-6959544D01*
X8418059Y-6744933D01*
X15405500Y-6744933D01*
X15405501Y-8495066D01*
X15420266Y-8569301D01*
X15476516Y-8653484D01*
X15560699Y-8709734D01*
X15634933Y-8724500D01*
X16509858Y-8724500D01*
X17385066Y-8724499D01*
X17420818Y-8717388D01*
X17447126Y-8712156D01*
X17447128Y-8712155D01*
X17459301Y-8709734D01*
X17469621Y-8702839D01*
X17469622Y-8702838D01*
X17533168Y-8660377D01*
X17543484Y-8653484D01*
X17599734Y-8569301D01*
X17614500Y-8495067D01*
X17614499Y-6744934D01*
X17602832Y-6686275D01*
X17602156Y-6682874D01*
X17602155Y-6682872D01*
X17599734Y-6670699D01*
X17582569Y-6645009D01*
X17550377Y-6596832D01*
X17543484Y-6586516D01*
X17459301Y-6530266D01*
X17385067Y-6515500D01*
X17210334Y-6515500D01*
X17142213Y-6495498D01*
X17095720Y-6441842D01*
X17085616Y-6371568D01*
X17115110Y-6306988D01*
X17154902Y-6276348D01*
X17203103Y-6252735D01*
X17211944Y-6247465D01*
X17259247Y-6213723D01*
X17267648Y-6203023D01*
X17260660Y-6189870D01*
X16522812Y-5452022D01*
X16508868Y-5444408D01*
X16507035Y-5444539D01*
X16500420Y-5448790D01*
X15756737Y-6192473D01*
X15749977Y-6204853D01*
X15755257Y-6211906D01*
X15873005Y-6280713D01*
X15921728Y-6332352D01*
X15934799Y-6402135D01*
X15908067Y-6467907D01*
X15850020Y-6508785D01*
X15809435Y-6515501D01*
X15634934Y-6515501D01*
X15599182Y-6522612D01*
X15572874Y-6527844D01*
X15572872Y-6527845D01*
X15560699Y-6530266D01*
X15550379Y-6537161D01*
X15550378Y-6537162D01*
X15524591Y-6554393D01*
X15476516Y-6586516D01*
X15420266Y-6670699D01*
X15405500Y-6744933D01*
X8418059Y-6744933D01*
X8432952Y-6679907D01*
X8458453Y-6394166D01*
X8458916Y-6350000D01*
X8457702Y-6332196D01*
X8439696Y-6068064D01*
X8439695Y-6068058D01*
X8439404Y-6063787D01*
X8435761Y-6046193D01*
X8407590Y-5910164D01*
X8381229Y-5782871D01*
X8285467Y-5512448D01*
X8153891Y-5257525D01*
X8009350Y-5051863D01*
X15148050Y-5051863D01*
X15160309Y-5264477D01*
X15161745Y-5274697D01*
X15208565Y-5482446D01*
X15211645Y-5492275D01*
X15291770Y-5689603D01*
X15296413Y-5698794D01*
X15376460Y-5829420D01*
X15386916Y-5838880D01*
X15395694Y-5835096D01*
X16137978Y-5092812D01*
X16144356Y-5081132D01*
X16874408Y-5081132D01*
X16874539Y-5082965D01*
X16878790Y-5089580D01*
X17620474Y-5831264D01*
X17632484Y-5837823D01*
X17644223Y-5828855D01*
X17675004Y-5786019D01*
X17680315Y-5777180D01*
X17774670Y-5586267D01*
X17778469Y-5576672D01*
X17840376Y-5372915D01*
X17842555Y-5362834D01*
X17870590Y-5149887D01*
X17871109Y-5143212D01*
X17872572Y-5083364D01*
X17872378Y-5076646D01*
X17854781Y-4862604D01*
X17853096Y-4852424D01*
X17801214Y-4645875D01*
X17797894Y-4636124D01*
X17712972Y-4440814D01*
X17708105Y-4431739D01*
X17643063Y-4331197D01*
X17632377Y-4321995D01*
X17622812Y-4326398D01*
X16882022Y-5067188D01*
X16874408Y-5081132D01*
X16144356Y-5081132D01*
X16145592Y-5078868D01*
X16145461Y-5077035D01*
X16141210Y-5070420D01*
X15399849Y-4329059D01*
X15388313Y-4322759D01*
X15376031Y-4332382D01*
X15328089Y-4402662D01*
X15323004Y-4411613D01*
X15233338Y-4604783D01*
X15229775Y-4614470D01*
X15172864Y-4819681D01*
X15170933Y-4829800D01*
X15148302Y-5041574D01*
X15148050Y-5051863D01*
X8009350Y-5051863D01*
X7988936Y-5022816D01*
X7968027Y-5000315D01*
X7796573Y-4815809D01*
X7796570Y-4815807D01*
X7793652Y-4812666D01*
X7571655Y-4630964D01*
X7344621Y-4491837D01*
X7330714Y-4483315D01*
X7330713Y-4483315D01*
X7327052Y-4481071D01*
X7323116Y-4479343D01*
X7068298Y-4367485D01*
X7068294Y-4367484D01*
X7064370Y-4365761D01*
X6788468Y-4287169D01*
X6577636Y-4257163D01*
X6508705Y-4247353D01*
X6508703Y-4247353D01*
X6504453Y-4246748D01*
X6500164Y-4246726D01*
X6500157Y-4246725D01*
X6221866Y-4245267D01*
X6221859Y-4245267D01*
X6217580Y-4245245D01*
X6213336Y-4245804D01*
X6213332Y-4245804D01*
X6088189Y-4262280D01*
X5933157Y-4282690D01*
X5656448Y-4358390D01*
X5392572Y-4470942D01*
X5388891Y-4473145D01*
X5150095Y-4616061D01*
X5150091Y-4616064D01*
X5146413Y-4618265D01*
X4922525Y-4797633D01*
X4860870Y-4862604D01*
X4738073Y-4992005D01*
X4725052Y-5005726D01*
X4557648Y-5238694D01*
X4423409Y-5492227D01*
X4384192Y-5599392D01*
X4350918Y-5690319D01*
X4324821Y-5761631D01*
X4263708Y-6041923D01*
X4242146Y-6315893D01*
X4241200Y-6327916D01*
X354000Y-6327916D01*
X354000Y-3956427D01*
X15751223Y-3956427D01*
X15757968Y-3968758D01*
X16497188Y-4707978D01*
X16511132Y-4715592D01*
X16512965Y-4715461D01*
X16519580Y-4711210D01*
X17263389Y-3967401D01*
X17270410Y-3954544D01*
X17263611Y-3945213D01*
X17259554Y-3942518D01*
X17073117Y-3839599D01*
X17063705Y-3835369D01*
X16862959Y-3764280D01*
X16852989Y-3761646D01*
X16643327Y-3724301D01*
X16633073Y-3723331D01*
X16420116Y-3720728D01*
X16409832Y-3721448D01*
X16199321Y-3753661D01*
X16189293Y-3756050D01*
X15986868Y-3822212D01*
X15977359Y-3826209D01*
X15788466Y-3924540D01*
X15779734Y-3930039D01*
X15759677Y-3945099D01*
X15751223Y-3956427D01*
X354000Y-3956427D01*
X354000Y-480000D01*
X374002Y-411879D01*
X427658Y-365386D01*
X480000Y-354000D01*
X59210000Y-354000D01*
X59278121Y-374002D01*
G37*
%TD.AperFunction*%
%TD*%
M02*
