%TF.GenerationSoftware,KiCad,Pcbnew,(6.0.1)*%
%TF.CreationDate,2022-05-15T10:58:49-07:00*%
%TF.ProjectId,BlackberryJam_pcb,426c6163-6b62-4657-9272-794a616d5f70,rev?*%
%TF.SameCoordinates,Original*%
%TF.FileFunction,Legend,Top*%
%TF.FilePolarity,Positive*%
%FSLAX46Y46*%
G04 Gerber Fmt 4.6, Leading zero omitted, Abs format (unit mm)*
G04 Created by KiCad (PCBNEW (6.0.1)) date 2022-05-15 10:58:49*
%MOMM*%
%LPD*%
G01*
G04 APERTURE LIST*
%ADD10C,0.150000*%
%ADD11C,0.120000*%
%ADD12C,0.127000*%
G04 APERTURE END LIST*
D10*
%TO.C,U5*%
X7324310Y-47158853D02*
X6514786Y-47158853D01*
X6419548Y-47206472D01*
X6371929Y-47254091D01*
X6324310Y-47349329D01*
X6324310Y-47539805D01*
X6371929Y-47635043D01*
X6419548Y-47682662D01*
X6514786Y-47730281D01*
X7324310Y-47730281D01*
X7324310Y-48682662D02*
X7324310Y-48206472D01*
X6848119Y-48158853D01*
X6895738Y-48206472D01*
X6943357Y-48301710D01*
X6943357Y-48539805D01*
X6895738Y-48635043D01*
X6848119Y-48682662D01*
X6752881Y-48730281D01*
X6514786Y-48730281D01*
X6419548Y-48682662D01*
X6371929Y-48635043D01*
X6324310Y-48539805D01*
X6324310Y-48301710D01*
X6371929Y-48206472D01*
X6419548Y-48158853D01*
X4415889Y-42915788D02*
X5415889Y-42915788D01*
X4701603Y-43249121D01*
X5415889Y-43582454D01*
X4415889Y-43582454D01*
X5415889Y-44249121D02*
X5415889Y-44439597D01*
X5368270Y-44534835D01*
X5273031Y-44630073D01*
X5082555Y-44677693D01*
X4749222Y-44677693D01*
X4558746Y-44630073D01*
X4463508Y-44534835D01*
X4415889Y-44439597D01*
X4415889Y-44249121D01*
X4463508Y-44153883D01*
X4558746Y-44058645D01*
X4749222Y-44011026D01*
X5082555Y-44011026D01*
X5273031Y-44058645D01*
X5368270Y-44153883D01*
X5415889Y-44249121D01*
X5415889Y-44963407D02*
X5415889Y-45534835D01*
X4415889Y-45249121D02*
X5415889Y-45249121D01*
X5415889Y-46058645D02*
X5415889Y-46249121D01*
X5368270Y-46344359D01*
X5273031Y-46439597D01*
X5082555Y-46487216D01*
X4749222Y-46487216D01*
X4558746Y-46439597D01*
X4463508Y-46344359D01*
X4415889Y-46249121D01*
X4415889Y-46058645D01*
X4463508Y-45963407D01*
X4558746Y-45868169D01*
X4749222Y-45820550D01*
X5082555Y-45820550D01*
X5273031Y-45868169D01*
X5368270Y-45963407D01*
X5415889Y-46058645D01*
X4415889Y-47487216D02*
X4892079Y-47153883D01*
X4415889Y-46915788D02*
X5415889Y-46915788D01*
X5415889Y-47296740D01*
X5368270Y-47391978D01*
X5320650Y-47439597D01*
X5225412Y-47487216D01*
X5082555Y-47487216D01*
X4987317Y-47439597D01*
X4939698Y-47391978D01*
X4892079Y-47296740D01*
X4892079Y-46915788D01*
X4415889Y-48677693D02*
X5415889Y-48677693D01*
X5415889Y-48915788D01*
X5368270Y-49058645D01*
X5273031Y-49153883D01*
X5177793Y-49201502D01*
X4987317Y-49249121D01*
X4844460Y-49249121D01*
X4653984Y-49201502D01*
X4558746Y-49153883D01*
X4463508Y-49058645D01*
X4415889Y-48915788D01*
X4415889Y-48677693D01*
X4415889Y-50249121D02*
X4892079Y-49915788D01*
X4415889Y-49677693D02*
X5415889Y-49677693D01*
X5415889Y-50058645D01*
X5368270Y-50153883D01*
X5320650Y-50201502D01*
X5225412Y-50249121D01*
X5082555Y-50249121D01*
X4987317Y-50201502D01*
X4939698Y-50153883D01*
X4892079Y-50058645D01*
X4892079Y-49677693D01*
X4415889Y-50677693D02*
X5415889Y-50677693D01*
X5415889Y-51011026D02*
X4415889Y-51344359D01*
X5415889Y-51677693D01*
X4939698Y-52011026D02*
X4939698Y-52344359D01*
X4415889Y-52487216D02*
X4415889Y-52011026D01*
X5415889Y-52011026D01*
X5415889Y-52487216D01*
X4415889Y-53487216D02*
X4892079Y-53153883D01*
X4415889Y-52915788D02*
X5415889Y-52915788D01*
X5415889Y-53296740D01*
X5368269Y-53391978D01*
X5320650Y-53439597D01*
X5225412Y-53487216D01*
X5082555Y-53487216D01*
X4987317Y-53439597D01*
X4939698Y-53391978D01*
X4892079Y-53296740D01*
X4892079Y-52915788D01*
X13781929Y-43870699D02*
X14115262Y-44870699D01*
X14448595Y-43870699D01*
X14781929Y-44870699D02*
X14781929Y-43870699D01*
X15115262Y-44584985D01*
X15448595Y-43870699D01*
X15448595Y-44870699D01*
X13593657Y-46477037D02*
X13926991Y-47477037D01*
X14260324Y-46477037D01*
X15165086Y-47381799D02*
X15117467Y-47429418D01*
X14974610Y-47477037D01*
X14879371Y-47477037D01*
X14736514Y-47429418D01*
X14641276Y-47334180D01*
X14593657Y-47238942D01*
X14546038Y-47048466D01*
X14546038Y-46905609D01*
X14593657Y-46715133D01*
X14641276Y-46619895D01*
X14736514Y-46524657D01*
X14879371Y-46477037D01*
X14974610Y-46477037D01*
X15117467Y-46524657D01*
X15165086Y-46572276D01*
X16165086Y-47381799D02*
X16117467Y-47429418D01*
X15974610Y-47477037D01*
X15879371Y-47477037D01*
X15736514Y-47429418D01*
X15641276Y-47334180D01*
X15593657Y-47238942D01*
X15546038Y-47048466D01*
X15546038Y-46905609D01*
X15593657Y-46715133D01*
X15641276Y-46619895D01*
X15736514Y-46524657D01*
X15879371Y-46477037D01*
X15974610Y-46477037D01*
X16117467Y-46524657D01*
X16165086Y-46572276D01*
X22336994Y-44832137D02*
X22336994Y-43832137D01*
X22717947Y-43832137D01*
X22813185Y-43879757D01*
X22860804Y-43927376D01*
X22908423Y-44022614D01*
X22908423Y-44165471D01*
X22860804Y-44260709D01*
X22813185Y-44308328D01*
X22717947Y-44355947D01*
X22336994Y-44355947D01*
X23241756Y-43832137D02*
X23479851Y-44832137D01*
X23670328Y-44117852D01*
X23860804Y-44832137D01*
X24098899Y-43832137D01*
X24479851Y-44832137D02*
X24479851Y-43832137D01*
X24813185Y-44546423D01*
X25146518Y-43832137D01*
X25146518Y-44832137D01*
X25575089Y-44546423D02*
X26051280Y-44546423D01*
X25479851Y-44832137D02*
X25813185Y-43832137D01*
X26146518Y-44832137D01*
X21940891Y-60037749D02*
X21940891Y-59037749D01*
X22321843Y-59037749D01*
X22417081Y-59085369D01*
X22464700Y-59132988D01*
X22512319Y-59228226D01*
X22512319Y-59371083D01*
X22464700Y-59466321D01*
X22417081Y-59513940D01*
X22321843Y-59561559D01*
X21940891Y-59561559D01*
X22845653Y-59037749D02*
X23083748Y-60037749D01*
X23274224Y-59323464D01*
X23464700Y-60037749D01*
X23702795Y-59037749D01*
X24083748Y-60037749D02*
X24083748Y-59037749D01*
X24417081Y-59752035D01*
X24750414Y-59037749D01*
X24750414Y-60037749D01*
X25559938Y-59513940D02*
X25702795Y-59561559D01*
X25750414Y-59609178D01*
X25798033Y-59704416D01*
X25798033Y-59847273D01*
X25750414Y-59942511D01*
X25702795Y-59990130D01*
X25607557Y-60037749D01*
X25226605Y-60037749D01*
X25226605Y-59037749D01*
X25559938Y-59037749D01*
X25655176Y-59085369D01*
X25702795Y-59132988D01*
X25750414Y-59228226D01*
X25750414Y-59323464D01*
X25702795Y-59418702D01*
X25655176Y-59466321D01*
X25559938Y-59513940D01*
X25226605Y-59513940D01*
%TO.C,U4*%
X43252581Y-11915272D02*
X42443057Y-11915272D01*
X42347819Y-11962891D01*
X42300200Y-12010510D01*
X42252581Y-12105748D01*
X42252581Y-12296224D01*
X42300200Y-12391462D01*
X42347819Y-12439081D01*
X42443057Y-12486700D01*
X43252581Y-12486700D01*
X42919247Y-13391462D02*
X42252581Y-13391462D01*
X43300200Y-13153367D02*
X42585914Y-12915272D01*
X42585914Y-13534319D01*
X40187619Y-8938095D02*
X41187619Y-8938095D01*
X40473333Y-9271428D01*
X41187619Y-9604761D01*
X40187619Y-9604761D01*
X40187619Y-10080952D02*
X41187619Y-10080952D01*
X40473333Y-10414285D01*
X41187619Y-10747619D01*
X40187619Y-10747619D01*
X40473333Y-11176190D02*
X40473333Y-11652380D01*
X40187619Y-11080952D02*
X41187619Y-11414285D01*
X40187619Y-11747619D01*
X40759047Y-12223809D02*
X40806666Y-12128571D01*
X40854285Y-12080952D01*
X40949523Y-12033333D01*
X40997142Y-12033333D01*
X41092380Y-12080952D01*
X41140000Y-12128571D01*
X41187619Y-12223809D01*
X41187619Y-12414285D01*
X41140000Y-12509523D01*
X41092380Y-12557142D01*
X40997142Y-12604761D01*
X40949523Y-12604761D01*
X40854285Y-12557142D01*
X40806666Y-12509523D01*
X40759047Y-12414285D01*
X40759047Y-12223809D01*
X40711428Y-12128571D01*
X40663809Y-12080952D01*
X40568571Y-12033333D01*
X40378095Y-12033333D01*
X40282857Y-12080952D01*
X40235238Y-12128571D01*
X40187619Y-12223809D01*
X40187619Y-12414285D01*
X40235238Y-12509523D01*
X40282857Y-12557142D01*
X40378095Y-12604761D01*
X40568571Y-12604761D01*
X40663809Y-12557142D01*
X40711428Y-12509523D01*
X40759047Y-12414285D01*
X40854285Y-13461904D02*
X40187619Y-13461904D01*
X41235238Y-13223809D02*
X40520952Y-12985714D01*
X40520952Y-13604761D01*
X41187619Y-14461904D02*
X41187619Y-13985714D01*
X40711428Y-13938095D01*
X40759047Y-13985714D01*
X40806666Y-14080952D01*
X40806666Y-14319047D01*
X40759047Y-14414285D01*
X40711428Y-14461904D01*
X40616190Y-14509523D01*
X40378095Y-14509523D01*
X40282857Y-14461904D01*
X40235238Y-14414285D01*
X40187619Y-14319047D01*
X40187619Y-14080952D01*
X40235238Y-13985714D01*
X40282857Y-13938095D01*
X41092380Y-14890476D02*
X41140000Y-14938095D01*
X41187619Y-15033333D01*
X41187619Y-15271428D01*
X41140000Y-15366666D01*
X41092380Y-15414285D01*
X40997142Y-15461904D01*
X40901904Y-15461904D01*
X40759047Y-15414285D01*
X40187619Y-14842857D01*
X40187619Y-15461904D01*
X40092380Y-16557142D02*
X40140000Y-16461904D01*
X40235238Y-16366666D01*
X40378095Y-16223809D01*
X40425714Y-16128571D01*
X40425714Y-16033333D01*
X40187619Y-16080952D02*
X40235238Y-15985714D01*
X40330476Y-15890476D01*
X40520952Y-15842857D01*
X40854285Y-15842857D01*
X41044761Y-15890476D01*
X41140000Y-15985714D01*
X41187619Y-16080952D01*
X41187619Y-16271428D01*
X41140000Y-16366666D01*
X41044761Y-16461904D01*
X40854285Y-16509523D01*
X40520952Y-16509523D01*
X40330476Y-16461904D01*
X40235238Y-16366666D01*
X40187619Y-16271428D01*
X40187619Y-16080952D01*
X31675238Y-6523523D02*
X31627619Y-6666380D01*
X31627619Y-6904476D01*
X31675238Y-6999714D01*
X31722857Y-7047333D01*
X31818095Y-7094952D01*
X31913333Y-7094952D01*
X32008571Y-7047333D01*
X32056190Y-6999714D01*
X32103809Y-6904476D01*
X32151428Y-6714000D01*
X32199047Y-6618761D01*
X32246666Y-6571142D01*
X32341904Y-6523523D01*
X32437142Y-6523523D01*
X32532380Y-6571142D01*
X32580000Y-6618761D01*
X32627619Y-6714000D01*
X32627619Y-6952095D01*
X32580000Y-7094952D01*
X31722857Y-8094952D02*
X31675238Y-8047333D01*
X31627619Y-7904476D01*
X31627619Y-7809238D01*
X31675238Y-7666380D01*
X31770476Y-7571142D01*
X31865714Y-7523523D01*
X32056190Y-7475904D01*
X32199047Y-7475904D01*
X32389523Y-7523523D01*
X32484761Y-7571142D01*
X32580000Y-7666380D01*
X32627619Y-7809238D01*
X32627619Y-7904476D01*
X32580000Y-8047333D01*
X32532380Y-8094952D01*
X31627619Y-8999714D02*
X31627619Y-8523523D01*
X32627619Y-8523523D01*
X29087619Y-7237809D02*
X30087619Y-7237809D01*
X29992380Y-7666380D02*
X30040000Y-7714000D01*
X30087619Y-7809238D01*
X30087619Y-8047333D01*
X30040000Y-8142571D01*
X29992380Y-8190190D01*
X29897142Y-8237809D01*
X29801904Y-8237809D01*
X29659047Y-8190190D01*
X29087619Y-7618761D01*
X29087619Y-8237809D01*
X26547619Y-7237809D02*
X27547619Y-7237809D01*
X26547619Y-8237809D02*
X26547619Y-7666380D01*
X26547619Y-7952095D02*
X27547619Y-7952095D01*
X27404761Y-7856857D01*
X27309523Y-7761619D01*
X27261904Y-7666380D01*
X34215238Y-6499714D02*
X34167619Y-6642571D01*
X34167619Y-6880666D01*
X34215238Y-6975904D01*
X34262857Y-7023523D01*
X34358095Y-7071142D01*
X34453333Y-7071142D01*
X34548571Y-7023523D01*
X34596190Y-6975904D01*
X34643809Y-6880666D01*
X34691428Y-6690190D01*
X34739047Y-6594952D01*
X34786666Y-6547333D01*
X34881904Y-6499714D01*
X34977142Y-6499714D01*
X35072380Y-6547333D01*
X35120000Y-6594952D01*
X35167619Y-6690190D01*
X35167619Y-6928285D01*
X35120000Y-7071142D01*
X34167619Y-7499714D02*
X35167619Y-7499714D01*
X35167619Y-7737809D01*
X35120000Y-7880666D01*
X35024761Y-7975904D01*
X34929523Y-8023523D01*
X34739047Y-8071142D01*
X34596190Y-8071142D01*
X34405714Y-8023523D01*
X34310476Y-7975904D01*
X34215238Y-7880666D01*
X34167619Y-7737809D01*
X34167619Y-7499714D01*
X34453333Y-8452095D02*
X34453333Y-8928285D01*
X34167619Y-8356857D02*
X35167619Y-8690190D01*
X34167619Y-9023523D01*
X37707619Y-6475904D02*
X37707619Y-7094952D01*
X37326666Y-6761619D01*
X37326666Y-6904476D01*
X37279047Y-6999714D01*
X37231428Y-7047333D01*
X37136190Y-7094952D01*
X36898095Y-7094952D01*
X36802857Y-7047333D01*
X36755238Y-6999714D01*
X36707619Y-6904476D01*
X36707619Y-6618761D01*
X36755238Y-6523523D01*
X36802857Y-6475904D01*
X37707619Y-7380666D02*
X36707619Y-7714000D01*
X37707619Y-8047333D01*
X37707619Y-8285428D02*
X37707619Y-8904476D01*
X37326666Y-8571142D01*
X37326666Y-8714000D01*
X37279047Y-8809238D01*
X37231428Y-8856857D01*
X37136190Y-8904476D01*
X36898095Y-8904476D01*
X36802857Y-8856857D01*
X36755238Y-8809238D01*
X36707619Y-8714000D01*
X36707619Y-8428285D01*
X36755238Y-8333047D01*
X36802857Y-8285428D01*
X24960000Y-6952095D02*
X25007619Y-6856857D01*
X25007619Y-6714000D01*
X24960000Y-6571142D01*
X24864761Y-6475904D01*
X24769523Y-6428285D01*
X24579047Y-6380666D01*
X24436190Y-6380666D01*
X24245714Y-6428285D01*
X24150476Y-6475904D01*
X24055238Y-6571142D01*
X24007619Y-6714000D01*
X24007619Y-6809238D01*
X24055238Y-6952095D01*
X24102857Y-6999714D01*
X24436190Y-6999714D01*
X24436190Y-6809238D01*
X24007619Y-7428285D02*
X25007619Y-7428285D01*
X24007619Y-7999714D01*
X25007619Y-7999714D01*
X24007619Y-8475904D02*
X25007619Y-8475904D01*
X25007619Y-8714000D01*
X24960000Y-8856857D01*
X24864761Y-8952095D01*
X24769523Y-8999714D01*
X24579047Y-9047333D01*
X24436190Y-9047333D01*
X24245714Y-8999714D01*
X24150476Y-8952095D01*
X24055238Y-8856857D01*
X24007619Y-8714000D01*
X24007619Y-8475904D01*
%TO.C,D1*%
X38631904Y-46592380D02*
X38631904Y-45592380D01*
X38870000Y-45592380D01*
X39012857Y-45640000D01*
X39108095Y-45735238D01*
X39155714Y-45830476D01*
X39203333Y-46020952D01*
X39203333Y-46163809D01*
X39155714Y-46354285D01*
X39108095Y-46449523D01*
X39012857Y-46544761D01*
X38870000Y-46592380D01*
X38631904Y-46592380D01*
X40155714Y-46592380D02*
X39584285Y-46592380D01*
X39870000Y-46592380D02*
X39870000Y-45592380D01*
X39774761Y-45735238D01*
X39679523Y-45830476D01*
X39584285Y-45878095D01*
X35298095Y-46912380D02*
X35298095Y-45912380D01*
X35869523Y-46912380D02*
X35440952Y-46340952D01*
X35869523Y-45912380D02*
X35298095Y-46483809D01*
%TO.C,M2*%
X33480476Y-53232380D02*
X33480476Y-52232380D01*
X33813809Y-52946666D01*
X34147142Y-52232380D01*
X34147142Y-53232380D01*
X34575714Y-52327619D02*
X34623333Y-52280000D01*
X34718571Y-52232380D01*
X34956666Y-52232380D01*
X35051904Y-52280000D01*
X35099523Y-52327619D01*
X35147142Y-52422857D01*
X35147142Y-52518095D01*
X35099523Y-52660952D01*
X34528095Y-53232380D01*
X35147142Y-53232380D01*
%TO.C,U1*%
X15748095Y-9612380D02*
X15748095Y-10421904D01*
X15795714Y-10517142D01*
X15843333Y-10564761D01*
X15938571Y-10612380D01*
X16129047Y-10612380D01*
X16224285Y-10564761D01*
X16271904Y-10517142D01*
X16319523Y-10421904D01*
X16319523Y-9612380D01*
X17319523Y-10612380D02*
X16748095Y-10612380D01*
X17033809Y-10612380D02*
X17033809Y-9612380D01*
X16938571Y-9755238D01*
X16843333Y-9850476D01*
X16748095Y-9898095D01*
X12319523Y-2468571D02*
X12462380Y-2516190D01*
X12510000Y-2563809D01*
X12557619Y-2659047D01*
X12557619Y-2801904D01*
X12510000Y-2897142D01*
X12462380Y-2944761D01*
X12367142Y-2992380D01*
X11986190Y-2992380D01*
X11986190Y-1992380D01*
X12319523Y-1992380D01*
X12414761Y-2040000D01*
X12462380Y-2087619D01*
X12510000Y-2182857D01*
X12510000Y-2278095D01*
X12462380Y-2373333D01*
X12414761Y-2420952D01*
X12319523Y-2468571D01*
X11986190Y-2468571D01*
X12986190Y-2992380D02*
X12986190Y-1992380D01*
X13319523Y-2706666D01*
X13652857Y-1992380D01*
X13652857Y-2992380D01*
X14081428Y-2944761D02*
X14224285Y-2992380D01*
X14462380Y-2992380D01*
X14557619Y-2944761D01*
X14605238Y-2897142D01*
X14652857Y-2801904D01*
X14652857Y-2706666D01*
X14605238Y-2611428D01*
X14557619Y-2563809D01*
X14462380Y-2516190D01*
X14271904Y-2468571D01*
X14176666Y-2420952D01*
X14129047Y-2373333D01*
X14081428Y-2278095D01*
X14081428Y-2182857D01*
X14129047Y-2087619D01*
X14176666Y-2040000D01*
X14271904Y-1992380D01*
X14510000Y-1992380D01*
X14652857Y-2040000D01*
X16033809Y-1992380D02*
X16224285Y-1992380D01*
X16319523Y-2040000D01*
X16414761Y-2135238D01*
X16462380Y-2325714D01*
X16462380Y-2659047D01*
X16414761Y-2849523D01*
X16319523Y-2944761D01*
X16224285Y-2992380D01*
X16033809Y-2992380D01*
X15938571Y-2944761D01*
X15843333Y-2849523D01*
X15795714Y-2659047D01*
X15795714Y-2325714D01*
X15843333Y-2135238D01*
X15938571Y-2040000D01*
X16033809Y-1992380D01*
X16890952Y-1992380D02*
X16890952Y-2801904D01*
X16938571Y-2897142D01*
X16986190Y-2944761D01*
X17081428Y-2992380D01*
X17271904Y-2992380D01*
X17367142Y-2944761D01*
X17414761Y-2897142D01*
X17462380Y-2801904D01*
X17462380Y-1992380D01*
X17795714Y-1992380D02*
X18367142Y-1992380D01*
X18081428Y-2992380D02*
X18081428Y-1992380D01*
X18700476Y-2992380D02*
X18700476Y-1992380D01*
X19081428Y-1992380D01*
X19176666Y-2040000D01*
X19224285Y-2087619D01*
X19271904Y-2182857D01*
X19271904Y-2325714D01*
X19224285Y-2420952D01*
X19176666Y-2468571D01*
X19081428Y-2516190D01*
X18700476Y-2516190D01*
X19700476Y-1992380D02*
X19700476Y-2801904D01*
X19748095Y-2897142D01*
X19795714Y-2944761D01*
X19890952Y-2992380D01*
X20081428Y-2992380D01*
X20176666Y-2944761D01*
X20224285Y-2897142D01*
X20271904Y-2801904D01*
X20271904Y-1992380D01*
X20605238Y-1992380D02*
X21176666Y-1992380D01*
X20890952Y-2992380D02*
X20890952Y-1992380D01*
%TO.C,U3*%
X39884936Y-52246679D02*
X39884936Y-53056203D01*
X39932555Y-53151441D01*
X39980174Y-53199060D01*
X40075412Y-53246679D01*
X40265888Y-53246679D01*
X40361126Y-53199060D01*
X40408745Y-53151441D01*
X40456364Y-53056203D01*
X40456364Y-52246679D01*
X40837317Y-52246679D02*
X41456364Y-52246679D01*
X41123031Y-52627632D01*
X41265888Y-52627632D01*
X41361126Y-52675251D01*
X41408745Y-52722870D01*
X41456364Y-52818108D01*
X41456364Y-53056203D01*
X41408745Y-53151441D01*
X41361126Y-53199060D01*
X41265888Y-53246679D01*
X40980174Y-53246679D01*
X40884936Y-53199060D01*
X40837317Y-53151441D01*
%TO.C,U2*%
X58187326Y-29746721D02*
X57377802Y-29746721D01*
X57282564Y-29794340D01*
X57234945Y-29841959D01*
X57187326Y-29937197D01*
X57187326Y-30127673D01*
X57234945Y-30222911D01*
X57282564Y-30270530D01*
X57377802Y-30318149D01*
X58187326Y-30318149D01*
X58092087Y-30746721D02*
X58139707Y-30794340D01*
X58187326Y-30889578D01*
X58187326Y-31127673D01*
X58139707Y-31222911D01*
X58092087Y-31270530D01*
X57996849Y-31318149D01*
X57901611Y-31318149D01*
X57758754Y-31270530D01*
X57187326Y-30699102D01*
X57187326Y-31318149D01*
X55713333Y-23575238D02*
X55713333Y-24051428D01*
X55427619Y-23480000D02*
X56427619Y-23813333D01*
X55427619Y-24146666D01*
X55427619Y-25051428D02*
X55903809Y-24718095D01*
X55427619Y-24480000D02*
X56427619Y-24480000D01*
X56427619Y-24860952D01*
X56380000Y-24956190D01*
X56332380Y-25003809D01*
X56237142Y-25051428D01*
X56094285Y-25051428D01*
X55999047Y-25003809D01*
X55951428Y-24956190D01*
X55903809Y-24860952D01*
X55903809Y-24480000D01*
X55427619Y-25480000D02*
X56427619Y-25480000D01*
X56427619Y-25718095D01*
X56380000Y-25860952D01*
X56284761Y-25956190D01*
X56189523Y-26003809D01*
X55999047Y-26051428D01*
X55856190Y-26051428D01*
X55665714Y-26003809D01*
X55570476Y-25956190D01*
X55475238Y-25860952D01*
X55427619Y-25718095D01*
X55427619Y-25480000D01*
X56427619Y-26480000D02*
X55618095Y-26480000D01*
X55522857Y-26527619D01*
X55475238Y-26575238D01*
X55427619Y-26670476D01*
X55427619Y-26860952D01*
X55475238Y-26956190D01*
X55522857Y-27003809D01*
X55618095Y-27051428D01*
X56427619Y-27051428D01*
X55427619Y-27527619D02*
X56427619Y-27527619D01*
X55427619Y-28003809D02*
X56427619Y-28003809D01*
X55427619Y-28575238D01*
X56427619Y-28575238D01*
X56427619Y-29241904D02*
X56427619Y-29432380D01*
X56380000Y-29527619D01*
X56284761Y-29622857D01*
X56094285Y-29670476D01*
X55760952Y-29670476D01*
X55570476Y-29622857D01*
X55475238Y-29527619D01*
X55427619Y-29432380D01*
X55427619Y-29241904D01*
X55475238Y-29146666D01*
X55570476Y-29051428D01*
X55760952Y-29003809D01*
X56094285Y-29003809D01*
X56284761Y-29051428D01*
X56380000Y-29146666D01*
X56427619Y-29241904D01*
X55427619Y-30860952D02*
X56427619Y-30860952D01*
X56427619Y-31241904D01*
X56380000Y-31337142D01*
X56332380Y-31384761D01*
X56237142Y-31432380D01*
X56094285Y-31432380D01*
X55999047Y-31384761D01*
X55951428Y-31337142D01*
X55903809Y-31241904D01*
X55903809Y-30860952D01*
X55427619Y-32432380D02*
X55903809Y-32099047D01*
X55427619Y-31860952D02*
X56427619Y-31860952D01*
X56427619Y-32241904D01*
X56380000Y-32337142D01*
X56332380Y-32384761D01*
X56237142Y-32432380D01*
X56094285Y-32432380D01*
X55999047Y-32384761D01*
X55951428Y-32337142D01*
X55903809Y-32241904D01*
X55903809Y-31860952D01*
X56427619Y-33051428D02*
X56427619Y-33241904D01*
X56380000Y-33337142D01*
X56284761Y-33432380D01*
X56094285Y-33480000D01*
X55760952Y-33480000D01*
X55570476Y-33432380D01*
X55475238Y-33337142D01*
X55427619Y-33241904D01*
X55427619Y-33051428D01*
X55475238Y-32956190D01*
X55570476Y-32860952D01*
X55760952Y-32813333D01*
X56094285Y-32813333D01*
X56284761Y-32860952D01*
X56380000Y-32956190D01*
X56427619Y-33051428D01*
X55427619Y-34670476D02*
X56427619Y-34670476D01*
X55713333Y-35003809D01*
X56427619Y-35337142D01*
X55427619Y-35337142D01*
X55427619Y-35813333D02*
X56427619Y-35813333D01*
X55427619Y-36289523D02*
X56427619Y-36289523D01*
X55427619Y-36860952D01*
X56427619Y-36860952D01*
X55427619Y-37337142D02*
X56427619Y-37337142D01*
%TO.C,D2*%
X51331904Y-46592380D02*
X51331904Y-45592380D01*
X51570000Y-45592380D01*
X51712857Y-45640000D01*
X51808095Y-45735238D01*
X51855714Y-45830476D01*
X51903333Y-46020952D01*
X51903333Y-46163809D01*
X51855714Y-46354285D01*
X51808095Y-46449523D01*
X51712857Y-46544761D01*
X51570000Y-46592380D01*
X51331904Y-46592380D01*
X52284285Y-45687619D02*
X52331904Y-45640000D01*
X52427142Y-45592380D01*
X52665238Y-45592380D01*
X52760476Y-45640000D01*
X52808095Y-45687619D01*
X52855714Y-45782857D01*
X52855714Y-45878095D01*
X52808095Y-46020952D01*
X52236666Y-46592380D01*
X52855714Y-46592380D01*
X47998095Y-46912380D02*
X47998095Y-45912380D01*
X48569523Y-46912380D02*
X48140952Y-46340952D01*
X48569523Y-45912380D02*
X47998095Y-46483809D01*
%TO.C,M3*%
X46180476Y-53232380D02*
X46180476Y-52232380D01*
X46513809Y-52946666D01*
X46847142Y-52232380D01*
X46847142Y-53232380D01*
X47228095Y-52232380D02*
X47847142Y-52232380D01*
X47513809Y-52613333D01*
X47656666Y-52613333D01*
X47751904Y-52660952D01*
X47799523Y-52708571D01*
X47847142Y-52803809D01*
X47847142Y-53041904D01*
X47799523Y-53137142D01*
X47751904Y-53184761D01*
X47656666Y-53232380D01*
X47370952Y-53232380D01*
X47275714Y-53184761D01*
X47228095Y-53137142D01*
D11*
%TO.C,U5*%
X9357653Y-63661782D02*
X30257653Y-63661782D01*
X30257653Y-63661782D02*
X30257653Y-42911782D01*
X30257653Y-42911782D02*
X9357653Y-42911782D01*
X9357653Y-42911782D02*
X9357653Y-63661782D01*
%TO.C,U4*%
X38430000Y-3650000D02*
X22530000Y-3650000D01*
X22530000Y-3650000D02*
X22530000Y-19400000D01*
X22530000Y-19400000D02*
X38430000Y-19400000D01*
X38430000Y-19400000D02*
X38430000Y-3650000D01*
%TO.C,D1*%
X41490000Y-49380000D02*
X41490000Y-47140000D01*
X38090000Y-47140000D02*
X38090000Y-49380000D01*
X42140000Y-48260000D02*
X41490000Y-48260000D01*
X37970000Y-47140000D02*
X37970000Y-49380000D01*
X37250000Y-47140000D02*
X37250000Y-49380000D01*
X37250000Y-49380000D02*
X41490000Y-49380000D01*
X37850000Y-47140000D02*
X37850000Y-49380000D01*
X41490000Y-47140000D02*
X37250000Y-47140000D01*
X36600000Y-48260000D02*
X37250000Y-48260000D01*
%TO.C,M2*%
X31400000Y-60000000D02*
X37180000Y-60000000D01*
X31400000Y-60520000D02*
X37180000Y-60520000D01*
X31400000Y-53780000D02*
X37180000Y-53780000D01*
X31400000Y-54900000D02*
X37180000Y-54900000D01*
X31400000Y-53780000D02*
X31400000Y-60520000D01*
X37180000Y-53780000D02*
X37180000Y-60520000D01*
X31160000Y-60760000D02*
X31560000Y-60760000D01*
X31160000Y-60120000D02*
X31160000Y-60760000D01*
%TO.C,U1*%
X17840000Y-3750000D02*
X15180000Y-3750000D01*
X17840000Y-6350000D02*
X15180000Y-6350000D01*
X17840000Y-7620000D02*
X17840000Y-8950000D01*
X17840000Y-6350000D02*
X17840000Y-3750000D01*
X15180000Y-6350000D02*
X15180000Y-3750000D01*
X17840000Y-8950000D02*
X16510000Y-8950000D01*
%TO.C,U3*%
X43770000Y-53540000D02*
X43370000Y-53540000D01*
X43530000Y-53780000D02*
X37750000Y-53780000D01*
X43530000Y-60520000D02*
X43530000Y-53780000D01*
X37750000Y-60520000D02*
X37750000Y-53780000D01*
X43530000Y-54300000D02*
X37750000Y-54300000D01*
X43770000Y-54180000D02*
X43770000Y-53540000D01*
X43530000Y-60520000D02*
X37750000Y-60520000D01*
X43530000Y-59400000D02*
X37750000Y-59400000D01*
D12*
%TO.C,U2*%
X19050000Y-39370000D02*
X52070000Y-39370000D01*
X52070000Y-39370000D02*
X52070000Y-21590000D01*
X19050000Y-21590000D02*
X19050000Y-39370000D01*
X52070000Y-21590000D02*
X19050000Y-21590000D01*
D11*
%TO.C,D2*%
X49300000Y-48260000D02*
X49950000Y-48260000D01*
X50550000Y-47140000D02*
X50550000Y-49380000D01*
X54190000Y-47140000D02*
X49950000Y-47140000D01*
X50670000Y-47140000D02*
X50670000Y-49380000D01*
X54840000Y-48260000D02*
X54190000Y-48260000D01*
X50790000Y-47140000D02*
X50790000Y-49380000D01*
X49950000Y-47140000D02*
X49950000Y-49380000D01*
X49950000Y-49380000D02*
X54190000Y-49380000D01*
X54190000Y-49380000D02*
X54190000Y-47140000D01*
%TO.C,M3*%
X44100000Y-53780000D02*
X44100000Y-60520000D01*
X44100000Y-54900000D02*
X49880000Y-54900000D01*
X44100000Y-60000000D02*
X49880000Y-60000000D01*
X43860000Y-60760000D02*
X44260000Y-60760000D01*
X49880000Y-53780000D02*
X49880000Y-60520000D01*
X44100000Y-60520000D02*
X49880000Y-60520000D01*
X44100000Y-53780000D02*
X49880000Y-53780000D01*
X43860000Y-60120000D02*
X43860000Y-60760000D01*
%TD*%
M02*
