%TF.GenerationSoftware,KiCad,Pcbnew,(6.0.1)*%
%TF.CreationDate,2022-05-15T10:58:49-07:00*%
%TF.ProjectId,BlackberryJam_pcb,426c6163-6b62-4657-9272-794a616d5f70,rev?*%
%TF.SameCoordinates,Original*%
%TF.FileFunction,Soldermask,Top*%
%TF.FilePolarity,Negative*%
%FSLAX46Y46*%
G04 Gerber Fmt 4.6, Leading zero omitted, Abs format (unit mm)*
G04 Created by KiCad (PCBNEW (6.0.1)) date 2022-05-15 10:58:49*
%MOMM*%
%LPD*%
G01*
G04 APERTURE LIST*
%ADD10C,1.800000*%
%ADD11C,5.000000*%
%ADD12C,2.000000*%
%ADD13R,1.600000X1.600000*%
%ADD14O,1.600000X1.600000*%
%ADD15R,2.100000X2.100000*%
%ADD16C,2.100000*%
%ADD17R,1.700000X1.700000*%
%ADD18C,1.700000*%
%ADD19C,1.879600*%
G04 APERTURE END LIST*
D10*
%TO.C,U5*%
X27386691Y-44284319D03*
X27386691Y-46824319D03*
X27386691Y-49364319D03*
X27386691Y-51904319D03*
X27386691Y-54444319D03*
X27386691Y-56984319D03*
X27386691Y-59524319D03*
X27386691Y-62064319D03*
X12146691Y-62064319D03*
X12146691Y-59524319D03*
X12146691Y-56984319D03*
X12146691Y-54444319D03*
X12146691Y-51904319D03*
X12146691Y-49364319D03*
X12146691Y-46824319D03*
X12146691Y-44284319D03*
%TD*%
D11*
%TO.C,U4*%
X25280000Y-16350000D03*
X35680000Y-16350000D03*
D12*
X36830000Y-5174000D03*
X34290000Y-5174000D03*
X31750000Y-5174000D03*
X29210000Y-5174000D03*
X26670000Y-5174000D03*
X24130000Y-5174000D03*
%TD*%
D13*
%TO.C,D1*%
X35560000Y-48260000D03*
D14*
X43180000Y-48260000D03*
%TD*%
D15*
%TO.C,M2*%
X33020000Y-57150000D03*
D16*
X35560000Y-57150000D03*
%TD*%
D11*
%TO.C,REF\u002A\u002A*%
X53340000Y-6350000D03*
%TD*%
D17*
%TO.C,U1*%
X16510000Y-7620000D03*
D18*
X16510000Y-5080000D03*
%TD*%
D15*
%TO.C,U3*%
X41910000Y-57150000D03*
D16*
X39370000Y-57150000D03*
%TD*%
D19*
%TO.C,U2*%
X20320000Y-24130000D03*
X20320000Y-26670000D03*
X20320000Y-29210000D03*
X20320000Y-31750000D03*
X20320000Y-34290000D03*
X20320000Y-36830000D03*
X34163000Y-25781000D03*
X31623000Y-25781000D03*
X44577000Y-25781000D03*
X42037000Y-25781000D03*
X22860000Y-22860000D03*
X25400000Y-22860000D03*
X27940000Y-22860000D03*
X30480000Y-22860000D03*
X33020000Y-22860000D03*
X35560000Y-22860000D03*
X38100000Y-22860000D03*
X40640000Y-22860000D03*
X43180000Y-22860000D03*
X45720000Y-22860000D03*
X48260000Y-22860000D03*
X50800000Y-22860000D03*
X50800000Y-38100000D03*
X48260000Y-38100000D03*
X45720000Y-38100000D03*
X43180000Y-38100000D03*
X40640000Y-38100000D03*
X38100000Y-38100000D03*
X35560000Y-38100000D03*
X33020000Y-38100000D03*
X30480000Y-38100000D03*
X27940000Y-38100000D03*
X25400000Y-38100000D03*
X22860000Y-38100000D03*
%TD*%
D11*
%TO.C,REF\u002A\u002A*%
X6350000Y-59690000D03*
%TD*%
%TO.C,REF\u002A\u002A*%
X6350000Y-6350000D03*
%TD*%
D13*
%TO.C,D2*%
X48260000Y-48260000D03*
D14*
X55880000Y-48260000D03*
%TD*%
D11*
%TO.C,REF\u002A\u002A*%
X53340000Y-59690000D03*
%TD*%
D15*
%TO.C,M3*%
X45720000Y-57150000D03*
D16*
X48260000Y-57150000D03*
%TD*%
M02*
