M48
; DRILL file {KiCad (6.0.1)} date Sun May 15 10:58:50 2022
; FORMAT={-:-/ absolute / inch / decimal}
; #@! TF.CreationDate,2022-05-15T10:58:50-07:00
; #@! TF.GenerationSoftware,Kicad,Pcbnew,(6.0.1)
; #@! TF.FileFunction,Plated,1,2,PTH
FMAT,2
INCH
; #@! TA.AperFunction,Plated,PTH,ComponentDrill
T1C0.0394
; #@! TA.AperFunction,Plated,PTH,ComponentDrill
T2C0.0400
; #@! TA.AperFunction,Plated,PTH,ComponentDrill
T3C0.0433
; #@! TA.AperFunction,Plated,PTH,ComponentDrill
T4C0.1260
; #@! TA.AperFunction,Plated,PTH,ComponentDrill
T5C0.1378
%
G90
G05
T1
X0.4782Y-1.7435
X0.4782Y-1.8435
X0.4782Y-1.9435
X0.4782Y-2.0435
X0.4782Y-2.1435
X0.4782Y-2.2435
X0.4782Y-2.3435
X0.4782Y-2.4435
X0.65Y-0.2
X0.65Y-0.3
X0.95Y-0.2037
X1.05Y-0.2037
X1.0782Y-1.7435
X1.0782Y-1.8435
X1.0782Y-1.9435
X1.0782Y-2.0435
X1.0782Y-2.1435
X1.0782Y-2.2435
X1.0782Y-2.3435
X1.0782Y-2.4435
X1.15Y-0.2037
X1.25Y-0.2037
X1.35Y-0.2037
X1.4Y-1.9
X1.45Y-0.2037
X1.7Y-1.9
X1.9Y-1.9
X2.2Y-1.9
T2
X0.8Y-0.95
X0.8Y-1.05
X0.8Y-1.15
X0.8Y-1.25
X0.8Y-1.35
X0.8Y-1.45
X0.9Y-0.9
X0.9Y-1.5
X1.0Y-0.9
X1.0Y-1.5
X1.1Y-0.9
X1.1Y-1.5
X1.2Y-0.9
X1.2Y-1.5
X1.245Y-1.015
X1.3Y-0.9
X1.3Y-1.5
X1.345Y-1.015
X1.4Y-0.9
X1.4Y-1.5
X1.5Y-0.9
X1.5Y-1.5
X1.6Y-0.9
X1.6Y-1.5
X1.655Y-1.015
X1.7Y-0.9
X1.7Y-1.5
X1.755Y-1.015
X1.8Y-0.9
X1.8Y-1.5
X1.9Y-0.9
X1.9Y-1.5
X2.0Y-0.9
X2.0Y-1.5
T3
X1.3Y-2.25
X1.4Y-2.25
X1.55Y-2.25
X1.65Y-2.25
X1.8Y-2.25
X1.9Y-2.25
T4
X0.9953Y-0.6437
X1.4047Y-0.6437
T5
X0.25Y-0.25
X0.25Y-2.35
X2.1Y-0.25
X2.1Y-2.35
T0
M30
