%TF.GenerationSoftware,KiCad,Pcbnew,(6.0.1)*%
%TF.CreationDate,2022-05-15T10:58:49-07:00*%
%TF.ProjectId,BlackberryJam_pcb,426c6163-6b62-4657-9272-794a616d5f70,rev?*%
%TF.SameCoordinates,Original*%
%TF.FileFunction,Legend,Bot*%
%TF.FilePolarity,Positive*%
%FSLAX46Y46*%
G04 Gerber Fmt 4.6, Leading zero omitted, Abs format (unit mm)*
G04 Created by KiCad (PCBNEW (6.0.1)) date 2022-05-15 10:58:49*
%MOMM*%
%LPD*%
G01*
G04 APERTURE LIST*
%ADD10C,0.300000*%
G04 APERTURE END LIST*
D10*
X15918571Y-12920000D02*
X14418571Y-12920000D01*
X15490000Y-13503333D01*
X14418571Y-14086666D01*
X15918571Y-14086666D01*
X15490000Y-14836666D02*
X15490000Y-15670000D01*
X15918571Y-14670000D02*
X14418571Y-15253333D01*
X15918571Y-15836666D01*
X15918571Y-16420000D02*
X14418571Y-16420000D01*
X14418571Y-16836666D01*
X14490000Y-17086666D01*
X14632857Y-17253333D01*
X14775714Y-17336666D01*
X15061428Y-17420000D01*
X15275714Y-17420000D01*
X15561428Y-17336666D01*
X15704285Y-17253333D01*
X15847142Y-17086666D01*
X15918571Y-16836666D01*
X15918571Y-16420000D01*
X15132857Y-18170000D02*
X15132857Y-18753333D01*
X15918571Y-19003333D02*
X15918571Y-18170000D01*
X14418571Y-18170000D01*
X14418571Y-19003333D01*
X15132857Y-21670000D02*
X15204285Y-21920000D01*
X15275714Y-22003333D01*
X15418571Y-22086666D01*
X15632857Y-22086666D01*
X15775714Y-22003333D01*
X15847142Y-21920000D01*
X15918571Y-21753333D01*
X15918571Y-21086666D01*
X14418571Y-21086666D01*
X14418571Y-21670000D01*
X14490000Y-21836666D01*
X14561428Y-21920000D01*
X14704285Y-22003333D01*
X14847142Y-22003333D01*
X14990000Y-21920000D01*
X15061428Y-21836666D01*
X15132857Y-21670000D01*
X15132857Y-21086666D01*
X15204285Y-23170000D02*
X15918571Y-23170000D01*
X14418571Y-22586666D02*
X15204285Y-23170000D01*
X14418571Y-23753333D01*
X14490000Y-26586666D02*
X14418571Y-26419999D01*
X14418571Y-26169999D01*
X14490000Y-25920000D01*
X14632857Y-25753333D01*
X14775714Y-25670000D01*
X15061428Y-25586666D01*
X15275714Y-25586666D01*
X15561428Y-25670000D01*
X15704285Y-25753333D01*
X15847142Y-25920000D01*
X15918571Y-26170000D01*
X15918571Y-26336666D01*
X15847142Y-26586666D01*
X15775714Y-26670000D01*
X15275714Y-26670000D01*
X15275714Y-26336666D01*
X14418571Y-27753333D02*
X14418571Y-28086666D01*
X14490000Y-28253333D01*
X14632857Y-28420000D01*
X14918571Y-28503333D01*
X15418571Y-28503333D01*
X15704285Y-28420000D01*
X15847142Y-28253333D01*
X15918571Y-28086666D01*
X15918571Y-27753333D01*
X15847142Y-27586666D01*
X15704285Y-27420000D01*
X15418571Y-27336666D01*
X14918571Y-27336666D01*
X14632857Y-27420000D01*
X14490000Y-27586666D01*
X14418571Y-27753333D01*
X15918571Y-30253333D02*
X15204285Y-29670000D01*
X15918571Y-29253333D02*
X14418571Y-29253333D01*
X14418571Y-29920000D01*
X14490000Y-30086666D01*
X14561428Y-30170000D01*
X14704285Y-30253333D01*
X14918571Y-30253333D01*
X15061428Y-30170000D01*
X15132857Y-30086666D01*
X15204285Y-29920000D01*
X15204285Y-29253333D01*
X15918571Y-31003333D02*
X14418571Y-31003333D01*
X14418571Y-31420000D01*
X14490000Y-31670000D01*
X14632857Y-31836666D01*
X14775714Y-31920000D01*
X15061428Y-32003333D01*
X15275714Y-32003333D01*
X15561428Y-31920000D01*
X15704285Y-31836666D01*
X15847142Y-31670000D01*
X15918571Y-31420000D01*
X15918571Y-31003333D01*
X14418571Y-33086666D02*
X14418571Y-33420000D01*
X14490000Y-33586666D01*
X14632857Y-33753333D01*
X14918571Y-33836666D01*
X15418571Y-33836666D01*
X15704285Y-33753333D01*
X15847142Y-33586666D01*
X15918571Y-33420000D01*
X15918571Y-33086666D01*
X15847142Y-32920000D01*
X15704285Y-32753333D01*
X15418571Y-32670000D01*
X14918571Y-32670000D01*
X14632857Y-32753333D01*
X14490000Y-32920000D01*
X14418571Y-33086666D01*
X15918571Y-34586666D02*
X14418571Y-34586666D01*
X15918571Y-35586666D01*
X14418571Y-35586666D01*
X15847142Y-37670000D02*
X15918571Y-37920000D01*
X15918571Y-38336666D01*
X15847142Y-38503333D01*
X15775714Y-38586666D01*
X15632857Y-38670000D01*
X15490000Y-38670000D01*
X15347142Y-38586666D01*
X15275714Y-38503333D01*
X15204285Y-38336666D01*
X15132857Y-38003333D01*
X15061428Y-37836666D01*
X14990000Y-37753333D01*
X14847142Y-37670000D01*
X14704285Y-37670000D01*
X14561428Y-37753333D01*
X14490000Y-37836666D01*
X14418571Y-38003333D01*
X14418571Y-38420000D01*
X14490000Y-38670000D01*
X14418571Y-39753333D02*
X14418571Y-40086666D01*
X14490000Y-40253333D01*
X14632857Y-40420000D01*
X14918571Y-40503333D01*
X15418571Y-40503333D01*
X15704285Y-40420000D01*
X15847142Y-40253333D01*
X15918571Y-40086666D01*
X15918571Y-39753333D01*
X15847142Y-39586666D01*
X15704285Y-39420000D01*
X15418571Y-39336666D01*
X14918571Y-39336666D01*
X14632857Y-39420000D01*
X14490000Y-39586666D01*
X14418571Y-39753333D01*
X50178085Y-1479424D02*
X50178085Y-2550853D01*
X50249514Y-2765138D01*
X50392371Y-2907995D01*
X50606656Y-2979424D01*
X50749514Y-2979424D01*
X48749514Y-2979424D02*
X49463799Y-2979424D01*
X49463799Y-1479424D01*
X47392371Y-2836567D02*
X47463799Y-2907995D01*
X47678085Y-2979424D01*
X47820942Y-2979424D01*
X48035228Y-2907995D01*
X48178085Y-2765138D01*
X48249514Y-2622281D01*
X48320942Y-2336567D01*
X48320942Y-2122281D01*
X48249514Y-1836567D01*
X48178085Y-1693710D01*
X48035228Y-1550853D01*
X47820942Y-1479424D01*
X47678085Y-1479424D01*
X47463799Y-1550853D01*
X47392371Y-1622281D01*
X46320942Y-1479424D02*
X46320942Y-2550853D01*
X46392371Y-2765138D01*
X46535228Y-2907995D01*
X46749514Y-2979424D01*
X46892371Y-2979424D01*
X44892371Y-2979424D02*
X45606656Y-2979424D01*
X45606656Y-1479424D01*
X43535228Y-2836567D02*
X43606656Y-2907995D01*
X43820942Y-2979424D01*
X43963799Y-2979424D01*
X44178085Y-2907995D01*
X44320942Y-2765138D01*
X44392371Y-2622281D01*
X44463799Y-2336567D01*
X44463799Y-2122281D01*
X44392371Y-1836567D01*
X44320942Y-1693710D01*
X44178085Y-1550853D01*
X43963799Y-1479424D01*
X43820942Y-1479424D01*
X43606656Y-1550853D01*
X43535228Y-1622281D01*
X42463799Y-1479424D02*
X42463799Y-2550853D01*
X42535228Y-2765138D01*
X42678085Y-2907995D01*
X42892371Y-2979424D01*
X43035228Y-2979424D01*
X41035228Y-2979424D02*
X41749513Y-2979424D01*
X41749513Y-1479424D01*
X39678085Y-2836567D02*
X39749513Y-2907995D01*
X39963799Y-2979424D01*
X40106656Y-2979424D01*
X40320942Y-2907995D01*
X40463799Y-2765138D01*
X40535228Y-2622281D01*
X40606656Y-2336567D01*
X40606656Y-2122281D01*
X40535228Y-1836567D01*
X40463799Y-1693710D01*
X40320942Y-1550853D01*
X40106656Y-1479424D01*
X39963799Y-1479424D01*
X39749513Y-1550853D01*
X39678085Y-1622281D01*
X38606656Y-1479424D02*
X38606656Y-2550853D01*
X38678085Y-2765138D01*
X38820942Y-2907995D01*
X39035228Y-2979424D01*
X39178085Y-2979424D01*
X37178085Y-2979424D02*
X37892371Y-2979424D01*
X37892371Y-1479424D01*
X35820942Y-2836567D02*
X35892371Y-2907995D01*
X36106656Y-2979424D01*
X36249513Y-2979424D01*
X36463799Y-2907995D01*
X36606656Y-2765138D01*
X36678085Y-2622281D01*
X36749513Y-2336567D01*
X36749513Y-2122281D01*
X36678085Y-1836567D01*
X36606656Y-1693710D01*
X36463799Y-1550853D01*
X36249513Y-1479424D01*
X36106656Y-1479424D01*
X35892371Y-1550853D01*
X35820942Y-1622281D01*
X12592857Y-13045000D02*
X12664285Y-13295000D01*
X12735714Y-13378333D01*
X12878571Y-13461666D01*
X13092857Y-13461666D01*
X13235714Y-13378333D01*
X13307142Y-13295000D01*
X13378571Y-13128333D01*
X13378571Y-12461666D01*
X11878571Y-12461666D01*
X11878571Y-13045000D01*
X11950000Y-13211666D01*
X12021428Y-13295000D01*
X12164285Y-13378333D01*
X12307142Y-13378333D01*
X12450000Y-13295000D01*
X12521428Y-13211666D01*
X12592857Y-13045000D01*
X12592857Y-12461666D01*
X13378571Y-15045000D02*
X13378571Y-14211666D01*
X11878571Y-14211666D01*
X12950000Y-15545000D02*
X12950000Y-16378333D01*
X13378571Y-15378333D02*
X11878571Y-15961666D01*
X13378571Y-16545000D01*
X13235714Y-18128333D02*
X13307142Y-18045000D01*
X13378571Y-17795000D01*
X13378571Y-17628333D01*
X13307142Y-17378333D01*
X13164285Y-17211666D01*
X13021428Y-17128333D01*
X12735714Y-17045000D01*
X12521428Y-17045000D01*
X12235714Y-17128333D01*
X12092857Y-17211666D01*
X11950000Y-17378333D01*
X11878571Y-17628333D01*
X11878571Y-17795000D01*
X11950000Y-18045000D01*
X12021428Y-18128333D01*
X13378571Y-18878333D02*
X11878571Y-18878333D01*
X13378571Y-19878333D02*
X12521428Y-19128333D01*
X11878571Y-19878333D02*
X12735714Y-18878333D01*
X12592857Y-21211666D02*
X12664285Y-21461666D01*
X12735714Y-21545000D01*
X12878571Y-21628333D01*
X13092857Y-21628333D01*
X13235714Y-21545000D01*
X13307142Y-21461666D01*
X13378571Y-21295000D01*
X13378571Y-20628333D01*
X11878571Y-20628333D01*
X11878571Y-21211666D01*
X11950000Y-21378333D01*
X12021428Y-21461666D01*
X12164285Y-21545000D01*
X12307142Y-21545000D01*
X12450000Y-21461666D01*
X12521428Y-21378333D01*
X12592857Y-21211666D01*
X12592857Y-20628333D01*
X12592857Y-22378333D02*
X12592857Y-22961666D01*
X13378571Y-23211666D02*
X13378571Y-22378333D01*
X11878571Y-22378333D01*
X11878571Y-23211666D01*
X13378571Y-24961666D02*
X12664285Y-24378333D01*
X13378571Y-23961666D02*
X11878571Y-23961666D01*
X11878571Y-24628333D01*
X11950000Y-24795000D01*
X12021428Y-24878333D01*
X12164285Y-24961666D01*
X12378571Y-24961666D01*
X12521428Y-24878333D01*
X12592857Y-24795000D01*
X12664285Y-24628333D01*
X12664285Y-23961666D01*
X13378571Y-26711666D02*
X12664285Y-26128333D01*
X13378571Y-25711666D02*
X11878571Y-25711666D01*
X11878571Y-26378333D01*
X11950000Y-26545000D01*
X12021428Y-26628333D01*
X12164285Y-26711666D01*
X12378571Y-26711666D01*
X12521428Y-26628333D01*
X12592857Y-26545000D01*
X12664285Y-26378333D01*
X12664285Y-25711666D01*
X12664285Y-27795000D02*
X13378571Y-27795000D01*
X11878571Y-27211666D02*
X12664285Y-27795000D01*
X11878571Y-28378333D01*
X11878571Y-30795000D02*
X12950000Y-30795000D01*
X13164285Y-30711666D01*
X13307142Y-30545000D01*
X13378571Y-30295000D01*
X13378571Y-30128333D01*
X12950000Y-31545000D02*
X12950000Y-32378333D01*
X13378571Y-31378333D02*
X11878571Y-31961666D01*
X13378571Y-32545000D01*
X13378571Y-33128333D02*
X11878571Y-33128333D01*
X12950000Y-33711666D01*
X11878571Y-34295000D01*
X13378571Y-34295000D01*
X13378571Y-36461666D02*
X11878571Y-36461666D01*
X11878571Y-37128333D01*
X11950000Y-37295000D01*
X12021428Y-37378333D01*
X12164285Y-37461666D01*
X12378571Y-37461666D01*
X12521428Y-37378333D01*
X12592857Y-37295000D01*
X12664285Y-37128333D01*
X12664285Y-36461666D01*
X13235714Y-39211666D02*
X13307142Y-39128333D01*
X13378571Y-38878333D01*
X13378571Y-38711666D01*
X13307142Y-38461666D01*
X13164285Y-38295000D01*
X13021428Y-38211666D01*
X12735714Y-38128333D01*
X12521428Y-38128333D01*
X12235714Y-38211666D01*
X12092857Y-38295000D01*
X11950000Y-38461666D01*
X11878571Y-38711666D01*
X11878571Y-38878333D01*
X11950000Y-39128333D01*
X12021428Y-39211666D01*
X12592857Y-40545000D02*
X12664285Y-40795000D01*
X12735714Y-40878333D01*
X12878571Y-40961666D01*
X13092857Y-40961666D01*
X13235714Y-40878333D01*
X13307142Y-40795000D01*
X13378571Y-40628333D01*
X13378571Y-39961666D01*
X11878571Y-39961666D01*
X11878571Y-40545000D01*
X11950000Y-40711666D01*
X12021428Y-40795000D01*
X12164285Y-40878333D01*
X12307142Y-40878333D01*
X12450000Y-40795000D01*
X12521428Y-40711666D01*
X12592857Y-40545000D01*
X12592857Y-39961666D01*
%TO.C,HVR 2022 XENIA-1 *%
X10838571Y-14856666D02*
X9338571Y-14856666D01*
X10052857Y-14856666D02*
X10052857Y-15856666D01*
X10838571Y-15856666D02*
X9338571Y-15856666D01*
X9338571Y-16440000D02*
X10838571Y-17023333D01*
X9338571Y-17606666D01*
X10838571Y-19190000D02*
X10124285Y-18606666D01*
X10838571Y-18190000D02*
X9338571Y-18190000D01*
X9338571Y-18856666D01*
X9410000Y-19023333D01*
X9481428Y-19106666D01*
X9624285Y-19190000D01*
X9838571Y-19190000D01*
X9981428Y-19106666D01*
X10052857Y-19023333D01*
X10124285Y-18856666D01*
X10124285Y-18190000D01*
X9481428Y-21189999D02*
X9410000Y-21273333D01*
X9338571Y-21439999D01*
X9338571Y-21856666D01*
X9410000Y-22023333D01*
X9481428Y-22106666D01*
X9624285Y-22189999D01*
X9767142Y-22189999D01*
X9981428Y-22106666D01*
X10838571Y-21106666D01*
X10838571Y-22189999D01*
X9338571Y-23273333D02*
X9338571Y-23440000D01*
X9410000Y-23606666D01*
X9481428Y-23690000D01*
X9624285Y-23773333D01*
X9910000Y-23856666D01*
X10267142Y-23856666D01*
X10552857Y-23773333D01*
X10695714Y-23690000D01*
X10767142Y-23606666D01*
X10838571Y-23440000D01*
X10838571Y-23273333D01*
X10767142Y-23106666D01*
X10695714Y-23023333D01*
X10552857Y-22940000D01*
X10267142Y-22856666D01*
X9910000Y-22856666D01*
X9624285Y-22940000D01*
X9481428Y-23023333D01*
X9410000Y-23106666D01*
X9338571Y-23273333D01*
X9481428Y-24523333D02*
X9410000Y-24606666D01*
X9338571Y-24773333D01*
X9338571Y-25190000D01*
X9410000Y-25356666D01*
X9481428Y-25440000D01*
X9624285Y-25523333D01*
X9767142Y-25523333D01*
X9981428Y-25440000D01*
X10838571Y-24440000D01*
X10838571Y-25523333D01*
X9481428Y-26190000D02*
X9410000Y-26273333D01*
X9338571Y-26440000D01*
X9338571Y-26856666D01*
X9410000Y-27023333D01*
X9481428Y-27106666D01*
X9624285Y-27190000D01*
X9767142Y-27190000D01*
X9981428Y-27106666D01*
X10838571Y-26106666D01*
X10838571Y-27190000D01*
X9338571Y-29106666D02*
X10838571Y-30273333D01*
X9338571Y-30273333D02*
X10838571Y-29106666D01*
X10052857Y-30939999D02*
X10052857Y-31523333D01*
X10838571Y-31773333D02*
X10838571Y-30939999D01*
X9338571Y-30939999D01*
X9338571Y-31773333D01*
X10838571Y-32523333D02*
X9338571Y-32523333D01*
X10838571Y-33523333D01*
X9338571Y-33523333D01*
X10838571Y-34356666D02*
X9338571Y-34356666D01*
X10410000Y-35106666D02*
X10410000Y-35940000D01*
X10838571Y-34940000D02*
X9338571Y-35523333D01*
X10838571Y-36106666D01*
X10267142Y-36690000D02*
X10267142Y-38023333D01*
X10838571Y-39773333D02*
X10838571Y-38773333D01*
X10838571Y-39273333D02*
X9338571Y-39273333D01*
X9552857Y-39106666D01*
X9695714Y-38940000D01*
X9767142Y-38773333D01*
G36*
X2112801Y-29693653D02*
G01*
X2109908Y-29711135D01*
X2104278Y-29735206D01*
X2099618Y-29755054D01*
X2094607Y-29782716D01*
X2092661Y-29802999D01*
X2092661Y-29826192D01*
X2159342Y-29826186D01*
X2161120Y-29826190D01*
X2223754Y-29831700D01*
X2275487Y-29847670D01*
X2316190Y-29874059D01*
X2321778Y-29879969D01*
X2326853Y-29891123D01*
X2328171Y-29908547D01*
X2326454Y-29936639D01*
X2325686Y-29944062D01*
X2320351Y-29977832D01*
X2312101Y-30017083D01*
X2302374Y-30054761D01*
X2296723Y-30072827D01*
X2282191Y-30112716D01*
X2264255Y-30156272D01*
X2244582Y-30199878D01*
X2224839Y-30239916D01*
X2206692Y-30272768D01*
X2191808Y-30294815D01*
X2176138Y-30313867D01*
X2146190Y-30280903D01*
X2140194Y-30274198D01*
X2093302Y-30213422D01*
X2054562Y-30147900D01*
X2024931Y-30080193D01*
X2005365Y-30012866D01*
X1996819Y-29948479D01*
X2000249Y-29889597D01*
X2004147Y-29871405D01*
X2014495Y-29835694D01*
X2026461Y-29804550D01*
X2030921Y-29795592D01*
X2044271Y-29772590D01*
X2060662Y-29747565D01*
X2077891Y-29723518D01*
X2093752Y-29703452D01*
X2106042Y-29690368D01*
X2112558Y-29687270D01*
X2112801Y-29693653D01*
G37*
G36*
X4220515Y-24708281D02*
G01*
X4280022Y-24712751D01*
X4329354Y-24718973D01*
X4413825Y-24734639D01*
X4506136Y-24755171D01*
X4595631Y-24778342D01*
X4676099Y-24802653D01*
X4689515Y-24807124D01*
X4857795Y-24870298D01*
X5028904Y-24947305D01*
X5201610Y-25037376D01*
X5374681Y-25139744D01*
X5546885Y-25253640D01*
X5666024Y-25340946D01*
X5716990Y-25378295D01*
X5841863Y-25479113D01*
X5883764Y-25512943D01*
X6045975Y-25656815D01*
X6049303Y-25659903D01*
X6075836Y-25684271D01*
X6097925Y-25704117D01*
X6113349Y-25717469D01*
X6119886Y-25722358D01*
X6122303Y-25721195D01*
X6135383Y-25713343D01*
X6157695Y-25699308D01*
X6186964Y-25680530D01*
X6220914Y-25658448D01*
X6276643Y-25622750D01*
X6410791Y-25542544D01*
X6549462Y-25467064D01*
X6689781Y-25397692D01*
X6828873Y-25335809D01*
X6963864Y-25282795D01*
X7091881Y-25240031D01*
X7132576Y-25227767D01*
X7169145Y-25217088D01*
X7195703Y-25210466D01*
X7214768Y-25207849D01*
X7228859Y-25209185D01*
X7240494Y-25214419D01*
X7252192Y-25223500D01*
X7266472Y-25236375D01*
X7285418Y-25252038D01*
X7321341Y-25273173D01*
X7361381Y-25284566D01*
X7410433Y-25287974D01*
X7430408Y-25287389D01*
X7471184Y-25283202D01*
X7518100Y-25274780D01*
X7571834Y-25261877D01*
X7633060Y-25244249D01*
X7702456Y-25221652D01*
X7780697Y-25193842D01*
X7868460Y-25160575D01*
X7966421Y-25121605D01*
X8075255Y-25076690D01*
X8195639Y-25025584D01*
X8328249Y-24968044D01*
X8346403Y-24960032D01*
X8473762Y-24903825D01*
X8519045Y-24883741D01*
X8563563Y-24864087D01*
X8601619Y-24847381D01*
X8631350Y-24834439D01*
X8650889Y-24826077D01*
X8658374Y-24823108D01*
X8658637Y-24823329D01*
X8656814Y-24832435D01*
X8649826Y-24853767D01*
X8638284Y-24885768D01*
X8622800Y-24926882D01*
X8603987Y-24975553D01*
X8582457Y-25030223D01*
X8558821Y-25089337D01*
X8533691Y-25151338D01*
X8507681Y-25214669D01*
X8481401Y-25277774D01*
X8455465Y-25339097D01*
X8421420Y-25418369D01*
X8379205Y-25514852D01*
X8338386Y-25605743D01*
X8297207Y-25694826D01*
X8253912Y-25785888D01*
X8206746Y-25882712D01*
X8153953Y-25989084D01*
X8090417Y-26114193D01*
X7998522Y-26287635D01*
X7908893Y-26447455D01*
X7821027Y-26594431D01*
X7734419Y-26729337D01*
X7648564Y-26852949D01*
X7562959Y-26966043D01*
X7477099Y-27069395D01*
X7390480Y-27163782D01*
X7296609Y-27260877D01*
X7336077Y-27331807D01*
X7345383Y-27348821D01*
X7368889Y-27393435D01*
X7396472Y-27447459D01*
X7426646Y-27507854D01*
X7457927Y-27571580D01*
X7488829Y-27635599D01*
X7517867Y-27696871D01*
X7543556Y-27752356D01*
X7564409Y-27799015D01*
X7576710Y-27827474D01*
X7680480Y-28084962D01*
X7769418Y-28339488D01*
X7843511Y-28591003D01*
X7902745Y-28839456D01*
X7947106Y-29084798D01*
X7976581Y-29326978D01*
X7978981Y-29358416D01*
X7981799Y-29414747D01*
X7983723Y-29479542D01*
X7984754Y-29549419D01*
X7984892Y-29620994D01*
X7984137Y-29690884D01*
X7982490Y-29755707D01*
X7979951Y-29812081D01*
X7976520Y-29856621D01*
X7960900Y-29980333D01*
X7934118Y-30125532D01*
X7898857Y-30261165D01*
X7854563Y-30389300D01*
X7800681Y-30512007D01*
X7782917Y-30547271D01*
X7713162Y-30666768D01*
X7634682Y-30773779D01*
X7547389Y-30868371D01*
X7451197Y-30950611D01*
X7346020Y-31020569D01*
X7231770Y-31078311D01*
X7108360Y-31123906D01*
X6975705Y-31157421D01*
X6956301Y-31160902D01*
X6897997Y-31168127D01*
X6829893Y-31172986D01*
X6755767Y-31175453D01*
X6679397Y-31175503D01*
X6604560Y-31173109D01*
X6535035Y-31168245D01*
X6474599Y-31160885D01*
X6365132Y-31140054D01*
X6246264Y-31110738D01*
X6125228Y-31074764D01*
X6006934Y-31033593D01*
X5896289Y-30988686D01*
X5888158Y-30985079D01*
X5847525Y-30966386D01*
X5801942Y-30944521D01*
X5753274Y-30920466D01*
X5703386Y-30895206D01*
X5654145Y-30869726D01*
X5607416Y-30845010D01*
X5565063Y-30822042D01*
X5528954Y-30801806D01*
X5500953Y-30785287D01*
X5482926Y-30773468D01*
X5476738Y-30767334D01*
X5476893Y-30767014D01*
X5484370Y-30760030D01*
X5501389Y-30746013D01*
X5525650Y-30726819D01*
X5554851Y-30704307D01*
X5567612Y-30694455D01*
X5605012Y-30664674D01*
X5647658Y-30629736D01*
X5691221Y-30593212D01*
X5731376Y-30558672D01*
X5830247Y-30472223D01*
X5914274Y-30502209D01*
X5992849Y-30528232D01*
X6123001Y-30562015D01*
X6248057Y-30582497D01*
X6367629Y-30589709D01*
X6481330Y-30583680D01*
X6588773Y-30564441D01*
X6689570Y-30532022D01*
X6783334Y-30486453D01*
X6869677Y-30427764D01*
X6934529Y-30369445D01*
X7002190Y-30290039D01*
X7060770Y-30199122D01*
X7110087Y-30097220D01*
X7149960Y-29984856D01*
X7180207Y-29862557D01*
X7200646Y-29730846D01*
X7211094Y-29590248D01*
X7211372Y-29441290D01*
X7206291Y-29340983D01*
X7186194Y-29147025D01*
X7152353Y-28947608D01*
X7104731Y-28742586D01*
X7043292Y-28531811D01*
X6968000Y-28315137D01*
X6878818Y-28092415D01*
X6868002Y-28067571D01*
X6850403Y-28028539D01*
X6829855Y-27984100D01*
X6807295Y-27936175D01*
X6783661Y-27886687D01*
X6759891Y-27837560D01*
X6736922Y-27790715D01*
X6715694Y-27748076D01*
X6697142Y-27711566D01*
X6682207Y-27683106D01*
X6671824Y-27664621D01*
X6666933Y-27658031D01*
X6659196Y-27660032D01*
X6639775Y-27665885D01*
X6611769Y-27674663D01*
X6578204Y-27685429D01*
X6518803Y-27703474D01*
X6425812Y-27725937D01*
X6337297Y-27739337D01*
X6249013Y-27744434D01*
X6156790Y-27745670D01*
X6198358Y-27791395D01*
X6202482Y-27795966D01*
X6256379Y-27861586D01*
X6312633Y-27940470D01*
X6370254Y-28031146D01*
X6428248Y-28132144D01*
X6430509Y-28136276D01*
X6444887Y-28162932D01*
X6452659Y-28179348D01*
X6454464Y-28188305D01*
X6450946Y-28192582D01*
X6442746Y-28194961D01*
X6442489Y-28195018D01*
X6430317Y-28197153D01*
X6404960Y-28201234D01*
X6368210Y-28206985D01*
X6321858Y-28214130D01*
X6267694Y-28222393D01*
X6207510Y-28231498D01*
X6143096Y-28241168D01*
X6083623Y-28250144D01*
X6016923Y-28260395D01*
X5953620Y-28270309D01*
X5896050Y-28279512D01*
X5846551Y-28287630D01*
X5807458Y-28294289D01*
X5781110Y-28299114D01*
X5729164Y-28310477D01*
X5658927Y-28328167D01*
X5578805Y-28350309D01*
X5491048Y-28376217D01*
X5397906Y-28405205D01*
X5301629Y-28436590D01*
X5204466Y-28469686D01*
X5108668Y-28503808D01*
X5019215Y-28536424D01*
X4979936Y-28597656D01*
X4942510Y-28660938D01*
X4907770Y-28729414D01*
X4878828Y-28796875D01*
X4858033Y-28858301D01*
X4852133Y-28881152D01*
X4845426Y-28917556D01*
X4841853Y-28957550D01*
X4840742Y-29006906D01*
X4840812Y-29019013D01*
X4846268Y-29094655D01*
X4860351Y-29158174D01*
X4882997Y-29209415D01*
X4914141Y-29248225D01*
X4953718Y-29274450D01*
X4961670Y-29277715D01*
X5005636Y-29286986D01*
X5060102Y-29286571D01*
X5124299Y-29276797D01*
X5197463Y-29257992D01*
X5278825Y-29230482D01*
X5367620Y-29194596D01*
X5463080Y-29150661D01*
X5564440Y-29099004D01*
X5670933Y-29039953D01*
X5781792Y-28973836D01*
X5896251Y-28900979D01*
X6013543Y-28821710D01*
X6079553Y-28775088D01*
X6163590Y-28714051D01*
X6250944Y-28649019D01*
X6338395Y-28582449D01*
X6422721Y-28516797D01*
X6500698Y-28454519D01*
X6569107Y-28398073D01*
X6636942Y-28340908D01*
X6631468Y-28390034D01*
X6628522Y-28413907D01*
X6621552Y-28462306D01*
X6612498Y-28519030D01*
X6602062Y-28580010D01*
X6590951Y-28641178D01*
X6579869Y-28698464D01*
X6569519Y-28747800D01*
X6518048Y-28947117D01*
X6452170Y-29143151D01*
X6372684Y-29332359D01*
X6279615Y-29514673D01*
X6172993Y-29690029D01*
X6127762Y-29756078D01*
X6023396Y-29893464D01*
X5906553Y-30029677D01*
X5779065Y-30163106D01*
X5642767Y-30292138D01*
X5499492Y-30415162D01*
X5351073Y-30530566D01*
X5199345Y-30636738D01*
X5046139Y-30732067D01*
X4893291Y-30814942D01*
X4834547Y-30843242D01*
X4680379Y-30908313D01*
X4513091Y-30966663D01*
X4333165Y-31018118D01*
X4270225Y-31033950D01*
X4209094Y-31048079D01*
X4155145Y-31058689D01*
X4104473Y-31066359D01*
X4053173Y-31071669D01*
X3997342Y-31075199D01*
X3933075Y-31077528D01*
X3880862Y-31078436D01*
X3803876Y-31076986D01*
X3735905Y-31071233D01*
X3673272Y-31060475D01*
X3612299Y-31044010D01*
X3549309Y-31021136D01*
X3480623Y-30991151D01*
X3441534Y-30972049D01*
X3344735Y-30915157D01*
X3260167Y-30850489D01*
X3188187Y-30778495D01*
X3129152Y-30699625D01*
X3083418Y-30614331D01*
X3051343Y-30523063D01*
X3033284Y-30426273D01*
X3028046Y-30378643D01*
X2909003Y-30378776D01*
X2904002Y-30378787D01*
X2825729Y-30381008D01*
X2758848Y-30387633D01*
X2700104Y-30399513D01*
X2646247Y-30417497D01*
X2594024Y-30442436D01*
X2540182Y-30475180D01*
X2496706Y-30507218D01*
X2433720Y-30564201D01*
X2370141Y-30633439D01*
X2307290Y-30713339D01*
X2246487Y-30802311D01*
X2189052Y-30898760D01*
X2185983Y-30904222D01*
X2171916Y-30927587D01*
X2160487Y-30944002D01*
X2153928Y-30950201D01*
X2153811Y-30950189D01*
X2147646Y-30943350D01*
X2136157Y-30925680D01*
X2120946Y-30899787D01*
X2103615Y-30868277D01*
X2076471Y-30818614D01*
X2014011Y-30713696D01*
X1948749Y-30617715D01*
X1877624Y-30526340D01*
X1797573Y-30435238D01*
X1768706Y-30403800D01*
X1729894Y-30360142D01*
X1698686Y-30322553D01*
X1673030Y-30288223D01*
X1650879Y-30254343D01*
X1630179Y-30218102D01*
X1608883Y-30176693D01*
X1596449Y-30151112D01*
X1567084Y-30084447D01*
X1545626Y-30023643D01*
X1530689Y-29964382D01*
X1520889Y-29902346D01*
X1519293Y-29887910D01*
X1518981Y-29880124D01*
X1749891Y-29880124D01*
X1754140Y-29959798D01*
X1768406Y-30039070D01*
X1792122Y-30113946D01*
X1824725Y-30180431D01*
X1827962Y-30185568D01*
X1841189Y-30205201D01*
X1860961Y-30233501D01*
X1886092Y-30268850D01*
X1915393Y-30309628D01*
X1947676Y-30354217D01*
X1981755Y-30400998D01*
X2016441Y-30448352D01*
X2050547Y-30494661D01*
X2082885Y-30538305D01*
X2112268Y-30577666D01*
X2137507Y-30611125D01*
X2157416Y-30637062D01*
X2170806Y-30653860D01*
X2176489Y-30659899D01*
X2181459Y-30655337D01*
X2192558Y-30641131D01*
X2206972Y-30620592D01*
X2233892Y-30581594D01*
X2276634Y-30522940D01*
X2320342Y-30466350D01*
X2362133Y-30415524D01*
X2399121Y-30374161D01*
X2430940Y-30342173D01*
X2487755Y-30293396D01*
X2548818Y-30252391D01*
X2619625Y-30215197D01*
X2656220Y-30198859D01*
X2712027Y-30177964D01*
X2770390Y-30161403D01*
X2834461Y-30148460D01*
X2907395Y-30138418D01*
X2992346Y-30130563D01*
X3057557Y-30125600D01*
X3078700Y-30059698D01*
X3099315Y-30001143D01*
X3152898Y-29882320D01*
X3220195Y-29768918D01*
X3300491Y-29662067D01*
X3393068Y-29562901D01*
X3397066Y-29559057D01*
X3428146Y-29529854D01*
X3457946Y-29502924D01*
X3484517Y-29479918D01*
X3505910Y-29462484D01*
X3520176Y-29452273D01*
X3525364Y-29450935D01*
X3522749Y-29456396D01*
X3513651Y-29472594D01*
X3499570Y-29496684D01*
X3482116Y-29525878D01*
X3430114Y-29619347D01*
X3382763Y-29719895D01*
X3343122Y-29821231D01*
X3312549Y-29919870D01*
X3292403Y-30012329D01*
X3288334Y-30040532D01*
X3282850Y-30142557D01*
X3291683Y-30243001D01*
X3314583Y-30340076D01*
X3351297Y-30431989D01*
X3362372Y-30453613D01*
X3378770Y-30481177D01*
X3397895Y-30507061D01*
X3422697Y-30535129D01*
X3456127Y-30569244D01*
X3479410Y-30591951D01*
X3510444Y-30620065D01*
X3538823Y-30642079D01*
X3568989Y-30661323D01*
X3605382Y-30681127D01*
X3647390Y-30701992D01*
X3692789Y-30721581D01*
X3735963Y-30735896D01*
X3780389Y-30745671D01*
X3829542Y-30751640D01*
X3886899Y-30754535D01*
X3955937Y-30755092D01*
X4043222Y-30752809D01*
X4131063Y-30745630D01*
X4216175Y-30732777D01*
X4303774Y-30713447D01*
X4399077Y-30686837D01*
X4415537Y-30681773D01*
X4505065Y-30651679D01*
X4601159Y-30615644D01*
X4700250Y-30575225D01*
X4798767Y-30531977D01*
X4893138Y-30487457D01*
X4979793Y-30443223D01*
X5055161Y-30400830D01*
X5192130Y-30313240D01*
X5343355Y-30202321D01*
X5490989Y-30078417D01*
X5635910Y-29940786D01*
X5778994Y-29788685D01*
X5811467Y-29751964D01*
X5904797Y-29641702D01*
X5987094Y-29536269D01*
X6059862Y-29433320D01*
X6124608Y-29330511D01*
X6182835Y-29225500D01*
X6236050Y-29115941D01*
X6285758Y-28999491D01*
X6285888Y-28999167D01*
X6296838Y-28970839D01*
X6309616Y-28936191D01*
X6323206Y-28898169D01*
X6336598Y-28859720D01*
X6348777Y-28823789D01*
X6358730Y-28793323D01*
X6365445Y-28771268D01*
X6367908Y-28760571D01*
X6366220Y-28760388D01*
X6356011Y-28767327D01*
X6338611Y-28781880D01*
X6316402Y-28802128D01*
X6288272Y-28828208D01*
X6182369Y-28919535D01*
X6064817Y-29010845D01*
X5934764Y-29102746D01*
X5791362Y-29195847D01*
X5633761Y-29290756D01*
X5561779Y-29331943D01*
X5469742Y-29381965D01*
X5386775Y-29423407D01*
X5311254Y-29456858D01*
X5241557Y-29482906D01*
X5176061Y-29502141D01*
X5113143Y-29515152D01*
X5051180Y-29522526D01*
X4988550Y-29524853D01*
X4966422Y-29524636D01*
X4887940Y-29519444D01*
X4820809Y-29506862D01*
X4763124Y-29486256D01*
X4712982Y-29456995D01*
X4668478Y-29418445D01*
X4627591Y-29368497D01*
X4589003Y-29302137D01*
X4558706Y-29227413D01*
X4537411Y-29147072D01*
X4525826Y-29063861D01*
X4524660Y-28980528D01*
X4534623Y-28899821D01*
X4546957Y-28847296D01*
X4568055Y-28780708D01*
X4595869Y-28713450D01*
X4631158Y-28644282D01*
X4674681Y-28571961D01*
X4727197Y-28495246D01*
X4789464Y-28412895D01*
X4862242Y-28323666D01*
X4919698Y-28257118D01*
X5249784Y-28257118D01*
X5251054Y-28257135D01*
X5263360Y-28254194D01*
X5286504Y-28247493D01*
X5317837Y-28237820D01*
X5354708Y-28225963D01*
X5397374Y-28212236D01*
X5478089Y-28187973D01*
X5551891Y-28168502D01*
X5623411Y-28152649D01*
X5697281Y-28139243D01*
X5735429Y-28133305D01*
X5798573Y-28124395D01*
X5868767Y-28115314D01*
X5941592Y-28106587D01*
X6012629Y-28098736D01*
X6077459Y-28092287D01*
X6131665Y-28087762D01*
X6158289Y-28085837D01*
X6192131Y-28082712D01*
X6212455Y-28078552D01*
X6220315Y-28071937D01*
X6216766Y-28061449D01*
X6202862Y-28045668D01*
X6179659Y-28023175D01*
X6143076Y-27989368D01*
X6072956Y-27932068D01*
X6006269Y-27888215D01*
X5941978Y-27857173D01*
X5879048Y-27838303D01*
X5841521Y-27830400D01*
X5812752Y-27825069D01*
X5790214Y-27823282D01*
X5770772Y-27825886D01*
X5751294Y-27833727D01*
X5728647Y-27847651D01*
X5699699Y-27868506D01*
X5661316Y-27897138D01*
X5644403Y-27909783D01*
X5601045Y-27942754D01*
X5557112Y-27976827D01*
X5516905Y-28008649D01*
X5484726Y-28034864D01*
X5473097Y-28044694D01*
X5444698Y-28069473D01*
X5412893Y-28098028D01*
X5379527Y-28128615D01*
X5346442Y-28159489D01*
X5315483Y-28188906D01*
X5288494Y-28215121D01*
X5267319Y-28236391D01*
X5253801Y-28250972D01*
X5249784Y-28257118D01*
X4919698Y-28257118D01*
X4946289Y-28226319D01*
X4967362Y-28202718D01*
X5019288Y-28146874D01*
X5072611Y-28093065D01*
X5128527Y-28040351D01*
X5188231Y-27987792D01*
X5252918Y-27934450D01*
X5323782Y-27879384D01*
X5402020Y-27821657D01*
X5488824Y-27760327D01*
X5585392Y-27694457D01*
X5692917Y-27623107D01*
X5721997Y-27604210D01*
X6104992Y-27604210D01*
X6127854Y-27605237D01*
X6160747Y-27606087D01*
X6272153Y-27599941D01*
X6387261Y-27579878D01*
X6506987Y-27545756D01*
X6536692Y-27535439D01*
X6563643Y-27525394D01*
X6581816Y-27517806D01*
X6588353Y-27513797D01*
X6588184Y-27513118D01*
X6583042Y-27502896D01*
X6573154Y-27486564D01*
X6571711Y-27484295D01*
X6561568Y-27467393D01*
X6556130Y-27456682D01*
X6551091Y-27456178D01*
X6534607Y-27460466D01*
X6509558Y-27469315D01*
X6478895Y-27481768D01*
X6453766Y-27492222D01*
X6371600Y-27522179D01*
X6291423Y-27545293D01*
X6218093Y-27560102D01*
X6194146Y-27564670D01*
X6159969Y-27574576D01*
X6134264Y-27586219D01*
X6104992Y-27604210D01*
X5721997Y-27604210D01*
X5790214Y-27559880D01*
X5812594Y-27545337D01*
X5903593Y-27489048D01*
X6001971Y-27434310D01*
X6101370Y-27386021D01*
X6206528Y-27341896D01*
X6322184Y-27299650D01*
X6329201Y-27297232D01*
X6364343Y-27284842D01*
X6393742Y-27274032D01*
X6414495Y-27265893D01*
X6423702Y-27261514D01*
X6423827Y-27257829D01*
X6412519Y-27251428D01*
X6389649Y-27243995D01*
X6357316Y-27235929D01*
X6317619Y-27227628D01*
X6272656Y-27219491D01*
X6224527Y-27211918D01*
X6175330Y-27205308D01*
X6127165Y-27200059D01*
X6082130Y-27196571D01*
X6065130Y-27195694D01*
X5983918Y-27194621D01*
X5902794Y-27199066D01*
X5820183Y-27209428D01*
X5734512Y-27226105D01*
X5644203Y-27249495D01*
X5547683Y-27279995D01*
X5443375Y-27318003D01*
X5329705Y-27363919D01*
X5205097Y-27418138D01*
X5179976Y-27429299D01*
X5145234Y-27444395D01*
X5117214Y-27456153D01*
X5098299Y-27463580D01*
X5090873Y-27465685D01*
X5090771Y-27465216D01*
X5092874Y-27454935D01*
X5098782Y-27433489D01*
X5107700Y-27403648D01*
X5118835Y-27368183D01*
X5128900Y-27335995D01*
X5151944Y-27256719D01*
X5174253Y-27172833D01*
X5194654Y-27089052D01*
X5211978Y-27010089D01*
X5225053Y-26940658D01*
X5230835Y-26901878D01*
X5483872Y-26901878D01*
X5484115Y-26938385D01*
X5485635Y-26966555D01*
X5488526Y-26982971D01*
X5492489Y-26991260D01*
X5498002Y-26993842D01*
X5503076Y-26983448D01*
X5504454Y-26976710D01*
X5664822Y-26976710D01*
X5762975Y-26966611D01*
X5779073Y-26965052D01*
X5839567Y-26960600D01*
X5904360Y-26957683D01*
X5970209Y-26956302D01*
X6033871Y-26956461D01*
X6092102Y-26958163D01*
X6141657Y-26961412D01*
X6179294Y-26966209D01*
X6187040Y-26967600D01*
X6213170Y-26971961D01*
X6231464Y-26974487D01*
X6238355Y-26974667D01*
X6238019Y-26973336D01*
X6230940Y-26961511D01*
X6215627Y-26940132D01*
X6193344Y-26910735D01*
X6165353Y-26874857D01*
X6132917Y-26834036D01*
X6097298Y-26789809D01*
X6059760Y-26743711D01*
X6021564Y-26697281D01*
X5983974Y-26652055D01*
X5948253Y-26609570D01*
X5915662Y-26571363D01*
X5887465Y-26538971D01*
X5864924Y-26513931D01*
X5849303Y-26497780D01*
X5841863Y-26492055D01*
X5840700Y-26492532D01*
X5832546Y-26502041D01*
X5819603Y-26521611D01*
X5803479Y-26548428D01*
X5785779Y-26579675D01*
X5768110Y-26612538D01*
X5752077Y-26644201D01*
X5739288Y-26671849D01*
X5733431Y-26685791D01*
X5710298Y-26748007D01*
X5691029Y-26811411D01*
X5676949Y-26871249D01*
X5669381Y-26922768D01*
X5664822Y-26976710D01*
X5504454Y-26976710D01*
X5508008Y-26959326D01*
X5513094Y-26920723D01*
X5524606Y-26843736D01*
X5547856Y-26746689D01*
X5581567Y-26649885D01*
X5626999Y-26549210D01*
X5632758Y-26537862D01*
X5653978Y-26498582D01*
X5676924Y-26459033D01*
X5697546Y-26426271D01*
X5733981Y-26371918D01*
X5700003Y-26338632D01*
X5666024Y-26305346D01*
X5651348Y-26324398D01*
X5637991Y-26344846D01*
X5620150Y-26377289D01*
X5600138Y-26417373D01*
X5579549Y-26461661D01*
X5559977Y-26506717D01*
X5543017Y-26549106D01*
X5530262Y-26585390D01*
X5526468Y-26597839D01*
X5514329Y-26642464D01*
X5503305Y-26689349D01*
X5495397Y-26730185D01*
X5493818Y-26740805D01*
X5489880Y-26776496D01*
X5486847Y-26817516D01*
X5484814Y-26860449D01*
X5483872Y-26901878D01*
X5230835Y-26901878D01*
X5231496Y-26897444D01*
X5239785Y-26819705D01*
X5244616Y-26740126D01*
X5245867Y-26662846D01*
X5243417Y-26592006D01*
X5237142Y-26531747D01*
X5237109Y-26531530D01*
X5229966Y-26492415D01*
X5220625Y-26451610D01*
X5210058Y-26412452D01*
X5199240Y-26378282D01*
X5189143Y-26352440D01*
X5180742Y-26338264D01*
X5177314Y-26340248D01*
X5168149Y-26353791D01*
X5154657Y-26378121D01*
X5137834Y-26411412D01*
X5118680Y-26451836D01*
X5113070Y-26463928D01*
X5090883Y-26510729D01*
X5064238Y-26565754D01*
X5035119Y-26624959D01*
X5005511Y-26684300D01*
X4977399Y-26739730D01*
X4951396Y-26790111D01*
X4874876Y-26933512D01*
X4800755Y-27064476D01*
X4727834Y-27184711D01*
X4654912Y-27295922D01*
X4580788Y-27399818D01*
X4504260Y-27498105D01*
X4424130Y-27592490D01*
X4339195Y-27684681D01*
X4248254Y-27776385D01*
X4237794Y-27786561D01*
X4215034Y-27808489D01*
X4190757Y-27831562D01*
X4164063Y-27856594D01*
X4134055Y-27884402D01*
X4099836Y-27915802D01*
X4060506Y-27951610D01*
X4015169Y-27992643D01*
X3962925Y-28039717D01*
X3902878Y-28093647D01*
X3834129Y-28155250D01*
X3755780Y-28225342D01*
X3666934Y-28304739D01*
X3628559Y-28338658D01*
X3580773Y-28380305D01*
X3527180Y-28426561D01*
X3470775Y-28474850D01*
X3414556Y-28522598D01*
X3361518Y-28567229D01*
X3330473Y-28593226D01*
X3248360Y-28662274D01*
X3176554Y-28723257D01*
X3113917Y-28777315D01*
X3059310Y-28825587D01*
X3011594Y-28869210D01*
X2969631Y-28909325D01*
X2932281Y-28947070D01*
X2898407Y-28983584D01*
X2866870Y-29020005D01*
X2836531Y-29057474D01*
X2806251Y-29097128D01*
X2774891Y-29140106D01*
X2741314Y-29187547D01*
X2692668Y-29256985D01*
X2630813Y-29261902D01*
X2527837Y-29272425D01*
X2408219Y-29290933D01*
X2296630Y-29315280D01*
X2194729Y-29345033D01*
X2104181Y-29379760D01*
X2026648Y-29419028D01*
X2005940Y-29433113D01*
X1976656Y-29456320D01*
X1944554Y-29484292D01*
X1913624Y-29513687D01*
X1874591Y-29555667D01*
X1827225Y-29619290D01*
X1791543Y-29686658D01*
X1765490Y-29761209D01*
X1756221Y-29804041D01*
X1749891Y-29880124D01*
X1518981Y-29880124D01*
X1515289Y-29788064D01*
X1524685Y-29695066D01*
X1547794Y-29608008D01*
X1584926Y-29525984D01*
X1636394Y-29448087D01*
X1702508Y-29373411D01*
X1718898Y-29357533D01*
X1802355Y-29288456D01*
X1899673Y-29225183D01*
X2010616Y-29167825D01*
X2134950Y-29116494D01*
X2272437Y-29071302D01*
X2422843Y-29032360D01*
X2442170Y-29027913D01*
X2484781Y-29017689D01*
X2514291Y-29009770D01*
X2532059Y-29003719D01*
X2539445Y-28999099D01*
X2537807Y-28995475D01*
X2499377Y-28972400D01*
X2405423Y-28905779D01*
X2325095Y-28832390D01*
X2258305Y-28752097D01*
X2204963Y-28664763D01*
X2164980Y-28570250D01*
X2138268Y-28468422D01*
X2124737Y-28359141D01*
X2122072Y-28286717D01*
X2122572Y-28272706D01*
X2324890Y-28272706D01*
X2326331Y-28352345D01*
X2337808Y-28424648D01*
X2359680Y-28487883D01*
X2392385Y-28548395D01*
X2446159Y-28621527D01*
X2510102Y-28684055D01*
X2583184Y-28735015D01*
X2664378Y-28773444D01*
X2714072Y-28792080D01*
X2771068Y-28723543D01*
X2777749Y-28715590D01*
X2827963Y-28659493D01*
X2886601Y-28599161D01*
X2949935Y-28538203D01*
X3014235Y-28480224D01*
X3075771Y-28428834D01*
X3106466Y-28404310D01*
X3148996Y-28370126D01*
X3191086Y-28336109D01*
X3226977Y-28306901D01*
X3255839Y-28283948D01*
X3294023Y-28254568D01*
X3337874Y-28221527D01*
X3383980Y-28187398D01*
X3428927Y-28154753D01*
X3441296Y-28145862D01*
X3479480Y-28118321D01*
X3512972Y-28094020D01*
X3539848Y-28074368D01*
X3558179Y-28060770D01*
X3566041Y-28054634D01*
X3566641Y-28049600D01*
X3560824Y-28034960D01*
X3548674Y-28015616D01*
X3527832Y-27981332D01*
X3507275Y-27927228D01*
X3495383Y-27863157D01*
X3491772Y-27787584D01*
X3491786Y-27785366D01*
X3498643Y-27684961D01*
X3518028Y-27584606D01*
X3550447Y-27482311D01*
X3596405Y-27376088D01*
X3614119Y-27341481D01*
X3664069Y-27256773D01*
X3724878Y-27167875D01*
X3794798Y-27076990D01*
X3872083Y-26986320D01*
X3954985Y-26898070D01*
X4041758Y-26814442D01*
X4049908Y-26807004D01*
X4082007Y-26777965D01*
X4112078Y-26751126D01*
X4137064Y-26729201D01*
X4153908Y-26714903D01*
X4165182Y-26705212D01*
X4175672Y-26694400D01*
X4176579Y-26690195D01*
X4175418Y-26690240D01*
X4159726Y-26692843D01*
X4132626Y-26698921D01*
X4096921Y-26707732D01*
X4055410Y-26718533D01*
X4010896Y-26730583D01*
X3966181Y-26743139D01*
X3924065Y-26755460D01*
X3887350Y-26766803D01*
X3774105Y-26805592D01*
X3592219Y-26878382D01*
X3415560Y-26962036D01*
X3246290Y-27055414D01*
X3086571Y-27157378D01*
X2938565Y-27266787D01*
X2849454Y-27342942D01*
X2757420Y-27431756D01*
X2669178Y-27526886D01*
X2588252Y-27624526D01*
X2518164Y-27720870D01*
X2506959Y-27737860D01*
X2455700Y-27825123D01*
X2412330Y-27915448D01*
X2377205Y-28007102D01*
X2350685Y-28098351D01*
X2333127Y-28187464D01*
X2324890Y-28272706D01*
X2122572Y-28272706D01*
X2126209Y-28170861D01*
X2141535Y-28058441D01*
X2168609Y-27946797D01*
X2207991Y-27833266D01*
X2260242Y-27715187D01*
X2303875Y-27631004D01*
X2355875Y-27543843D01*
X2414190Y-27459244D01*
X2480615Y-27374792D01*
X2556942Y-27288070D01*
X2644963Y-27196664D01*
X2646651Y-27194975D01*
X2685859Y-27156504D01*
X2726238Y-27118118D01*
X2764843Y-27082534D01*
X2798733Y-27052467D01*
X2824961Y-27030632D01*
X2890445Y-26979222D01*
X2876836Y-26907346D01*
X2875835Y-26902010D01*
X2862237Y-26820493D01*
X2849617Y-26728416D01*
X2838472Y-26630138D01*
X2831223Y-26551001D01*
X3232109Y-26551001D01*
X3232280Y-26606319D01*
X3232719Y-26656182D01*
X3233388Y-26698633D01*
X3234248Y-26731715D01*
X3235263Y-26753471D01*
X3236395Y-26761943D01*
X3238999Y-26761968D01*
X3253294Y-26757758D01*
X3277669Y-26748720D01*
X3309606Y-26735812D01*
X3346588Y-26719993D01*
X3464713Y-26671722D01*
X3642233Y-26610913D01*
X3830554Y-26559323D01*
X4028706Y-26517211D01*
X4176579Y-26494083D01*
X4235718Y-26484833D01*
X4266747Y-26480991D01*
X4314821Y-26475552D01*
X4366604Y-26470156D01*
X4418956Y-26465093D01*
X4468735Y-26460652D01*
X4512801Y-26457122D01*
X4548011Y-26454792D01*
X4571226Y-26453951D01*
X4572251Y-26454316D01*
X4569280Y-26462386D01*
X4555420Y-26481044D01*
X4530663Y-26510301D01*
X4495000Y-26550166D01*
X4448422Y-26600651D01*
X4406442Y-26645921D01*
X4298838Y-26764744D01*
X4202679Y-26875433D01*
X4117419Y-26978737D01*
X4042514Y-27075404D01*
X3977419Y-27166183D01*
X3921590Y-27251821D01*
X3874481Y-27333066D01*
X3835548Y-27410668D01*
X3804246Y-27485374D01*
X3797776Y-27503205D01*
X3776816Y-27574757D01*
X3765146Y-27641743D01*
X3762867Y-27702365D01*
X3770079Y-27754823D01*
X3786882Y-27797317D01*
X3794043Y-27808859D01*
X3811945Y-27830313D01*
X3828394Y-27837721D01*
X3844497Y-27831744D01*
X3868682Y-27812388D01*
X3902898Y-27783549D01*
X3943082Y-27748666D01*
X3986627Y-27710073D01*
X4030926Y-27670104D01*
X4073369Y-27631091D01*
X4111351Y-27595369D01*
X4142263Y-27565271D01*
X4209129Y-27496413D01*
X4328148Y-27364357D01*
X4445240Y-27222740D01*
X4557663Y-27075078D01*
X4662679Y-26924886D01*
X4757546Y-26775682D01*
X4784960Y-26729013D01*
X4831200Y-26645708D01*
X4878502Y-26555411D01*
X4925537Y-26460953D01*
X4970975Y-26365163D01*
X5013486Y-26270871D01*
X5051740Y-26180908D01*
X5084408Y-26098103D01*
X5110160Y-26025286D01*
X5115206Y-26009982D01*
X5122569Y-25989968D01*
X5128388Y-25980813D01*
X5134688Y-25980095D01*
X5143491Y-25985391D01*
X5159107Y-25999206D01*
X5180742Y-26023427D01*
X5182100Y-26024947D01*
X5208350Y-26058357D01*
X5235617Y-26096428D01*
X5261659Y-26136149D01*
X5284238Y-26174511D01*
X5290624Y-26186378D01*
X5332750Y-26276205D01*
X5369546Y-26375265D01*
X5399137Y-26478600D01*
X5406438Y-26507026D01*
X5414402Y-26534711D01*
X5420850Y-26553544D01*
X5424839Y-26560523D01*
X5427574Y-26559117D01*
X5430555Y-26548719D01*
X5431340Y-26542188D01*
X5437373Y-26520140D01*
X5448326Y-26488891D01*
X5462961Y-26451433D01*
X5480041Y-26410759D01*
X5498331Y-26369861D01*
X5516593Y-26331733D01*
X5533590Y-26299368D01*
X5548374Y-26272775D01*
X5562358Y-26247171D01*
X5571851Y-26229250D01*
X5575349Y-26221804D01*
X5575192Y-26221373D01*
X5568069Y-26213449D01*
X5551862Y-26197754D01*
X5528664Y-26176175D01*
X5500567Y-26150605D01*
X5469661Y-26122934D01*
X5438040Y-26095051D01*
X5407796Y-26068847D01*
X5381020Y-26046212D01*
X5346351Y-26018737D01*
X6419309Y-26018737D01*
X6419311Y-26020633D01*
X6425904Y-26032174D01*
X6440394Y-26051951D01*
X6461158Y-26077818D01*
X6486569Y-26107627D01*
X6507910Y-26132153D01*
X6551091Y-26183376D01*
X6606568Y-26249186D01*
X6705184Y-26371833D01*
X6800813Y-26496282D01*
X6890513Y-26618725D01*
X6971342Y-26735349D01*
X6987289Y-26759078D01*
X7009257Y-26791590D01*
X7027396Y-26818224D01*
X7040160Y-26836714D01*
X7046005Y-26844795D01*
X7047719Y-26844757D01*
X7057492Y-26836519D01*
X7074286Y-26818121D01*
X7096828Y-26791147D01*
X7123846Y-26757185D01*
X7154067Y-26717821D01*
X7186217Y-26674640D01*
X7219023Y-26629228D01*
X7236149Y-26604885D01*
X7304507Y-26502992D01*
X7376294Y-26388935D01*
X7450415Y-26264537D01*
X7525776Y-26131621D01*
X7601283Y-25992013D01*
X7620612Y-25955386D01*
X7643969Y-25910884D01*
X7661335Y-25877326D01*
X7673429Y-25853220D01*
X7680973Y-25837070D01*
X7684685Y-25827384D01*
X7685286Y-25822668D01*
X7683495Y-25821428D01*
X7678625Y-25823422D01*
X7661957Y-25831067D01*
X7635680Y-25843431D01*
X7602086Y-25859432D01*
X7563468Y-25877992D01*
X7492581Y-25911584D01*
X7375693Y-25963818D01*
X7269362Y-26006896D01*
X7172753Y-26041076D01*
X7085027Y-26066618D01*
X7005347Y-26083782D01*
X6932875Y-26092827D01*
X6866773Y-26094014D01*
X6852411Y-26093352D01*
X6817923Y-26090780D01*
X6791927Y-26086487D01*
X6769373Y-26079411D01*
X6745208Y-26068493D01*
X6735430Y-26063335D01*
X6692654Y-26031788D01*
X6660203Y-25991846D01*
X6640386Y-25946199D01*
X6637539Y-25936286D01*
X6631511Y-25919509D01*
X6627165Y-25912877D01*
X6626671Y-25912968D01*
X6616526Y-25917267D01*
X6596301Y-25926921D01*
X6568935Y-25940433D01*
X6537365Y-25956307D01*
X6504531Y-25973048D01*
X6473370Y-25989157D01*
X6446821Y-26003139D01*
X6427821Y-26013498D01*
X6419309Y-26018737D01*
X5346351Y-26018737D01*
X5240643Y-25934965D01*
X5092866Y-25829226D01*
X5084310Y-25823772D01*
X6221813Y-25823772D01*
X6262927Y-25864885D01*
X6304040Y-25905998D01*
X6401092Y-25853104D01*
X6401623Y-25852815D01*
X6445682Y-25829572D01*
X6493922Y-25805339D01*
X6540538Y-25782970D01*
X6579726Y-25765315D01*
X6610219Y-25752615D01*
X6647415Y-25737755D01*
X6686356Y-25722700D01*
X6724394Y-25708429D01*
X6758880Y-25695917D01*
X6787164Y-25686143D01*
X6806598Y-25680083D01*
X6814533Y-25678713D01*
X6814570Y-25678784D01*
X6813613Y-25687269D01*
X6810067Y-25707564D01*
X6804472Y-25736748D01*
X6797365Y-25771897D01*
X6791120Y-25803934D01*
X6784522Y-25849779D01*
X6783965Y-25884047D01*
X6790046Y-25908509D01*
X6803357Y-25924938D01*
X6824493Y-25935105D01*
X6854050Y-25940782D01*
X6880451Y-25941841D01*
X6928245Y-25937774D01*
X6986102Y-25927645D01*
X7051977Y-25912005D01*
X7123827Y-25891408D01*
X7199610Y-25866406D01*
X7277281Y-25837552D01*
X7354797Y-25805397D01*
X7414955Y-25778085D01*
X7489753Y-25742250D01*
X7570629Y-25701913D01*
X7654001Y-25658924D01*
X7683495Y-25643228D01*
X7736287Y-25615132D01*
X7813904Y-25572389D01*
X7883269Y-25532542D01*
X7891996Y-25527405D01*
X7931432Y-25504492D01*
X7965841Y-25484974D01*
X7993212Y-25469962D01*
X8011531Y-25460562D01*
X8018787Y-25457885D01*
X8017754Y-25464113D01*
X8011117Y-25482681D01*
X7999373Y-25511768D01*
X7983296Y-25549628D01*
X7963658Y-25594517D01*
X7941233Y-25644691D01*
X7916794Y-25698404D01*
X7891113Y-25753914D01*
X7864964Y-25809475D01*
X7839119Y-25863342D01*
X7803890Y-25934943D01*
X7727393Y-26083895D01*
X7648452Y-26229302D01*
X7568037Y-26369584D01*
X7487122Y-26503160D01*
X7406676Y-26628452D01*
X7327672Y-26743877D01*
X7251081Y-26847857D01*
X7177875Y-26938812D01*
X7136292Y-26987828D01*
X7207530Y-27102126D01*
X7258301Y-27047510D01*
X7316939Y-26981734D01*
X7406904Y-26870851D01*
X7499328Y-26745319D01*
X7594078Y-26605349D01*
X7691021Y-26451156D01*
X7790026Y-26282950D01*
X7890961Y-26100946D01*
X7993693Y-25905356D01*
X8098090Y-25696392D01*
X8119930Y-25651358D01*
X8150511Y-25587550D01*
X8181366Y-25522423D01*
X8210734Y-25459720D01*
X8236855Y-25403185D01*
X8257967Y-25356561D01*
X8262516Y-25346358D01*
X8288090Y-25288928D01*
X8308132Y-25243762D01*
X8323253Y-25209441D01*
X8334064Y-25184544D01*
X8341173Y-25167651D01*
X8345193Y-25157343D01*
X8346733Y-25152200D01*
X8346403Y-25150801D01*
X8342855Y-25152304D01*
X8327396Y-25159521D01*
X8301447Y-25171881D01*
X8266916Y-25188471D01*
X8225712Y-25208374D01*
X8179743Y-25230677D01*
X8139088Y-25250356D01*
X8025864Y-25304085D01*
X7923703Y-25350761D01*
X7831118Y-25390999D01*
X7746619Y-25425412D01*
X7668718Y-25454613D01*
X7595925Y-25479217D01*
X7526752Y-25499837D01*
X7522378Y-25501043D01*
X7489901Y-25509292D01*
X7460791Y-25514807D01*
X7430400Y-25518117D01*
X7394078Y-25519751D01*
X7347176Y-25520236D01*
X7342705Y-25520242D01*
X7300972Y-25520106D01*
X7270768Y-25519256D01*
X7248691Y-25517213D01*
X7231337Y-25513499D01*
X7215303Y-25507636D01*
X7197187Y-25499145D01*
X7177848Y-25488379D01*
X7150772Y-25469636D01*
X7130739Y-25451515D01*
X7123618Y-25443770D01*
X7109315Y-25430427D01*
X7100347Y-25425148D01*
X7091648Y-25427214D01*
X7070334Y-25434251D01*
X7039086Y-25445451D01*
X7000142Y-25459950D01*
X6955738Y-25476885D01*
X6908113Y-25495394D01*
X6859504Y-25514614D01*
X6812148Y-25533682D01*
X6768283Y-25551735D01*
X6730146Y-25567910D01*
X6666272Y-25596346D01*
X6589288Y-25632208D01*
X6509639Y-25670729D01*
X6431531Y-25709836D01*
X6359171Y-25747455D01*
X6296766Y-25781514D01*
X6221813Y-25823772D01*
X5084310Y-25823772D01*
X4945669Y-25735394D01*
X4799827Y-25653870D01*
X4656115Y-25585055D01*
X4515311Y-25529351D01*
X4378189Y-25487159D01*
X4245526Y-25458880D01*
X4223812Y-25455712D01*
X4160240Y-25449619D01*
X4091699Y-25446847D01*
X4023149Y-25447402D01*
X3959550Y-25451289D01*
X3905861Y-25458513D01*
X3841482Y-25473092D01*
X3739339Y-25507575D01*
X3646290Y-25554289D01*
X3562337Y-25613232D01*
X3487479Y-25684405D01*
X3421717Y-25767808D01*
X3365051Y-25863440D01*
X3317482Y-25971300D01*
X3279008Y-26091388D01*
X3249632Y-26223705D01*
X3244962Y-26250872D01*
X3240745Y-26279429D01*
X3237558Y-26307946D01*
X3235259Y-26338968D01*
X3233706Y-26375042D01*
X3232758Y-26418716D01*
X3232273Y-26472537D01*
X3232110Y-26539051D01*
X3232109Y-26551001D01*
X2831223Y-26551001D01*
X2829301Y-26530021D01*
X2822600Y-26432425D01*
X2822252Y-26426056D01*
X2818215Y-26253379D01*
X2824755Y-26086396D01*
X2841630Y-25925825D01*
X2868596Y-25772385D01*
X2905413Y-25626793D01*
X2951837Y-25489769D01*
X3007628Y-25362029D01*
X3072541Y-25244293D01*
X3146337Y-25137278D01*
X3228772Y-25041703D01*
X3319603Y-24958287D01*
X3397787Y-24899690D01*
X3499292Y-24837655D01*
X3606613Y-24787491D01*
X3721936Y-24748206D01*
X3847450Y-24718807D01*
X3850227Y-24718295D01*
X3895624Y-24712235D01*
X3952320Y-24707932D01*
X4016736Y-24705387D01*
X4085293Y-24704597D01*
X4091699Y-24704686D01*
X4154412Y-24705562D01*
X4220515Y-24708281D01*
G37*
%TD*%
M02*
